%
M48
M72
T01C0.03200
T02C0.03600
T03C0.04000
T04C0.04400
T05C0.12598
%
T01
X21000Y113000
X31000Y113000
X41000Y113000
X51000Y113000
X61000Y113000
X71000Y113000
X81000Y113000
X91000Y113000
X91000Y133000
X81000Y133000
X71000Y133000
X61000Y133000
X51000Y133000
X41000Y133000
X31000Y133000
X21000Y133000
X56000Y148000
X56000Y158000
X56000Y168000
X56000Y178000
X56000Y188000
X56000Y198000
X56000Y208000
X56000Y218000
X56000Y228000
X86000Y228000
X86000Y218000
X86000Y208000
X86000Y198000
X86000Y188000
X86000Y178000
X86000Y168000
X86000Y158000
X86000Y148000
X151000Y133000
X161000Y133000
X171000Y133000
X181000Y133000
X191000Y133000
X201000Y133000
X211000Y133000
X221000Y133000
X216000Y148000
X216000Y158000
X216000Y168000
X216000Y178000
X216000Y188000
X216000Y198000
X216000Y208000
X216000Y218000
X216000Y228000
X206000Y253000
X236000Y263000
X236000Y273000
X186000Y228000
X186000Y218000
X186000Y208000
X186000Y198000
X186000Y188000
X186000Y178000
X186000Y168000
X186000Y158000
X186000Y148000
X181000Y113000
X171000Y113000
X161000Y113000
X151000Y113000
X191000Y113000
X201000Y113000
X211000Y113000
X221000Y113000
X281000Y113000
X291000Y113000
X301000Y113000
X311000Y113000
X321000Y113000
X331000Y113000
X341000Y113000
X351000Y113000
X351000Y133000
X341000Y133000
X331000Y133000
X321000Y133000
X311000Y133000
X301000Y133000
X291000Y133000
X281000Y133000
X316000Y148000
X316000Y158000
X316000Y168000
X316000Y178000
X316000Y188000
X316000Y198000
X316000Y208000
X316000Y218000
X316000Y228000
X296000Y253000
X336000Y253000
X346000Y228000
X346000Y218000
X346000Y208000
X346000Y198000
X346000Y188000
X346000Y178000
X346000Y168000
X346000Y158000
X346000Y148000
X366000Y263000
X366000Y273000
X166000Y253000
X106000Y263000
X106000Y273000
X76000Y253000
X36000Y253000
T02
X61000Y303000
X71000Y303000
X191000Y303000
X201000Y303000
X321000Y303000
X331000Y303000
T03
X281000Y298000
X281000Y308000
X281000Y273000
X281000Y263000
X281000Y253000
X281000Y243000
X281000Y228000
X281000Y218000
X281000Y208000
X281000Y198000
X281000Y188000
X281000Y178000
X281000Y168000
X281000Y158000
X241000Y158000
X241000Y168000
X241000Y178000
X241000Y188000
X241000Y198000
X241000Y208000
X241000Y218000
X241000Y228000
X151000Y228000
X151000Y218000
X151000Y208000
X151000Y198000
X151000Y188000
X151000Y178000
X151000Y168000
X151000Y158000
X111000Y158000
X111000Y168000
X111000Y178000
X111000Y188000
X111000Y198000
X111000Y208000
X111000Y218000
X111000Y228000
X151000Y243000
X151000Y253000
X151000Y263000
X151000Y273000
X151000Y298000
X151000Y308000
X21000Y308000
X21000Y298000
X21000Y273000
X21000Y263000
X21000Y253000
X21000Y243000
X21000Y228000
X21000Y218000
X21000Y208000
X21000Y198000
X21000Y188000
X21000Y178000
X21000Y168000
X21000Y158000
X21000Y88000
X21000Y78000
X21000Y58000
X21000Y48000
X51000Y48000
X51000Y58000
X51000Y78000
X51000Y88000
X81000Y88000
X81000Y78000
X81000Y58000
X81000Y48000
X111000Y48000
X111000Y58000
X111000Y78000
X111000Y88000
X151000Y88000
X151000Y78000
X151000Y58000
X151000Y48000
X181000Y48000
X181000Y58000
X181000Y78000
X181000Y88000
X211000Y88000
X211000Y78000
X211000Y58000
X211000Y48000
X241000Y48000
X241000Y58000
X241000Y78000
X241000Y88000
X281000Y88000
X281000Y78000
X281000Y58000
X281000Y48000
X311000Y48000
X311000Y58000
X311000Y78000
X311000Y88000
X341000Y88000
X341000Y78000
X341000Y58000
X341000Y48000
X371000Y48000
X371000Y58000
X371000Y78000
X371000Y88000
X371000Y158000
X371000Y168000
X371000Y178000
X371000Y188000
X371000Y198000
X371000Y208000
X371000Y218000
X371000Y228000
T04
X336000Y268000
X296000Y268000
X206000Y268000
X166000Y268000
X76000Y268000
X36000Y268000
T05
X26000Y23000
X106000Y23000
X156000Y23000
X236000Y23000
X286000Y23000
X366000Y23000
X366000Y298000
X236000Y298000
X106000Y298000
M30
