%
M48
M72
T01C0.01181
T02C0.03200
T03C0.04000
T04C0.04400
T05C0.12598
%
T01
X237250Y209250
T02
X276000Y198000
X276000Y188000
X276000Y178000
X276000Y168000
X276000Y158000
X276000Y148000
X276000Y138000
X276000Y128000
X261000Y123000
X261000Y113000
X261000Y103000
X261000Y93000
X261000Y83000
X261000Y73000
X261000Y58000
X261000Y48000
X261000Y38000
X291000Y38000
X291000Y48000
X291000Y58000
X311000Y53000
X311000Y63000
X261000Y133000
X261000Y143000
X256000Y248000
X246000Y248000
X236000Y248000
X226000Y248000
X216000Y248000
X266000Y248000
X276000Y248000
X286000Y248000
X296000Y248000
X91000Y248000
X81000Y248000
X71000Y248000
X61000Y248000
X51000Y248000
X41000Y248000
X31000Y248000
X21000Y248000
X11000Y248000
X76000Y198000
X76000Y188000
X76000Y178000
X76000Y168000
X76000Y158000
X76000Y148000
X76000Y138000
X76000Y128000
X61000Y123000
X61000Y113000
X61000Y103000
X61000Y93000
X61000Y83000
X61000Y73000
X61000Y58000
X61000Y48000
X61000Y38000
X91000Y38000
X91000Y48000
X91000Y58000
X111000Y53000
X111000Y63000
X61000Y133000
X61000Y143000
T03
X96000Y143000
X96000Y153000
X96000Y163000
X96000Y173000
X96000Y183000
X96000Y193000
X96000Y218000
X106000Y218000
X86000Y218000
X76000Y218000
X66000Y218000
X56000Y218000
X46000Y218000
X36000Y218000
X16000Y183000
X16000Y173000
X96000Y128000
X96000Y118000
X96000Y108000
X96000Y98000
X96000Y88000
X96000Y78000
X136000Y78000
X136000Y88000
X136000Y98000
X136000Y108000
X136000Y118000
X136000Y128000
X136000Y143000
X136000Y153000
X136000Y163000
X136000Y173000
X136000Y183000
X136000Y193000
X161000Y193000
X171000Y193000
X181000Y193000
X181000Y223000
X171000Y223000
X161000Y223000
X161000Y253000
X171000Y253000
X181000Y253000
X181000Y283000
X171000Y283000
X161000Y283000
X106000Y308000
X96000Y308000
X86000Y308000
X76000Y308000
X66000Y308000
X56000Y308000
X46000Y308000
X36000Y308000
X161000Y163000
X171000Y163000
X181000Y163000
X181000Y133000
X171000Y133000
X161000Y133000
X161000Y103000
X171000Y103000
X181000Y103000
X181000Y73000
X171000Y73000
X161000Y73000
X161000Y43000
X171000Y43000
X181000Y43000
X216000Y63000
X226000Y63000
X236000Y63000
X246000Y63000
X296000Y78000
X296000Y88000
X296000Y98000
X296000Y108000
X296000Y118000
X296000Y128000
X296000Y143000
X296000Y153000
X296000Y163000
X296000Y173000
X296000Y183000
X296000Y193000
X296000Y218000
X286000Y218000
X276000Y218000
X266000Y218000
X256000Y218000
X246000Y218000
X236000Y218000
X216000Y183000
X216000Y173000
X306000Y218000
X336000Y193000
X336000Y183000
X336000Y173000
X336000Y163000
X336000Y153000
X336000Y143000
X336000Y128000
X336000Y118000
X336000Y108000
X336000Y98000
X336000Y88000
X336000Y78000
X361000Y73000
X371000Y73000
X381000Y73000
X381000Y43000
X371000Y43000
X361000Y43000
X361000Y103000
X371000Y103000
X381000Y103000
X381000Y133000
X371000Y133000
X361000Y133000
X361000Y163000
X371000Y163000
X381000Y163000
X381000Y193000
X371000Y193000
X361000Y193000
X361000Y223000
X371000Y223000
X381000Y223000
X381000Y253000
X371000Y253000
X361000Y253000
X361000Y283000
X371000Y283000
X381000Y283000
X306000Y308000
X296000Y308000
X286000Y308000
X276000Y308000
X266000Y308000
X256000Y308000
X246000Y308000
X236000Y308000
X46000Y63000
X36000Y63000
X26000Y63000
X16000Y63000
T04
X16000Y113000
X16000Y153000
X216000Y153000
X216000Y113000
T05
X26000Y28000
X126000Y28000
X226000Y28000
X326000Y28000
X326000Y278000
X226000Y278000
X126000Y278000
X26000Y278000
M30
