G75*
%MOIN*%
%OFA0B0*%
%FSLAX25Y25*%
%IPPOS*%
%LPD*%
%AMOC8*
5,1,8,0,0,1.08239X$1,22.5*
%
%ADD10C,0.00000*%
D10*
X0002600Y0002600D02*
X0002600Y0317561D01*
X0396301Y0317561D01*
X0396301Y0002600D01*
X0002600Y0002600D01*
X0021301Y0082600D02*
X0021303Y0082758D01*
X0021309Y0082916D01*
X0021319Y0083074D01*
X0021333Y0083232D01*
X0021351Y0083389D01*
X0021372Y0083546D01*
X0021398Y0083702D01*
X0021428Y0083858D01*
X0021461Y0084013D01*
X0021499Y0084166D01*
X0021540Y0084319D01*
X0021585Y0084471D01*
X0021634Y0084622D01*
X0021687Y0084771D01*
X0021743Y0084919D01*
X0021803Y0085065D01*
X0021867Y0085210D01*
X0021935Y0085353D01*
X0022006Y0085495D01*
X0022080Y0085635D01*
X0022158Y0085772D01*
X0022240Y0085908D01*
X0022324Y0086042D01*
X0022413Y0086173D01*
X0022504Y0086302D01*
X0022599Y0086429D01*
X0022696Y0086554D01*
X0022797Y0086676D01*
X0022901Y0086795D01*
X0023008Y0086912D01*
X0023118Y0087026D01*
X0023231Y0087137D01*
X0023346Y0087246D01*
X0023464Y0087351D01*
X0023585Y0087453D01*
X0023708Y0087553D01*
X0023834Y0087649D01*
X0023962Y0087742D01*
X0024092Y0087832D01*
X0024225Y0087918D01*
X0024360Y0088002D01*
X0024496Y0088081D01*
X0024635Y0088158D01*
X0024776Y0088230D01*
X0024918Y0088300D01*
X0025062Y0088365D01*
X0025208Y0088427D01*
X0025355Y0088485D01*
X0025504Y0088540D01*
X0025654Y0088591D01*
X0025805Y0088638D01*
X0025957Y0088681D01*
X0026110Y0088720D01*
X0026265Y0088756D01*
X0026420Y0088787D01*
X0026576Y0088815D01*
X0026732Y0088839D01*
X0026889Y0088859D01*
X0027047Y0088875D01*
X0027204Y0088887D01*
X0027363Y0088895D01*
X0027521Y0088899D01*
X0027679Y0088899D01*
X0027837Y0088895D01*
X0027996Y0088887D01*
X0028153Y0088875D01*
X0028311Y0088859D01*
X0028468Y0088839D01*
X0028624Y0088815D01*
X0028780Y0088787D01*
X0028935Y0088756D01*
X0029090Y0088720D01*
X0029243Y0088681D01*
X0029395Y0088638D01*
X0029546Y0088591D01*
X0029696Y0088540D01*
X0029845Y0088485D01*
X0029992Y0088427D01*
X0030138Y0088365D01*
X0030282Y0088300D01*
X0030424Y0088230D01*
X0030565Y0088158D01*
X0030704Y0088081D01*
X0030840Y0088002D01*
X0030975Y0087918D01*
X0031108Y0087832D01*
X0031238Y0087742D01*
X0031366Y0087649D01*
X0031492Y0087553D01*
X0031615Y0087453D01*
X0031736Y0087351D01*
X0031854Y0087246D01*
X0031969Y0087137D01*
X0032082Y0087026D01*
X0032192Y0086912D01*
X0032299Y0086795D01*
X0032403Y0086676D01*
X0032504Y0086554D01*
X0032601Y0086429D01*
X0032696Y0086302D01*
X0032787Y0086173D01*
X0032876Y0086042D01*
X0032960Y0085908D01*
X0033042Y0085772D01*
X0033120Y0085635D01*
X0033194Y0085495D01*
X0033265Y0085353D01*
X0033333Y0085210D01*
X0033397Y0085065D01*
X0033457Y0084919D01*
X0033513Y0084771D01*
X0033566Y0084622D01*
X0033615Y0084471D01*
X0033660Y0084319D01*
X0033701Y0084166D01*
X0033739Y0084013D01*
X0033772Y0083858D01*
X0033802Y0083702D01*
X0033828Y0083546D01*
X0033849Y0083389D01*
X0033867Y0083232D01*
X0033881Y0083074D01*
X0033891Y0082916D01*
X0033897Y0082758D01*
X0033899Y0082600D01*
X0033897Y0082442D01*
X0033891Y0082284D01*
X0033881Y0082126D01*
X0033867Y0081968D01*
X0033849Y0081811D01*
X0033828Y0081654D01*
X0033802Y0081498D01*
X0033772Y0081342D01*
X0033739Y0081187D01*
X0033701Y0081034D01*
X0033660Y0080881D01*
X0033615Y0080729D01*
X0033566Y0080578D01*
X0033513Y0080429D01*
X0033457Y0080281D01*
X0033397Y0080135D01*
X0033333Y0079990D01*
X0033265Y0079847D01*
X0033194Y0079705D01*
X0033120Y0079565D01*
X0033042Y0079428D01*
X0032960Y0079292D01*
X0032876Y0079158D01*
X0032787Y0079027D01*
X0032696Y0078898D01*
X0032601Y0078771D01*
X0032504Y0078646D01*
X0032403Y0078524D01*
X0032299Y0078405D01*
X0032192Y0078288D01*
X0032082Y0078174D01*
X0031969Y0078063D01*
X0031854Y0077954D01*
X0031736Y0077849D01*
X0031615Y0077747D01*
X0031492Y0077647D01*
X0031366Y0077551D01*
X0031238Y0077458D01*
X0031108Y0077368D01*
X0030975Y0077282D01*
X0030840Y0077198D01*
X0030704Y0077119D01*
X0030565Y0077042D01*
X0030424Y0076970D01*
X0030282Y0076900D01*
X0030138Y0076835D01*
X0029992Y0076773D01*
X0029845Y0076715D01*
X0029696Y0076660D01*
X0029546Y0076609D01*
X0029395Y0076562D01*
X0029243Y0076519D01*
X0029090Y0076480D01*
X0028935Y0076444D01*
X0028780Y0076413D01*
X0028624Y0076385D01*
X0028468Y0076361D01*
X0028311Y0076341D01*
X0028153Y0076325D01*
X0027996Y0076313D01*
X0027837Y0076305D01*
X0027679Y0076301D01*
X0027521Y0076301D01*
X0027363Y0076305D01*
X0027204Y0076313D01*
X0027047Y0076325D01*
X0026889Y0076341D01*
X0026732Y0076361D01*
X0026576Y0076385D01*
X0026420Y0076413D01*
X0026265Y0076444D01*
X0026110Y0076480D01*
X0025957Y0076519D01*
X0025805Y0076562D01*
X0025654Y0076609D01*
X0025504Y0076660D01*
X0025355Y0076715D01*
X0025208Y0076773D01*
X0025062Y0076835D01*
X0024918Y0076900D01*
X0024776Y0076970D01*
X0024635Y0077042D01*
X0024496Y0077119D01*
X0024360Y0077198D01*
X0024225Y0077282D01*
X0024092Y0077368D01*
X0023962Y0077458D01*
X0023834Y0077551D01*
X0023708Y0077647D01*
X0023585Y0077747D01*
X0023464Y0077849D01*
X0023346Y0077954D01*
X0023231Y0078063D01*
X0023118Y0078174D01*
X0023008Y0078288D01*
X0022901Y0078405D01*
X0022797Y0078524D01*
X0022696Y0078646D01*
X0022599Y0078771D01*
X0022504Y0078898D01*
X0022413Y0079027D01*
X0022324Y0079158D01*
X0022240Y0079292D01*
X0022158Y0079428D01*
X0022080Y0079565D01*
X0022006Y0079705D01*
X0021935Y0079847D01*
X0021867Y0079990D01*
X0021803Y0080135D01*
X0021743Y0080281D01*
X0021687Y0080429D01*
X0021634Y0080578D01*
X0021585Y0080729D01*
X0021540Y0080881D01*
X0021499Y0081034D01*
X0021461Y0081187D01*
X0021428Y0081342D01*
X0021398Y0081498D01*
X0021372Y0081654D01*
X0021351Y0081811D01*
X0021333Y0081968D01*
X0021319Y0082126D01*
X0021309Y0082284D01*
X0021303Y0082442D01*
X0021301Y0082600D01*
X0116301Y0132600D02*
X0116303Y0132758D01*
X0116309Y0132916D01*
X0116319Y0133074D01*
X0116333Y0133232D01*
X0116351Y0133389D01*
X0116372Y0133546D01*
X0116398Y0133702D01*
X0116428Y0133858D01*
X0116461Y0134013D01*
X0116499Y0134166D01*
X0116540Y0134319D01*
X0116585Y0134471D01*
X0116634Y0134622D01*
X0116687Y0134771D01*
X0116743Y0134919D01*
X0116803Y0135065D01*
X0116867Y0135210D01*
X0116935Y0135353D01*
X0117006Y0135495D01*
X0117080Y0135635D01*
X0117158Y0135772D01*
X0117240Y0135908D01*
X0117324Y0136042D01*
X0117413Y0136173D01*
X0117504Y0136302D01*
X0117599Y0136429D01*
X0117696Y0136554D01*
X0117797Y0136676D01*
X0117901Y0136795D01*
X0118008Y0136912D01*
X0118118Y0137026D01*
X0118231Y0137137D01*
X0118346Y0137246D01*
X0118464Y0137351D01*
X0118585Y0137453D01*
X0118708Y0137553D01*
X0118834Y0137649D01*
X0118962Y0137742D01*
X0119092Y0137832D01*
X0119225Y0137918D01*
X0119360Y0138002D01*
X0119496Y0138081D01*
X0119635Y0138158D01*
X0119776Y0138230D01*
X0119918Y0138300D01*
X0120062Y0138365D01*
X0120208Y0138427D01*
X0120355Y0138485D01*
X0120504Y0138540D01*
X0120654Y0138591D01*
X0120805Y0138638D01*
X0120957Y0138681D01*
X0121110Y0138720D01*
X0121265Y0138756D01*
X0121420Y0138787D01*
X0121576Y0138815D01*
X0121732Y0138839D01*
X0121889Y0138859D01*
X0122047Y0138875D01*
X0122204Y0138887D01*
X0122363Y0138895D01*
X0122521Y0138899D01*
X0122679Y0138899D01*
X0122837Y0138895D01*
X0122996Y0138887D01*
X0123153Y0138875D01*
X0123311Y0138859D01*
X0123468Y0138839D01*
X0123624Y0138815D01*
X0123780Y0138787D01*
X0123935Y0138756D01*
X0124090Y0138720D01*
X0124243Y0138681D01*
X0124395Y0138638D01*
X0124546Y0138591D01*
X0124696Y0138540D01*
X0124845Y0138485D01*
X0124992Y0138427D01*
X0125138Y0138365D01*
X0125282Y0138300D01*
X0125424Y0138230D01*
X0125565Y0138158D01*
X0125704Y0138081D01*
X0125840Y0138002D01*
X0125975Y0137918D01*
X0126108Y0137832D01*
X0126238Y0137742D01*
X0126366Y0137649D01*
X0126492Y0137553D01*
X0126615Y0137453D01*
X0126736Y0137351D01*
X0126854Y0137246D01*
X0126969Y0137137D01*
X0127082Y0137026D01*
X0127192Y0136912D01*
X0127299Y0136795D01*
X0127403Y0136676D01*
X0127504Y0136554D01*
X0127601Y0136429D01*
X0127696Y0136302D01*
X0127787Y0136173D01*
X0127876Y0136042D01*
X0127960Y0135908D01*
X0128042Y0135772D01*
X0128120Y0135635D01*
X0128194Y0135495D01*
X0128265Y0135353D01*
X0128333Y0135210D01*
X0128397Y0135065D01*
X0128457Y0134919D01*
X0128513Y0134771D01*
X0128566Y0134622D01*
X0128615Y0134471D01*
X0128660Y0134319D01*
X0128701Y0134166D01*
X0128739Y0134013D01*
X0128772Y0133858D01*
X0128802Y0133702D01*
X0128828Y0133546D01*
X0128849Y0133389D01*
X0128867Y0133232D01*
X0128881Y0133074D01*
X0128891Y0132916D01*
X0128897Y0132758D01*
X0128899Y0132600D01*
X0128897Y0132442D01*
X0128891Y0132284D01*
X0128881Y0132126D01*
X0128867Y0131968D01*
X0128849Y0131811D01*
X0128828Y0131654D01*
X0128802Y0131498D01*
X0128772Y0131342D01*
X0128739Y0131187D01*
X0128701Y0131034D01*
X0128660Y0130881D01*
X0128615Y0130729D01*
X0128566Y0130578D01*
X0128513Y0130429D01*
X0128457Y0130281D01*
X0128397Y0130135D01*
X0128333Y0129990D01*
X0128265Y0129847D01*
X0128194Y0129705D01*
X0128120Y0129565D01*
X0128042Y0129428D01*
X0127960Y0129292D01*
X0127876Y0129158D01*
X0127787Y0129027D01*
X0127696Y0128898D01*
X0127601Y0128771D01*
X0127504Y0128646D01*
X0127403Y0128524D01*
X0127299Y0128405D01*
X0127192Y0128288D01*
X0127082Y0128174D01*
X0126969Y0128063D01*
X0126854Y0127954D01*
X0126736Y0127849D01*
X0126615Y0127747D01*
X0126492Y0127647D01*
X0126366Y0127551D01*
X0126238Y0127458D01*
X0126108Y0127368D01*
X0125975Y0127282D01*
X0125840Y0127198D01*
X0125704Y0127119D01*
X0125565Y0127042D01*
X0125424Y0126970D01*
X0125282Y0126900D01*
X0125138Y0126835D01*
X0124992Y0126773D01*
X0124845Y0126715D01*
X0124696Y0126660D01*
X0124546Y0126609D01*
X0124395Y0126562D01*
X0124243Y0126519D01*
X0124090Y0126480D01*
X0123935Y0126444D01*
X0123780Y0126413D01*
X0123624Y0126385D01*
X0123468Y0126361D01*
X0123311Y0126341D01*
X0123153Y0126325D01*
X0122996Y0126313D01*
X0122837Y0126305D01*
X0122679Y0126301D01*
X0122521Y0126301D01*
X0122363Y0126305D01*
X0122204Y0126313D01*
X0122047Y0126325D01*
X0121889Y0126341D01*
X0121732Y0126361D01*
X0121576Y0126385D01*
X0121420Y0126413D01*
X0121265Y0126444D01*
X0121110Y0126480D01*
X0120957Y0126519D01*
X0120805Y0126562D01*
X0120654Y0126609D01*
X0120504Y0126660D01*
X0120355Y0126715D01*
X0120208Y0126773D01*
X0120062Y0126835D01*
X0119918Y0126900D01*
X0119776Y0126970D01*
X0119635Y0127042D01*
X0119496Y0127119D01*
X0119360Y0127198D01*
X0119225Y0127282D01*
X0119092Y0127368D01*
X0118962Y0127458D01*
X0118834Y0127551D01*
X0118708Y0127647D01*
X0118585Y0127747D01*
X0118464Y0127849D01*
X0118346Y0127954D01*
X0118231Y0128063D01*
X0118118Y0128174D01*
X0118008Y0128288D01*
X0117901Y0128405D01*
X0117797Y0128524D01*
X0117696Y0128646D01*
X0117599Y0128771D01*
X0117504Y0128898D01*
X0117413Y0129027D01*
X0117324Y0129158D01*
X0117240Y0129292D01*
X0117158Y0129428D01*
X0117080Y0129565D01*
X0117006Y0129705D01*
X0116935Y0129847D01*
X0116867Y0129990D01*
X0116803Y0130135D01*
X0116743Y0130281D01*
X0116687Y0130429D01*
X0116634Y0130578D01*
X0116585Y0130729D01*
X0116540Y0130881D01*
X0116499Y0131034D01*
X0116461Y0131187D01*
X0116428Y0131342D01*
X0116398Y0131498D01*
X0116372Y0131654D01*
X0116351Y0131811D01*
X0116333Y0131968D01*
X0116319Y0132126D01*
X0116309Y0132284D01*
X0116303Y0132442D01*
X0116301Y0132600D01*
X0191301Y0082600D02*
X0191303Y0082758D01*
X0191309Y0082916D01*
X0191319Y0083074D01*
X0191333Y0083232D01*
X0191351Y0083389D01*
X0191372Y0083546D01*
X0191398Y0083702D01*
X0191428Y0083858D01*
X0191461Y0084013D01*
X0191499Y0084166D01*
X0191540Y0084319D01*
X0191585Y0084471D01*
X0191634Y0084622D01*
X0191687Y0084771D01*
X0191743Y0084919D01*
X0191803Y0085065D01*
X0191867Y0085210D01*
X0191935Y0085353D01*
X0192006Y0085495D01*
X0192080Y0085635D01*
X0192158Y0085772D01*
X0192240Y0085908D01*
X0192324Y0086042D01*
X0192413Y0086173D01*
X0192504Y0086302D01*
X0192599Y0086429D01*
X0192696Y0086554D01*
X0192797Y0086676D01*
X0192901Y0086795D01*
X0193008Y0086912D01*
X0193118Y0087026D01*
X0193231Y0087137D01*
X0193346Y0087246D01*
X0193464Y0087351D01*
X0193585Y0087453D01*
X0193708Y0087553D01*
X0193834Y0087649D01*
X0193962Y0087742D01*
X0194092Y0087832D01*
X0194225Y0087918D01*
X0194360Y0088002D01*
X0194496Y0088081D01*
X0194635Y0088158D01*
X0194776Y0088230D01*
X0194918Y0088300D01*
X0195062Y0088365D01*
X0195208Y0088427D01*
X0195355Y0088485D01*
X0195504Y0088540D01*
X0195654Y0088591D01*
X0195805Y0088638D01*
X0195957Y0088681D01*
X0196110Y0088720D01*
X0196265Y0088756D01*
X0196420Y0088787D01*
X0196576Y0088815D01*
X0196732Y0088839D01*
X0196889Y0088859D01*
X0197047Y0088875D01*
X0197204Y0088887D01*
X0197363Y0088895D01*
X0197521Y0088899D01*
X0197679Y0088899D01*
X0197837Y0088895D01*
X0197996Y0088887D01*
X0198153Y0088875D01*
X0198311Y0088859D01*
X0198468Y0088839D01*
X0198624Y0088815D01*
X0198780Y0088787D01*
X0198935Y0088756D01*
X0199090Y0088720D01*
X0199243Y0088681D01*
X0199395Y0088638D01*
X0199546Y0088591D01*
X0199696Y0088540D01*
X0199845Y0088485D01*
X0199992Y0088427D01*
X0200138Y0088365D01*
X0200282Y0088300D01*
X0200424Y0088230D01*
X0200565Y0088158D01*
X0200704Y0088081D01*
X0200840Y0088002D01*
X0200975Y0087918D01*
X0201108Y0087832D01*
X0201238Y0087742D01*
X0201366Y0087649D01*
X0201492Y0087553D01*
X0201615Y0087453D01*
X0201736Y0087351D01*
X0201854Y0087246D01*
X0201969Y0087137D01*
X0202082Y0087026D01*
X0202192Y0086912D01*
X0202299Y0086795D01*
X0202403Y0086676D01*
X0202504Y0086554D01*
X0202601Y0086429D01*
X0202696Y0086302D01*
X0202787Y0086173D01*
X0202876Y0086042D01*
X0202960Y0085908D01*
X0203042Y0085772D01*
X0203120Y0085635D01*
X0203194Y0085495D01*
X0203265Y0085353D01*
X0203333Y0085210D01*
X0203397Y0085065D01*
X0203457Y0084919D01*
X0203513Y0084771D01*
X0203566Y0084622D01*
X0203615Y0084471D01*
X0203660Y0084319D01*
X0203701Y0084166D01*
X0203739Y0084013D01*
X0203772Y0083858D01*
X0203802Y0083702D01*
X0203828Y0083546D01*
X0203849Y0083389D01*
X0203867Y0083232D01*
X0203881Y0083074D01*
X0203891Y0082916D01*
X0203897Y0082758D01*
X0203899Y0082600D01*
X0203897Y0082442D01*
X0203891Y0082284D01*
X0203881Y0082126D01*
X0203867Y0081968D01*
X0203849Y0081811D01*
X0203828Y0081654D01*
X0203802Y0081498D01*
X0203772Y0081342D01*
X0203739Y0081187D01*
X0203701Y0081034D01*
X0203660Y0080881D01*
X0203615Y0080729D01*
X0203566Y0080578D01*
X0203513Y0080429D01*
X0203457Y0080281D01*
X0203397Y0080135D01*
X0203333Y0079990D01*
X0203265Y0079847D01*
X0203194Y0079705D01*
X0203120Y0079565D01*
X0203042Y0079428D01*
X0202960Y0079292D01*
X0202876Y0079158D01*
X0202787Y0079027D01*
X0202696Y0078898D01*
X0202601Y0078771D01*
X0202504Y0078646D01*
X0202403Y0078524D01*
X0202299Y0078405D01*
X0202192Y0078288D01*
X0202082Y0078174D01*
X0201969Y0078063D01*
X0201854Y0077954D01*
X0201736Y0077849D01*
X0201615Y0077747D01*
X0201492Y0077647D01*
X0201366Y0077551D01*
X0201238Y0077458D01*
X0201108Y0077368D01*
X0200975Y0077282D01*
X0200840Y0077198D01*
X0200704Y0077119D01*
X0200565Y0077042D01*
X0200424Y0076970D01*
X0200282Y0076900D01*
X0200138Y0076835D01*
X0199992Y0076773D01*
X0199845Y0076715D01*
X0199696Y0076660D01*
X0199546Y0076609D01*
X0199395Y0076562D01*
X0199243Y0076519D01*
X0199090Y0076480D01*
X0198935Y0076444D01*
X0198780Y0076413D01*
X0198624Y0076385D01*
X0198468Y0076361D01*
X0198311Y0076341D01*
X0198153Y0076325D01*
X0197996Y0076313D01*
X0197837Y0076305D01*
X0197679Y0076301D01*
X0197521Y0076301D01*
X0197363Y0076305D01*
X0197204Y0076313D01*
X0197047Y0076325D01*
X0196889Y0076341D01*
X0196732Y0076361D01*
X0196576Y0076385D01*
X0196420Y0076413D01*
X0196265Y0076444D01*
X0196110Y0076480D01*
X0195957Y0076519D01*
X0195805Y0076562D01*
X0195654Y0076609D01*
X0195504Y0076660D01*
X0195355Y0076715D01*
X0195208Y0076773D01*
X0195062Y0076835D01*
X0194918Y0076900D01*
X0194776Y0076970D01*
X0194635Y0077042D01*
X0194496Y0077119D01*
X0194360Y0077198D01*
X0194225Y0077282D01*
X0194092Y0077368D01*
X0193962Y0077458D01*
X0193834Y0077551D01*
X0193708Y0077647D01*
X0193585Y0077747D01*
X0193464Y0077849D01*
X0193346Y0077954D01*
X0193231Y0078063D01*
X0193118Y0078174D01*
X0193008Y0078288D01*
X0192901Y0078405D01*
X0192797Y0078524D01*
X0192696Y0078646D01*
X0192599Y0078771D01*
X0192504Y0078898D01*
X0192413Y0079027D01*
X0192324Y0079158D01*
X0192240Y0079292D01*
X0192158Y0079428D01*
X0192080Y0079565D01*
X0192006Y0079705D01*
X0191935Y0079847D01*
X0191867Y0079990D01*
X0191803Y0080135D01*
X0191743Y0080281D01*
X0191687Y0080429D01*
X0191634Y0080578D01*
X0191585Y0080729D01*
X0191540Y0080881D01*
X0191499Y0081034D01*
X0191461Y0081187D01*
X0191428Y0081342D01*
X0191398Y0081498D01*
X0191372Y0081654D01*
X0191351Y0081811D01*
X0191333Y0081968D01*
X0191319Y0082126D01*
X0191309Y0082284D01*
X0191303Y0082442D01*
X0191301Y0082600D01*
X0141301Y0037600D02*
X0141303Y0037758D01*
X0141309Y0037916D01*
X0141319Y0038074D01*
X0141333Y0038232D01*
X0141351Y0038389D01*
X0141372Y0038546D01*
X0141398Y0038702D01*
X0141428Y0038858D01*
X0141461Y0039013D01*
X0141499Y0039166D01*
X0141540Y0039319D01*
X0141585Y0039471D01*
X0141634Y0039622D01*
X0141687Y0039771D01*
X0141743Y0039919D01*
X0141803Y0040065D01*
X0141867Y0040210D01*
X0141935Y0040353D01*
X0142006Y0040495D01*
X0142080Y0040635D01*
X0142158Y0040772D01*
X0142240Y0040908D01*
X0142324Y0041042D01*
X0142413Y0041173D01*
X0142504Y0041302D01*
X0142599Y0041429D01*
X0142696Y0041554D01*
X0142797Y0041676D01*
X0142901Y0041795D01*
X0143008Y0041912D01*
X0143118Y0042026D01*
X0143231Y0042137D01*
X0143346Y0042246D01*
X0143464Y0042351D01*
X0143585Y0042453D01*
X0143708Y0042553D01*
X0143834Y0042649D01*
X0143962Y0042742D01*
X0144092Y0042832D01*
X0144225Y0042918D01*
X0144360Y0043002D01*
X0144496Y0043081D01*
X0144635Y0043158D01*
X0144776Y0043230D01*
X0144918Y0043300D01*
X0145062Y0043365D01*
X0145208Y0043427D01*
X0145355Y0043485D01*
X0145504Y0043540D01*
X0145654Y0043591D01*
X0145805Y0043638D01*
X0145957Y0043681D01*
X0146110Y0043720D01*
X0146265Y0043756D01*
X0146420Y0043787D01*
X0146576Y0043815D01*
X0146732Y0043839D01*
X0146889Y0043859D01*
X0147047Y0043875D01*
X0147204Y0043887D01*
X0147363Y0043895D01*
X0147521Y0043899D01*
X0147679Y0043899D01*
X0147837Y0043895D01*
X0147996Y0043887D01*
X0148153Y0043875D01*
X0148311Y0043859D01*
X0148468Y0043839D01*
X0148624Y0043815D01*
X0148780Y0043787D01*
X0148935Y0043756D01*
X0149090Y0043720D01*
X0149243Y0043681D01*
X0149395Y0043638D01*
X0149546Y0043591D01*
X0149696Y0043540D01*
X0149845Y0043485D01*
X0149992Y0043427D01*
X0150138Y0043365D01*
X0150282Y0043300D01*
X0150424Y0043230D01*
X0150565Y0043158D01*
X0150704Y0043081D01*
X0150840Y0043002D01*
X0150975Y0042918D01*
X0151108Y0042832D01*
X0151238Y0042742D01*
X0151366Y0042649D01*
X0151492Y0042553D01*
X0151615Y0042453D01*
X0151736Y0042351D01*
X0151854Y0042246D01*
X0151969Y0042137D01*
X0152082Y0042026D01*
X0152192Y0041912D01*
X0152299Y0041795D01*
X0152403Y0041676D01*
X0152504Y0041554D01*
X0152601Y0041429D01*
X0152696Y0041302D01*
X0152787Y0041173D01*
X0152876Y0041042D01*
X0152960Y0040908D01*
X0153042Y0040772D01*
X0153120Y0040635D01*
X0153194Y0040495D01*
X0153265Y0040353D01*
X0153333Y0040210D01*
X0153397Y0040065D01*
X0153457Y0039919D01*
X0153513Y0039771D01*
X0153566Y0039622D01*
X0153615Y0039471D01*
X0153660Y0039319D01*
X0153701Y0039166D01*
X0153739Y0039013D01*
X0153772Y0038858D01*
X0153802Y0038702D01*
X0153828Y0038546D01*
X0153849Y0038389D01*
X0153867Y0038232D01*
X0153881Y0038074D01*
X0153891Y0037916D01*
X0153897Y0037758D01*
X0153899Y0037600D01*
X0153897Y0037442D01*
X0153891Y0037284D01*
X0153881Y0037126D01*
X0153867Y0036968D01*
X0153849Y0036811D01*
X0153828Y0036654D01*
X0153802Y0036498D01*
X0153772Y0036342D01*
X0153739Y0036187D01*
X0153701Y0036034D01*
X0153660Y0035881D01*
X0153615Y0035729D01*
X0153566Y0035578D01*
X0153513Y0035429D01*
X0153457Y0035281D01*
X0153397Y0035135D01*
X0153333Y0034990D01*
X0153265Y0034847D01*
X0153194Y0034705D01*
X0153120Y0034565D01*
X0153042Y0034428D01*
X0152960Y0034292D01*
X0152876Y0034158D01*
X0152787Y0034027D01*
X0152696Y0033898D01*
X0152601Y0033771D01*
X0152504Y0033646D01*
X0152403Y0033524D01*
X0152299Y0033405D01*
X0152192Y0033288D01*
X0152082Y0033174D01*
X0151969Y0033063D01*
X0151854Y0032954D01*
X0151736Y0032849D01*
X0151615Y0032747D01*
X0151492Y0032647D01*
X0151366Y0032551D01*
X0151238Y0032458D01*
X0151108Y0032368D01*
X0150975Y0032282D01*
X0150840Y0032198D01*
X0150704Y0032119D01*
X0150565Y0032042D01*
X0150424Y0031970D01*
X0150282Y0031900D01*
X0150138Y0031835D01*
X0149992Y0031773D01*
X0149845Y0031715D01*
X0149696Y0031660D01*
X0149546Y0031609D01*
X0149395Y0031562D01*
X0149243Y0031519D01*
X0149090Y0031480D01*
X0148935Y0031444D01*
X0148780Y0031413D01*
X0148624Y0031385D01*
X0148468Y0031361D01*
X0148311Y0031341D01*
X0148153Y0031325D01*
X0147996Y0031313D01*
X0147837Y0031305D01*
X0147679Y0031301D01*
X0147521Y0031301D01*
X0147363Y0031305D01*
X0147204Y0031313D01*
X0147047Y0031325D01*
X0146889Y0031341D01*
X0146732Y0031361D01*
X0146576Y0031385D01*
X0146420Y0031413D01*
X0146265Y0031444D01*
X0146110Y0031480D01*
X0145957Y0031519D01*
X0145805Y0031562D01*
X0145654Y0031609D01*
X0145504Y0031660D01*
X0145355Y0031715D01*
X0145208Y0031773D01*
X0145062Y0031835D01*
X0144918Y0031900D01*
X0144776Y0031970D01*
X0144635Y0032042D01*
X0144496Y0032119D01*
X0144360Y0032198D01*
X0144225Y0032282D01*
X0144092Y0032368D01*
X0143962Y0032458D01*
X0143834Y0032551D01*
X0143708Y0032647D01*
X0143585Y0032747D01*
X0143464Y0032849D01*
X0143346Y0032954D01*
X0143231Y0033063D01*
X0143118Y0033174D01*
X0143008Y0033288D01*
X0142901Y0033405D01*
X0142797Y0033524D01*
X0142696Y0033646D01*
X0142599Y0033771D01*
X0142504Y0033898D01*
X0142413Y0034027D01*
X0142324Y0034158D01*
X0142240Y0034292D01*
X0142158Y0034428D01*
X0142080Y0034565D01*
X0142006Y0034705D01*
X0141935Y0034847D01*
X0141867Y0034990D01*
X0141803Y0035135D01*
X0141743Y0035281D01*
X0141687Y0035429D01*
X0141634Y0035578D01*
X0141585Y0035729D01*
X0141540Y0035881D01*
X0141499Y0036034D01*
X0141461Y0036187D01*
X0141428Y0036342D01*
X0141398Y0036498D01*
X0141372Y0036654D01*
X0141351Y0036811D01*
X0141333Y0036968D01*
X0141319Y0037126D01*
X0141309Y0037284D01*
X0141303Y0037442D01*
X0141301Y0037600D01*
X0256301Y0132600D02*
X0256303Y0132758D01*
X0256309Y0132916D01*
X0256319Y0133074D01*
X0256333Y0133232D01*
X0256351Y0133389D01*
X0256372Y0133546D01*
X0256398Y0133702D01*
X0256428Y0133858D01*
X0256461Y0134013D01*
X0256499Y0134166D01*
X0256540Y0134319D01*
X0256585Y0134471D01*
X0256634Y0134622D01*
X0256687Y0134771D01*
X0256743Y0134919D01*
X0256803Y0135065D01*
X0256867Y0135210D01*
X0256935Y0135353D01*
X0257006Y0135495D01*
X0257080Y0135635D01*
X0257158Y0135772D01*
X0257240Y0135908D01*
X0257324Y0136042D01*
X0257413Y0136173D01*
X0257504Y0136302D01*
X0257599Y0136429D01*
X0257696Y0136554D01*
X0257797Y0136676D01*
X0257901Y0136795D01*
X0258008Y0136912D01*
X0258118Y0137026D01*
X0258231Y0137137D01*
X0258346Y0137246D01*
X0258464Y0137351D01*
X0258585Y0137453D01*
X0258708Y0137553D01*
X0258834Y0137649D01*
X0258962Y0137742D01*
X0259092Y0137832D01*
X0259225Y0137918D01*
X0259360Y0138002D01*
X0259496Y0138081D01*
X0259635Y0138158D01*
X0259776Y0138230D01*
X0259918Y0138300D01*
X0260062Y0138365D01*
X0260208Y0138427D01*
X0260355Y0138485D01*
X0260504Y0138540D01*
X0260654Y0138591D01*
X0260805Y0138638D01*
X0260957Y0138681D01*
X0261110Y0138720D01*
X0261265Y0138756D01*
X0261420Y0138787D01*
X0261576Y0138815D01*
X0261732Y0138839D01*
X0261889Y0138859D01*
X0262047Y0138875D01*
X0262204Y0138887D01*
X0262363Y0138895D01*
X0262521Y0138899D01*
X0262679Y0138899D01*
X0262837Y0138895D01*
X0262996Y0138887D01*
X0263153Y0138875D01*
X0263311Y0138859D01*
X0263468Y0138839D01*
X0263624Y0138815D01*
X0263780Y0138787D01*
X0263935Y0138756D01*
X0264090Y0138720D01*
X0264243Y0138681D01*
X0264395Y0138638D01*
X0264546Y0138591D01*
X0264696Y0138540D01*
X0264845Y0138485D01*
X0264992Y0138427D01*
X0265138Y0138365D01*
X0265282Y0138300D01*
X0265424Y0138230D01*
X0265565Y0138158D01*
X0265704Y0138081D01*
X0265840Y0138002D01*
X0265975Y0137918D01*
X0266108Y0137832D01*
X0266238Y0137742D01*
X0266366Y0137649D01*
X0266492Y0137553D01*
X0266615Y0137453D01*
X0266736Y0137351D01*
X0266854Y0137246D01*
X0266969Y0137137D01*
X0267082Y0137026D01*
X0267192Y0136912D01*
X0267299Y0136795D01*
X0267403Y0136676D01*
X0267504Y0136554D01*
X0267601Y0136429D01*
X0267696Y0136302D01*
X0267787Y0136173D01*
X0267876Y0136042D01*
X0267960Y0135908D01*
X0268042Y0135772D01*
X0268120Y0135635D01*
X0268194Y0135495D01*
X0268265Y0135353D01*
X0268333Y0135210D01*
X0268397Y0135065D01*
X0268457Y0134919D01*
X0268513Y0134771D01*
X0268566Y0134622D01*
X0268615Y0134471D01*
X0268660Y0134319D01*
X0268701Y0134166D01*
X0268739Y0134013D01*
X0268772Y0133858D01*
X0268802Y0133702D01*
X0268828Y0133546D01*
X0268849Y0133389D01*
X0268867Y0133232D01*
X0268881Y0133074D01*
X0268891Y0132916D01*
X0268897Y0132758D01*
X0268899Y0132600D01*
X0268897Y0132442D01*
X0268891Y0132284D01*
X0268881Y0132126D01*
X0268867Y0131968D01*
X0268849Y0131811D01*
X0268828Y0131654D01*
X0268802Y0131498D01*
X0268772Y0131342D01*
X0268739Y0131187D01*
X0268701Y0131034D01*
X0268660Y0130881D01*
X0268615Y0130729D01*
X0268566Y0130578D01*
X0268513Y0130429D01*
X0268457Y0130281D01*
X0268397Y0130135D01*
X0268333Y0129990D01*
X0268265Y0129847D01*
X0268194Y0129705D01*
X0268120Y0129565D01*
X0268042Y0129428D01*
X0267960Y0129292D01*
X0267876Y0129158D01*
X0267787Y0129027D01*
X0267696Y0128898D01*
X0267601Y0128771D01*
X0267504Y0128646D01*
X0267403Y0128524D01*
X0267299Y0128405D01*
X0267192Y0128288D01*
X0267082Y0128174D01*
X0266969Y0128063D01*
X0266854Y0127954D01*
X0266736Y0127849D01*
X0266615Y0127747D01*
X0266492Y0127647D01*
X0266366Y0127551D01*
X0266238Y0127458D01*
X0266108Y0127368D01*
X0265975Y0127282D01*
X0265840Y0127198D01*
X0265704Y0127119D01*
X0265565Y0127042D01*
X0265424Y0126970D01*
X0265282Y0126900D01*
X0265138Y0126835D01*
X0264992Y0126773D01*
X0264845Y0126715D01*
X0264696Y0126660D01*
X0264546Y0126609D01*
X0264395Y0126562D01*
X0264243Y0126519D01*
X0264090Y0126480D01*
X0263935Y0126444D01*
X0263780Y0126413D01*
X0263624Y0126385D01*
X0263468Y0126361D01*
X0263311Y0126341D01*
X0263153Y0126325D01*
X0262996Y0126313D01*
X0262837Y0126305D01*
X0262679Y0126301D01*
X0262521Y0126301D01*
X0262363Y0126305D01*
X0262204Y0126313D01*
X0262047Y0126325D01*
X0261889Y0126341D01*
X0261732Y0126361D01*
X0261576Y0126385D01*
X0261420Y0126413D01*
X0261265Y0126444D01*
X0261110Y0126480D01*
X0260957Y0126519D01*
X0260805Y0126562D01*
X0260654Y0126609D01*
X0260504Y0126660D01*
X0260355Y0126715D01*
X0260208Y0126773D01*
X0260062Y0126835D01*
X0259918Y0126900D01*
X0259776Y0126970D01*
X0259635Y0127042D01*
X0259496Y0127119D01*
X0259360Y0127198D01*
X0259225Y0127282D01*
X0259092Y0127368D01*
X0258962Y0127458D01*
X0258834Y0127551D01*
X0258708Y0127647D01*
X0258585Y0127747D01*
X0258464Y0127849D01*
X0258346Y0127954D01*
X0258231Y0128063D01*
X0258118Y0128174D01*
X0258008Y0128288D01*
X0257901Y0128405D01*
X0257797Y0128524D01*
X0257696Y0128646D01*
X0257599Y0128771D01*
X0257504Y0128898D01*
X0257413Y0129027D01*
X0257324Y0129158D01*
X0257240Y0129292D01*
X0257158Y0129428D01*
X0257080Y0129565D01*
X0257006Y0129705D01*
X0256935Y0129847D01*
X0256867Y0129990D01*
X0256803Y0130135D01*
X0256743Y0130281D01*
X0256687Y0130429D01*
X0256634Y0130578D01*
X0256585Y0130729D01*
X0256540Y0130881D01*
X0256499Y0131034D01*
X0256461Y0131187D01*
X0256428Y0131342D01*
X0256398Y0131498D01*
X0256372Y0131654D01*
X0256351Y0131811D01*
X0256333Y0131968D01*
X0256319Y0132126D01*
X0256309Y0132284D01*
X0256303Y0132442D01*
X0256301Y0132600D01*
X0321301Y0172600D02*
X0321303Y0172758D01*
X0321309Y0172916D01*
X0321319Y0173074D01*
X0321333Y0173232D01*
X0321351Y0173389D01*
X0321372Y0173546D01*
X0321398Y0173702D01*
X0321428Y0173858D01*
X0321461Y0174013D01*
X0321499Y0174166D01*
X0321540Y0174319D01*
X0321585Y0174471D01*
X0321634Y0174622D01*
X0321687Y0174771D01*
X0321743Y0174919D01*
X0321803Y0175065D01*
X0321867Y0175210D01*
X0321935Y0175353D01*
X0322006Y0175495D01*
X0322080Y0175635D01*
X0322158Y0175772D01*
X0322240Y0175908D01*
X0322324Y0176042D01*
X0322413Y0176173D01*
X0322504Y0176302D01*
X0322599Y0176429D01*
X0322696Y0176554D01*
X0322797Y0176676D01*
X0322901Y0176795D01*
X0323008Y0176912D01*
X0323118Y0177026D01*
X0323231Y0177137D01*
X0323346Y0177246D01*
X0323464Y0177351D01*
X0323585Y0177453D01*
X0323708Y0177553D01*
X0323834Y0177649D01*
X0323962Y0177742D01*
X0324092Y0177832D01*
X0324225Y0177918D01*
X0324360Y0178002D01*
X0324496Y0178081D01*
X0324635Y0178158D01*
X0324776Y0178230D01*
X0324918Y0178300D01*
X0325062Y0178365D01*
X0325208Y0178427D01*
X0325355Y0178485D01*
X0325504Y0178540D01*
X0325654Y0178591D01*
X0325805Y0178638D01*
X0325957Y0178681D01*
X0326110Y0178720D01*
X0326265Y0178756D01*
X0326420Y0178787D01*
X0326576Y0178815D01*
X0326732Y0178839D01*
X0326889Y0178859D01*
X0327047Y0178875D01*
X0327204Y0178887D01*
X0327363Y0178895D01*
X0327521Y0178899D01*
X0327679Y0178899D01*
X0327837Y0178895D01*
X0327996Y0178887D01*
X0328153Y0178875D01*
X0328311Y0178859D01*
X0328468Y0178839D01*
X0328624Y0178815D01*
X0328780Y0178787D01*
X0328935Y0178756D01*
X0329090Y0178720D01*
X0329243Y0178681D01*
X0329395Y0178638D01*
X0329546Y0178591D01*
X0329696Y0178540D01*
X0329845Y0178485D01*
X0329992Y0178427D01*
X0330138Y0178365D01*
X0330282Y0178300D01*
X0330424Y0178230D01*
X0330565Y0178158D01*
X0330704Y0178081D01*
X0330840Y0178002D01*
X0330975Y0177918D01*
X0331108Y0177832D01*
X0331238Y0177742D01*
X0331366Y0177649D01*
X0331492Y0177553D01*
X0331615Y0177453D01*
X0331736Y0177351D01*
X0331854Y0177246D01*
X0331969Y0177137D01*
X0332082Y0177026D01*
X0332192Y0176912D01*
X0332299Y0176795D01*
X0332403Y0176676D01*
X0332504Y0176554D01*
X0332601Y0176429D01*
X0332696Y0176302D01*
X0332787Y0176173D01*
X0332876Y0176042D01*
X0332960Y0175908D01*
X0333042Y0175772D01*
X0333120Y0175635D01*
X0333194Y0175495D01*
X0333265Y0175353D01*
X0333333Y0175210D01*
X0333397Y0175065D01*
X0333457Y0174919D01*
X0333513Y0174771D01*
X0333566Y0174622D01*
X0333615Y0174471D01*
X0333660Y0174319D01*
X0333701Y0174166D01*
X0333739Y0174013D01*
X0333772Y0173858D01*
X0333802Y0173702D01*
X0333828Y0173546D01*
X0333849Y0173389D01*
X0333867Y0173232D01*
X0333881Y0173074D01*
X0333891Y0172916D01*
X0333897Y0172758D01*
X0333899Y0172600D01*
X0333897Y0172442D01*
X0333891Y0172284D01*
X0333881Y0172126D01*
X0333867Y0171968D01*
X0333849Y0171811D01*
X0333828Y0171654D01*
X0333802Y0171498D01*
X0333772Y0171342D01*
X0333739Y0171187D01*
X0333701Y0171034D01*
X0333660Y0170881D01*
X0333615Y0170729D01*
X0333566Y0170578D01*
X0333513Y0170429D01*
X0333457Y0170281D01*
X0333397Y0170135D01*
X0333333Y0169990D01*
X0333265Y0169847D01*
X0333194Y0169705D01*
X0333120Y0169565D01*
X0333042Y0169428D01*
X0332960Y0169292D01*
X0332876Y0169158D01*
X0332787Y0169027D01*
X0332696Y0168898D01*
X0332601Y0168771D01*
X0332504Y0168646D01*
X0332403Y0168524D01*
X0332299Y0168405D01*
X0332192Y0168288D01*
X0332082Y0168174D01*
X0331969Y0168063D01*
X0331854Y0167954D01*
X0331736Y0167849D01*
X0331615Y0167747D01*
X0331492Y0167647D01*
X0331366Y0167551D01*
X0331238Y0167458D01*
X0331108Y0167368D01*
X0330975Y0167282D01*
X0330840Y0167198D01*
X0330704Y0167119D01*
X0330565Y0167042D01*
X0330424Y0166970D01*
X0330282Y0166900D01*
X0330138Y0166835D01*
X0329992Y0166773D01*
X0329845Y0166715D01*
X0329696Y0166660D01*
X0329546Y0166609D01*
X0329395Y0166562D01*
X0329243Y0166519D01*
X0329090Y0166480D01*
X0328935Y0166444D01*
X0328780Y0166413D01*
X0328624Y0166385D01*
X0328468Y0166361D01*
X0328311Y0166341D01*
X0328153Y0166325D01*
X0327996Y0166313D01*
X0327837Y0166305D01*
X0327679Y0166301D01*
X0327521Y0166301D01*
X0327363Y0166305D01*
X0327204Y0166313D01*
X0327047Y0166325D01*
X0326889Y0166341D01*
X0326732Y0166361D01*
X0326576Y0166385D01*
X0326420Y0166413D01*
X0326265Y0166444D01*
X0326110Y0166480D01*
X0325957Y0166519D01*
X0325805Y0166562D01*
X0325654Y0166609D01*
X0325504Y0166660D01*
X0325355Y0166715D01*
X0325208Y0166773D01*
X0325062Y0166835D01*
X0324918Y0166900D01*
X0324776Y0166970D01*
X0324635Y0167042D01*
X0324496Y0167119D01*
X0324360Y0167198D01*
X0324225Y0167282D01*
X0324092Y0167368D01*
X0323962Y0167458D01*
X0323834Y0167551D01*
X0323708Y0167647D01*
X0323585Y0167747D01*
X0323464Y0167849D01*
X0323346Y0167954D01*
X0323231Y0168063D01*
X0323118Y0168174D01*
X0323008Y0168288D01*
X0322901Y0168405D01*
X0322797Y0168524D01*
X0322696Y0168646D01*
X0322599Y0168771D01*
X0322504Y0168898D01*
X0322413Y0169027D01*
X0322324Y0169158D01*
X0322240Y0169292D01*
X0322158Y0169428D01*
X0322080Y0169565D01*
X0322006Y0169705D01*
X0321935Y0169847D01*
X0321867Y0169990D01*
X0321803Y0170135D01*
X0321743Y0170281D01*
X0321687Y0170429D01*
X0321634Y0170578D01*
X0321585Y0170729D01*
X0321540Y0170881D01*
X0321499Y0171034D01*
X0321461Y0171187D01*
X0321428Y0171342D01*
X0321398Y0171498D01*
X0321372Y0171654D01*
X0321351Y0171811D01*
X0321333Y0171968D01*
X0321319Y0172126D01*
X0321309Y0172284D01*
X0321303Y0172442D01*
X0321301Y0172600D01*
X0256301Y0257600D02*
X0256303Y0257758D01*
X0256309Y0257916D01*
X0256319Y0258074D01*
X0256333Y0258232D01*
X0256351Y0258389D01*
X0256372Y0258546D01*
X0256398Y0258702D01*
X0256428Y0258858D01*
X0256461Y0259013D01*
X0256499Y0259166D01*
X0256540Y0259319D01*
X0256585Y0259471D01*
X0256634Y0259622D01*
X0256687Y0259771D01*
X0256743Y0259919D01*
X0256803Y0260065D01*
X0256867Y0260210D01*
X0256935Y0260353D01*
X0257006Y0260495D01*
X0257080Y0260635D01*
X0257158Y0260772D01*
X0257240Y0260908D01*
X0257324Y0261042D01*
X0257413Y0261173D01*
X0257504Y0261302D01*
X0257599Y0261429D01*
X0257696Y0261554D01*
X0257797Y0261676D01*
X0257901Y0261795D01*
X0258008Y0261912D01*
X0258118Y0262026D01*
X0258231Y0262137D01*
X0258346Y0262246D01*
X0258464Y0262351D01*
X0258585Y0262453D01*
X0258708Y0262553D01*
X0258834Y0262649D01*
X0258962Y0262742D01*
X0259092Y0262832D01*
X0259225Y0262918D01*
X0259360Y0263002D01*
X0259496Y0263081D01*
X0259635Y0263158D01*
X0259776Y0263230D01*
X0259918Y0263300D01*
X0260062Y0263365D01*
X0260208Y0263427D01*
X0260355Y0263485D01*
X0260504Y0263540D01*
X0260654Y0263591D01*
X0260805Y0263638D01*
X0260957Y0263681D01*
X0261110Y0263720D01*
X0261265Y0263756D01*
X0261420Y0263787D01*
X0261576Y0263815D01*
X0261732Y0263839D01*
X0261889Y0263859D01*
X0262047Y0263875D01*
X0262204Y0263887D01*
X0262363Y0263895D01*
X0262521Y0263899D01*
X0262679Y0263899D01*
X0262837Y0263895D01*
X0262996Y0263887D01*
X0263153Y0263875D01*
X0263311Y0263859D01*
X0263468Y0263839D01*
X0263624Y0263815D01*
X0263780Y0263787D01*
X0263935Y0263756D01*
X0264090Y0263720D01*
X0264243Y0263681D01*
X0264395Y0263638D01*
X0264546Y0263591D01*
X0264696Y0263540D01*
X0264845Y0263485D01*
X0264992Y0263427D01*
X0265138Y0263365D01*
X0265282Y0263300D01*
X0265424Y0263230D01*
X0265565Y0263158D01*
X0265704Y0263081D01*
X0265840Y0263002D01*
X0265975Y0262918D01*
X0266108Y0262832D01*
X0266238Y0262742D01*
X0266366Y0262649D01*
X0266492Y0262553D01*
X0266615Y0262453D01*
X0266736Y0262351D01*
X0266854Y0262246D01*
X0266969Y0262137D01*
X0267082Y0262026D01*
X0267192Y0261912D01*
X0267299Y0261795D01*
X0267403Y0261676D01*
X0267504Y0261554D01*
X0267601Y0261429D01*
X0267696Y0261302D01*
X0267787Y0261173D01*
X0267876Y0261042D01*
X0267960Y0260908D01*
X0268042Y0260772D01*
X0268120Y0260635D01*
X0268194Y0260495D01*
X0268265Y0260353D01*
X0268333Y0260210D01*
X0268397Y0260065D01*
X0268457Y0259919D01*
X0268513Y0259771D01*
X0268566Y0259622D01*
X0268615Y0259471D01*
X0268660Y0259319D01*
X0268701Y0259166D01*
X0268739Y0259013D01*
X0268772Y0258858D01*
X0268802Y0258702D01*
X0268828Y0258546D01*
X0268849Y0258389D01*
X0268867Y0258232D01*
X0268881Y0258074D01*
X0268891Y0257916D01*
X0268897Y0257758D01*
X0268899Y0257600D01*
X0268897Y0257442D01*
X0268891Y0257284D01*
X0268881Y0257126D01*
X0268867Y0256968D01*
X0268849Y0256811D01*
X0268828Y0256654D01*
X0268802Y0256498D01*
X0268772Y0256342D01*
X0268739Y0256187D01*
X0268701Y0256034D01*
X0268660Y0255881D01*
X0268615Y0255729D01*
X0268566Y0255578D01*
X0268513Y0255429D01*
X0268457Y0255281D01*
X0268397Y0255135D01*
X0268333Y0254990D01*
X0268265Y0254847D01*
X0268194Y0254705D01*
X0268120Y0254565D01*
X0268042Y0254428D01*
X0267960Y0254292D01*
X0267876Y0254158D01*
X0267787Y0254027D01*
X0267696Y0253898D01*
X0267601Y0253771D01*
X0267504Y0253646D01*
X0267403Y0253524D01*
X0267299Y0253405D01*
X0267192Y0253288D01*
X0267082Y0253174D01*
X0266969Y0253063D01*
X0266854Y0252954D01*
X0266736Y0252849D01*
X0266615Y0252747D01*
X0266492Y0252647D01*
X0266366Y0252551D01*
X0266238Y0252458D01*
X0266108Y0252368D01*
X0265975Y0252282D01*
X0265840Y0252198D01*
X0265704Y0252119D01*
X0265565Y0252042D01*
X0265424Y0251970D01*
X0265282Y0251900D01*
X0265138Y0251835D01*
X0264992Y0251773D01*
X0264845Y0251715D01*
X0264696Y0251660D01*
X0264546Y0251609D01*
X0264395Y0251562D01*
X0264243Y0251519D01*
X0264090Y0251480D01*
X0263935Y0251444D01*
X0263780Y0251413D01*
X0263624Y0251385D01*
X0263468Y0251361D01*
X0263311Y0251341D01*
X0263153Y0251325D01*
X0262996Y0251313D01*
X0262837Y0251305D01*
X0262679Y0251301D01*
X0262521Y0251301D01*
X0262363Y0251305D01*
X0262204Y0251313D01*
X0262047Y0251325D01*
X0261889Y0251341D01*
X0261732Y0251361D01*
X0261576Y0251385D01*
X0261420Y0251413D01*
X0261265Y0251444D01*
X0261110Y0251480D01*
X0260957Y0251519D01*
X0260805Y0251562D01*
X0260654Y0251609D01*
X0260504Y0251660D01*
X0260355Y0251715D01*
X0260208Y0251773D01*
X0260062Y0251835D01*
X0259918Y0251900D01*
X0259776Y0251970D01*
X0259635Y0252042D01*
X0259496Y0252119D01*
X0259360Y0252198D01*
X0259225Y0252282D01*
X0259092Y0252368D01*
X0258962Y0252458D01*
X0258834Y0252551D01*
X0258708Y0252647D01*
X0258585Y0252747D01*
X0258464Y0252849D01*
X0258346Y0252954D01*
X0258231Y0253063D01*
X0258118Y0253174D01*
X0258008Y0253288D01*
X0257901Y0253405D01*
X0257797Y0253524D01*
X0257696Y0253646D01*
X0257599Y0253771D01*
X0257504Y0253898D01*
X0257413Y0254027D01*
X0257324Y0254158D01*
X0257240Y0254292D01*
X0257158Y0254428D01*
X0257080Y0254565D01*
X0257006Y0254705D01*
X0256935Y0254847D01*
X0256867Y0254990D01*
X0256803Y0255135D01*
X0256743Y0255281D01*
X0256687Y0255429D01*
X0256634Y0255578D01*
X0256585Y0255729D01*
X0256540Y0255881D01*
X0256499Y0256034D01*
X0256461Y0256187D01*
X0256428Y0256342D01*
X0256398Y0256498D01*
X0256372Y0256654D01*
X0256351Y0256811D01*
X0256333Y0256968D01*
X0256319Y0257126D01*
X0256309Y0257284D01*
X0256303Y0257442D01*
X0256301Y0257600D01*
X0366301Y0292600D02*
X0366303Y0292758D01*
X0366309Y0292916D01*
X0366319Y0293074D01*
X0366333Y0293232D01*
X0366351Y0293389D01*
X0366372Y0293546D01*
X0366398Y0293702D01*
X0366428Y0293858D01*
X0366461Y0294013D01*
X0366499Y0294166D01*
X0366540Y0294319D01*
X0366585Y0294471D01*
X0366634Y0294622D01*
X0366687Y0294771D01*
X0366743Y0294919D01*
X0366803Y0295065D01*
X0366867Y0295210D01*
X0366935Y0295353D01*
X0367006Y0295495D01*
X0367080Y0295635D01*
X0367158Y0295772D01*
X0367240Y0295908D01*
X0367324Y0296042D01*
X0367413Y0296173D01*
X0367504Y0296302D01*
X0367599Y0296429D01*
X0367696Y0296554D01*
X0367797Y0296676D01*
X0367901Y0296795D01*
X0368008Y0296912D01*
X0368118Y0297026D01*
X0368231Y0297137D01*
X0368346Y0297246D01*
X0368464Y0297351D01*
X0368585Y0297453D01*
X0368708Y0297553D01*
X0368834Y0297649D01*
X0368962Y0297742D01*
X0369092Y0297832D01*
X0369225Y0297918D01*
X0369360Y0298002D01*
X0369496Y0298081D01*
X0369635Y0298158D01*
X0369776Y0298230D01*
X0369918Y0298300D01*
X0370062Y0298365D01*
X0370208Y0298427D01*
X0370355Y0298485D01*
X0370504Y0298540D01*
X0370654Y0298591D01*
X0370805Y0298638D01*
X0370957Y0298681D01*
X0371110Y0298720D01*
X0371265Y0298756D01*
X0371420Y0298787D01*
X0371576Y0298815D01*
X0371732Y0298839D01*
X0371889Y0298859D01*
X0372047Y0298875D01*
X0372204Y0298887D01*
X0372363Y0298895D01*
X0372521Y0298899D01*
X0372679Y0298899D01*
X0372837Y0298895D01*
X0372996Y0298887D01*
X0373153Y0298875D01*
X0373311Y0298859D01*
X0373468Y0298839D01*
X0373624Y0298815D01*
X0373780Y0298787D01*
X0373935Y0298756D01*
X0374090Y0298720D01*
X0374243Y0298681D01*
X0374395Y0298638D01*
X0374546Y0298591D01*
X0374696Y0298540D01*
X0374845Y0298485D01*
X0374992Y0298427D01*
X0375138Y0298365D01*
X0375282Y0298300D01*
X0375424Y0298230D01*
X0375565Y0298158D01*
X0375704Y0298081D01*
X0375840Y0298002D01*
X0375975Y0297918D01*
X0376108Y0297832D01*
X0376238Y0297742D01*
X0376366Y0297649D01*
X0376492Y0297553D01*
X0376615Y0297453D01*
X0376736Y0297351D01*
X0376854Y0297246D01*
X0376969Y0297137D01*
X0377082Y0297026D01*
X0377192Y0296912D01*
X0377299Y0296795D01*
X0377403Y0296676D01*
X0377504Y0296554D01*
X0377601Y0296429D01*
X0377696Y0296302D01*
X0377787Y0296173D01*
X0377876Y0296042D01*
X0377960Y0295908D01*
X0378042Y0295772D01*
X0378120Y0295635D01*
X0378194Y0295495D01*
X0378265Y0295353D01*
X0378333Y0295210D01*
X0378397Y0295065D01*
X0378457Y0294919D01*
X0378513Y0294771D01*
X0378566Y0294622D01*
X0378615Y0294471D01*
X0378660Y0294319D01*
X0378701Y0294166D01*
X0378739Y0294013D01*
X0378772Y0293858D01*
X0378802Y0293702D01*
X0378828Y0293546D01*
X0378849Y0293389D01*
X0378867Y0293232D01*
X0378881Y0293074D01*
X0378891Y0292916D01*
X0378897Y0292758D01*
X0378899Y0292600D01*
X0378897Y0292442D01*
X0378891Y0292284D01*
X0378881Y0292126D01*
X0378867Y0291968D01*
X0378849Y0291811D01*
X0378828Y0291654D01*
X0378802Y0291498D01*
X0378772Y0291342D01*
X0378739Y0291187D01*
X0378701Y0291034D01*
X0378660Y0290881D01*
X0378615Y0290729D01*
X0378566Y0290578D01*
X0378513Y0290429D01*
X0378457Y0290281D01*
X0378397Y0290135D01*
X0378333Y0289990D01*
X0378265Y0289847D01*
X0378194Y0289705D01*
X0378120Y0289565D01*
X0378042Y0289428D01*
X0377960Y0289292D01*
X0377876Y0289158D01*
X0377787Y0289027D01*
X0377696Y0288898D01*
X0377601Y0288771D01*
X0377504Y0288646D01*
X0377403Y0288524D01*
X0377299Y0288405D01*
X0377192Y0288288D01*
X0377082Y0288174D01*
X0376969Y0288063D01*
X0376854Y0287954D01*
X0376736Y0287849D01*
X0376615Y0287747D01*
X0376492Y0287647D01*
X0376366Y0287551D01*
X0376238Y0287458D01*
X0376108Y0287368D01*
X0375975Y0287282D01*
X0375840Y0287198D01*
X0375704Y0287119D01*
X0375565Y0287042D01*
X0375424Y0286970D01*
X0375282Y0286900D01*
X0375138Y0286835D01*
X0374992Y0286773D01*
X0374845Y0286715D01*
X0374696Y0286660D01*
X0374546Y0286609D01*
X0374395Y0286562D01*
X0374243Y0286519D01*
X0374090Y0286480D01*
X0373935Y0286444D01*
X0373780Y0286413D01*
X0373624Y0286385D01*
X0373468Y0286361D01*
X0373311Y0286341D01*
X0373153Y0286325D01*
X0372996Y0286313D01*
X0372837Y0286305D01*
X0372679Y0286301D01*
X0372521Y0286301D01*
X0372363Y0286305D01*
X0372204Y0286313D01*
X0372047Y0286325D01*
X0371889Y0286341D01*
X0371732Y0286361D01*
X0371576Y0286385D01*
X0371420Y0286413D01*
X0371265Y0286444D01*
X0371110Y0286480D01*
X0370957Y0286519D01*
X0370805Y0286562D01*
X0370654Y0286609D01*
X0370504Y0286660D01*
X0370355Y0286715D01*
X0370208Y0286773D01*
X0370062Y0286835D01*
X0369918Y0286900D01*
X0369776Y0286970D01*
X0369635Y0287042D01*
X0369496Y0287119D01*
X0369360Y0287198D01*
X0369225Y0287282D01*
X0369092Y0287368D01*
X0368962Y0287458D01*
X0368834Y0287551D01*
X0368708Y0287647D01*
X0368585Y0287747D01*
X0368464Y0287849D01*
X0368346Y0287954D01*
X0368231Y0288063D01*
X0368118Y0288174D01*
X0368008Y0288288D01*
X0367901Y0288405D01*
X0367797Y0288524D01*
X0367696Y0288646D01*
X0367599Y0288771D01*
X0367504Y0288898D01*
X0367413Y0289027D01*
X0367324Y0289158D01*
X0367240Y0289292D01*
X0367158Y0289428D01*
X0367080Y0289565D01*
X0367006Y0289705D01*
X0366935Y0289847D01*
X0366867Y0289990D01*
X0366803Y0290135D01*
X0366743Y0290281D01*
X0366687Y0290429D01*
X0366634Y0290578D01*
X0366585Y0290729D01*
X0366540Y0290881D01*
X0366499Y0291034D01*
X0366461Y0291187D01*
X0366428Y0291342D01*
X0366398Y0291498D01*
X0366372Y0291654D01*
X0366351Y0291811D01*
X0366333Y0291968D01*
X0366319Y0292126D01*
X0366309Y0292284D01*
X0366303Y0292442D01*
X0366301Y0292600D01*
X0311301Y0037600D02*
X0311303Y0037758D01*
X0311309Y0037916D01*
X0311319Y0038074D01*
X0311333Y0038232D01*
X0311351Y0038389D01*
X0311372Y0038546D01*
X0311398Y0038702D01*
X0311428Y0038858D01*
X0311461Y0039013D01*
X0311499Y0039166D01*
X0311540Y0039319D01*
X0311585Y0039471D01*
X0311634Y0039622D01*
X0311687Y0039771D01*
X0311743Y0039919D01*
X0311803Y0040065D01*
X0311867Y0040210D01*
X0311935Y0040353D01*
X0312006Y0040495D01*
X0312080Y0040635D01*
X0312158Y0040772D01*
X0312240Y0040908D01*
X0312324Y0041042D01*
X0312413Y0041173D01*
X0312504Y0041302D01*
X0312599Y0041429D01*
X0312696Y0041554D01*
X0312797Y0041676D01*
X0312901Y0041795D01*
X0313008Y0041912D01*
X0313118Y0042026D01*
X0313231Y0042137D01*
X0313346Y0042246D01*
X0313464Y0042351D01*
X0313585Y0042453D01*
X0313708Y0042553D01*
X0313834Y0042649D01*
X0313962Y0042742D01*
X0314092Y0042832D01*
X0314225Y0042918D01*
X0314360Y0043002D01*
X0314496Y0043081D01*
X0314635Y0043158D01*
X0314776Y0043230D01*
X0314918Y0043300D01*
X0315062Y0043365D01*
X0315208Y0043427D01*
X0315355Y0043485D01*
X0315504Y0043540D01*
X0315654Y0043591D01*
X0315805Y0043638D01*
X0315957Y0043681D01*
X0316110Y0043720D01*
X0316265Y0043756D01*
X0316420Y0043787D01*
X0316576Y0043815D01*
X0316732Y0043839D01*
X0316889Y0043859D01*
X0317047Y0043875D01*
X0317204Y0043887D01*
X0317363Y0043895D01*
X0317521Y0043899D01*
X0317679Y0043899D01*
X0317837Y0043895D01*
X0317996Y0043887D01*
X0318153Y0043875D01*
X0318311Y0043859D01*
X0318468Y0043839D01*
X0318624Y0043815D01*
X0318780Y0043787D01*
X0318935Y0043756D01*
X0319090Y0043720D01*
X0319243Y0043681D01*
X0319395Y0043638D01*
X0319546Y0043591D01*
X0319696Y0043540D01*
X0319845Y0043485D01*
X0319992Y0043427D01*
X0320138Y0043365D01*
X0320282Y0043300D01*
X0320424Y0043230D01*
X0320565Y0043158D01*
X0320704Y0043081D01*
X0320840Y0043002D01*
X0320975Y0042918D01*
X0321108Y0042832D01*
X0321238Y0042742D01*
X0321366Y0042649D01*
X0321492Y0042553D01*
X0321615Y0042453D01*
X0321736Y0042351D01*
X0321854Y0042246D01*
X0321969Y0042137D01*
X0322082Y0042026D01*
X0322192Y0041912D01*
X0322299Y0041795D01*
X0322403Y0041676D01*
X0322504Y0041554D01*
X0322601Y0041429D01*
X0322696Y0041302D01*
X0322787Y0041173D01*
X0322876Y0041042D01*
X0322960Y0040908D01*
X0323042Y0040772D01*
X0323120Y0040635D01*
X0323194Y0040495D01*
X0323265Y0040353D01*
X0323333Y0040210D01*
X0323397Y0040065D01*
X0323457Y0039919D01*
X0323513Y0039771D01*
X0323566Y0039622D01*
X0323615Y0039471D01*
X0323660Y0039319D01*
X0323701Y0039166D01*
X0323739Y0039013D01*
X0323772Y0038858D01*
X0323802Y0038702D01*
X0323828Y0038546D01*
X0323849Y0038389D01*
X0323867Y0038232D01*
X0323881Y0038074D01*
X0323891Y0037916D01*
X0323897Y0037758D01*
X0323899Y0037600D01*
X0323897Y0037442D01*
X0323891Y0037284D01*
X0323881Y0037126D01*
X0323867Y0036968D01*
X0323849Y0036811D01*
X0323828Y0036654D01*
X0323802Y0036498D01*
X0323772Y0036342D01*
X0323739Y0036187D01*
X0323701Y0036034D01*
X0323660Y0035881D01*
X0323615Y0035729D01*
X0323566Y0035578D01*
X0323513Y0035429D01*
X0323457Y0035281D01*
X0323397Y0035135D01*
X0323333Y0034990D01*
X0323265Y0034847D01*
X0323194Y0034705D01*
X0323120Y0034565D01*
X0323042Y0034428D01*
X0322960Y0034292D01*
X0322876Y0034158D01*
X0322787Y0034027D01*
X0322696Y0033898D01*
X0322601Y0033771D01*
X0322504Y0033646D01*
X0322403Y0033524D01*
X0322299Y0033405D01*
X0322192Y0033288D01*
X0322082Y0033174D01*
X0321969Y0033063D01*
X0321854Y0032954D01*
X0321736Y0032849D01*
X0321615Y0032747D01*
X0321492Y0032647D01*
X0321366Y0032551D01*
X0321238Y0032458D01*
X0321108Y0032368D01*
X0320975Y0032282D01*
X0320840Y0032198D01*
X0320704Y0032119D01*
X0320565Y0032042D01*
X0320424Y0031970D01*
X0320282Y0031900D01*
X0320138Y0031835D01*
X0319992Y0031773D01*
X0319845Y0031715D01*
X0319696Y0031660D01*
X0319546Y0031609D01*
X0319395Y0031562D01*
X0319243Y0031519D01*
X0319090Y0031480D01*
X0318935Y0031444D01*
X0318780Y0031413D01*
X0318624Y0031385D01*
X0318468Y0031361D01*
X0318311Y0031341D01*
X0318153Y0031325D01*
X0317996Y0031313D01*
X0317837Y0031305D01*
X0317679Y0031301D01*
X0317521Y0031301D01*
X0317363Y0031305D01*
X0317204Y0031313D01*
X0317047Y0031325D01*
X0316889Y0031341D01*
X0316732Y0031361D01*
X0316576Y0031385D01*
X0316420Y0031413D01*
X0316265Y0031444D01*
X0316110Y0031480D01*
X0315957Y0031519D01*
X0315805Y0031562D01*
X0315654Y0031609D01*
X0315504Y0031660D01*
X0315355Y0031715D01*
X0315208Y0031773D01*
X0315062Y0031835D01*
X0314918Y0031900D01*
X0314776Y0031970D01*
X0314635Y0032042D01*
X0314496Y0032119D01*
X0314360Y0032198D01*
X0314225Y0032282D01*
X0314092Y0032368D01*
X0313962Y0032458D01*
X0313834Y0032551D01*
X0313708Y0032647D01*
X0313585Y0032747D01*
X0313464Y0032849D01*
X0313346Y0032954D01*
X0313231Y0033063D01*
X0313118Y0033174D01*
X0313008Y0033288D01*
X0312901Y0033405D01*
X0312797Y0033524D01*
X0312696Y0033646D01*
X0312599Y0033771D01*
X0312504Y0033898D01*
X0312413Y0034027D01*
X0312324Y0034158D01*
X0312240Y0034292D01*
X0312158Y0034428D01*
X0312080Y0034565D01*
X0312006Y0034705D01*
X0311935Y0034847D01*
X0311867Y0034990D01*
X0311803Y0035135D01*
X0311743Y0035281D01*
X0311687Y0035429D01*
X0311634Y0035578D01*
X0311585Y0035729D01*
X0311540Y0035881D01*
X0311499Y0036034D01*
X0311461Y0036187D01*
X0311428Y0036342D01*
X0311398Y0036498D01*
X0311372Y0036654D01*
X0311351Y0036811D01*
X0311333Y0036968D01*
X0311319Y0037126D01*
X0311309Y0037284D01*
X0311303Y0037442D01*
X0311301Y0037600D01*
X0021301Y0292600D02*
X0021303Y0292758D01*
X0021309Y0292916D01*
X0021319Y0293074D01*
X0021333Y0293232D01*
X0021351Y0293389D01*
X0021372Y0293546D01*
X0021398Y0293702D01*
X0021428Y0293858D01*
X0021461Y0294013D01*
X0021499Y0294166D01*
X0021540Y0294319D01*
X0021585Y0294471D01*
X0021634Y0294622D01*
X0021687Y0294771D01*
X0021743Y0294919D01*
X0021803Y0295065D01*
X0021867Y0295210D01*
X0021935Y0295353D01*
X0022006Y0295495D01*
X0022080Y0295635D01*
X0022158Y0295772D01*
X0022240Y0295908D01*
X0022324Y0296042D01*
X0022413Y0296173D01*
X0022504Y0296302D01*
X0022599Y0296429D01*
X0022696Y0296554D01*
X0022797Y0296676D01*
X0022901Y0296795D01*
X0023008Y0296912D01*
X0023118Y0297026D01*
X0023231Y0297137D01*
X0023346Y0297246D01*
X0023464Y0297351D01*
X0023585Y0297453D01*
X0023708Y0297553D01*
X0023834Y0297649D01*
X0023962Y0297742D01*
X0024092Y0297832D01*
X0024225Y0297918D01*
X0024360Y0298002D01*
X0024496Y0298081D01*
X0024635Y0298158D01*
X0024776Y0298230D01*
X0024918Y0298300D01*
X0025062Y0298365D01*
X0025208Y0298427D01*
X0025355Y0298485D01*
X0025504Y0298540D01*
X0025654Y0298591D01*
X0025805Y0298638D01*
X0025957Y0298681D01*
X0026110Y0298720D01*
X0026265Y0298756D01*
X0026420Y0298787D01*
X0026576Y0298815D01*
X0026732Y0298839D01*
X0026889Y0298859D01*
X0027047Y0298875D01*
X0027204Y0298887D01*
X0027363Y0298895D01*
X0027521Y0298899D01*
X0027679Y0298899D01*
X0027837Y0298895D01*
X0027996Y0298887D01*
X0028153Y0298875D01*
X0028311Y0298859D01*
X0028468Y0298839D01*
X0028624Y0298815D01*
X0028780Y0298787D01*
X0028935Y0298756D01*
X0029090Y0298720D01*
X0029243Y0298681D01*
X0029395Y0298638D01*
X0029546Y0298591D01*
X0029696Y0298540D01*
X0029845Y0298485D01*
X0029992Y0298427D01*
X0030138Y0298365D01*
X0030282Y0298300D01*
X0030424Y0298230D01*
X0030565Y0298158D01*
X0030704Y0298081D01*
X0030840Y0298002D01*
X0030975Y0297918D01*
X0031108Y0297832D01*
X0031238Y0297742D01*
X0031366Y0297649D01*
X0031492Y0297553D01*
X0031615Y0297453D01*
X0031736Y0297351D01*
X0031854Y0297246D01*
X0031969Y0297137D01*
X0032082Y0297026D01*
X0032192Y0296912D01*
X0032299Y0296795D01*
X0032403Y0296676D01*
X0032504Y0296554D01*
X0032601Y0296429D01*
X0032696Y0296302D01*
X0032787Y0296173D01*
X0032876Y0296042D01*
X0032960Y0295908D01*
X0033042Y0295772D01*
X0033120Y0295635D01*
X0033194Y0295495D01*
X0033265Y0295353D01*
X0033333Y0295210D01*
X0033397Y0295065D01*
X0033457Y0294919D01*
X0033513Y0294771D01*
X0033566Y0294622D01*
X0033615Y0294471D01*
X0033660Y0294319D01*
X0033701Y0294166D01*
X0033739Y0294013D01*
X0033772Y0293858D01*
X0033802Y0293702D01*
X0033828Y0293546D01*
X0033849Y0293389D01*
X0033867Y0293232D01*
X0033881Y0293074D01*
X0033891Y0292916D01*
X0033897Y0292758D01*
X0033899Y0292600D01*
X0033897Y0292442D01*
X0033891Y0292284D01*
X0033881Y0292126D01*
X0033867Y0291968D01*
X0033849Y0291811D01*
X0033828Y0291654D01*
X0033802Y0291498D01*
X0033772Y0291342D01*
X0033739Y0291187D01*
X0033701Y0291034D01*
X0033660Y0290881D01*
X0033615Y0290729D01*
X0033566Y0290578D01*
X0033513Y0290429D01*
X0033457Y0290281D01*
X0033397Y0290135D01*
X0033333Y0289990D01*
X0033265Y0289847D01*
X0033194Y0289705D01*
X0033120Y0289565D01*
X0033042Y0289428D01*
X0032960Y0289292D01*
X0032876Y0289158D01*
X0032787Y0289027D01*
X0032696Y0288898D01*
X0032601Y0288771D01*
X0032504Y0288646D01*
X0032403Y0288524D01*
X0032299Y0288405D01*
X0032192Y0288288D01*
X0032082Y0288174D01*
X0031969Y0288063D01*
X0031854Y0287954D01*
X0031736Y0287849D01*
X0031615Y0287747D01*
X0031492Y0287647D01*
X0031366Y0287551D01*
X0031238Y0287458D01*
X0031108Y0287368D01*
X0030975Y0287282D01*
X0030840Y0287198D01*
X0030704Y0287119D01*
X0030565Y0287042D01*
X0030424Y0286970D01*
X0030282Y0286900D01*
X0030138Y0286835D01*
X0029992Y0286773D01*
X0029845Y0286715D01*
X0029696Y0286660D01*
X0029546Y0286609D01*
X0029395Y0286562D01*
X0029243Y0286519D01*
X0029090Y0286480D01*
X0028935Y0286444D01*
X0028780Y0286413D01*
X0028624Y0286385D01*
X0028468Y0286361D01*
X0028311Y0286341D01*
X0028153Y0286325D01*
X0027996Y0286313D01*
X0027837Y0286305D01*
X0027679Y0286301D01*
X0027521Y0286301D01*
X0027363Y0286305D01*
X0027204Y0286313D01*
X0027047Y0286325D01*
X0026889Y0286341D01*
X0026732Y0286361D01*
X0026576Y0286385D01*
X0026420Y0286413D01*
X0026265Y0286444D01*
X0026110Y0286480D01*
X0025957Y0286519D01*
X0025805Y0286562D01*
X0025654Y0286609D01*
X0025504Y0286660D01*
X0025355Y0286715D01*
X0025208Y0286773D01*
X0025062Y0286835D01*
X0024918Y0286900D01*
X0024776Y0286970D01*
X0024635Y0287042D01*
X0024496Y0287119D01*
X0024360Y0287198D01*
X0024225Y0287282D01*
X0024092Y0287368D01*
X0023962Y0287458D01*
X0023834Y0287551D01*
X0023708Y0287647D01*
X0023585Y0287747D01*
X0023464Y0287849D01*
X0023346Y0287954D01*
X0023231Y0288063D01*
X0023118Y0288174D01*
X0023008Y0288288D01*
X0022901Y0288405D01*
X0022797Y0288524D01*
X0022696Y0288646D01*
X0022599Y0288771D01*
X0022504Y0288898D01*
X0022413Y0289027D01*
X0022324Y0289158D01*
X0022240Y0289292D01*
X0022158Y0289428D01*
X0022080Y0289565D01*
X0022006Y0289705D01*
X0021935Y0289847D01*
X0021867Y0289990D01*
X0021803Y0290135D01*
X0021743Y0290281D01*
X0021687Y0290429D01*
X0021634Y0290578D01*
X0021585Y0290729D01*
X0021540Y0290881D01*
X0021499Y0291034D01*
X0021461Y0291187D01*
X0021428Y0291342D01*
X0021398Y0291498D01*
X0021372Y0291654D01*
X0021351Y0291811D01*
X0021333Y0291968D01*
X0021319Y0292126D01*
X0021309Y0292284D01*
X0021303Y0292442D01*
X0021301Y0292600D01*
M02*
