%
M48
M72
T01C0.01181
T02C0.03150
T03C0.03200
T04C0.04000
T05C0.04400
T06C0.12598
%
T01
X97850Y172100
T02
X132600Y222600
X152600Y222600
X172600Y222600
X192600Y222600
X192600Y242600
X192600Y252600
X192600Y262600
X172600Y262600
X172600Y252600
X172600Y242600
X152600Y242600
X152600Y252600
X152600Y262600
X132600Y262600
X132600Y252600
X132600Y242600
T03
X122600Y237600
X122600Y227600
X102600Y247600
X102600Y257600
X92600Y272600
X72600Y257600
X72600Y247600
X82600Y237600
X82600Y227600
X92600Y227600
X92600Y237600
X52600Y237600
X52600Y227600
X37600Y232600
X27600Y232600
X52600Y252600
X52600Y262600
X62600Y272600
X52600Y277600
X52600Y307600
X102600Y202600
X107600Y195100
X112600Y202600
X127600Y197600
X127600Y182600
X117600Y182600
X122600Y175100
X112600Y162600
X107600Y155100
X102600Y162600
X137600Y162600
X147600Y162600
X142600Y170100
X157600Y182600
X167600Y182600
X157600Y197600
X177600Y197600
X207600Y197600
X207600Y182600
X217600Y182600
X192600Y167600
X202600Y162600
X192600Y157600
X162600Y157600
X162600Y167600
X232600Y162600
X247600Y162600
X257600Y162600
X267600Y157600
X267600Y187600
X302600Y187600
X302600Y157600
X337600Y197600
X347600Y197600
X362600Y207600
X367600Y200100
X372600Y207600
X362600Y222600
X372600Y227600
X382600Y222600
X382600Y252600
X372600Y257600
X362600Y252600
X357600Y262600
X357600Y272600
X347600Y252600
X347600Y242600
X347600Y227600
X337600Y227600
X317600Y242600
X317600Y252600
X237600Y237600
X222600Y237600
X212600Y237600
X212600Y267600
X222600Y267600
X237600Y267600
X62600Y177600
X62600Y167600
X62600Y157600
X62600Y147600
X32600Y147600
X32600Y157600
X32600Y167600
X32600Y177600
X67600Y92600
X62600Y82600
X67600Y72600
X57600Y67600
X47600Y67600
X67600Y57600
X77600Y57600
X92600Y57600
X92600Y47600
X77600Y27600
X67600Y27600
X97600Y72600
X92600Y82600
X97600Y92600
X112600Y82600
X120100Y77600
X112600Y72600
X122600Y57600
X122600Y47600
X132600Y12600
X162600Y12600
X217600Y67600
X227600Y67600
X237600Y72600
X232600Y82600
X237600Y92600
X262600Y82600
X267600Y72600
X282600Y72600
X290100Y77600
X282600Y82600
X267600Y92600
X262600Y57600
X262600Y47600
X247600Y57600
X237600Y57600
X237600Y27600
X247600Y27600
X292600Y47600
X292600Y57600
X302600Y12600
X332600Y12600
T04
X22600Y12600
X22600Y22600
X22600Y32600
X22600Y42600
X22600Y52600
X57600Y12600
X77600Y12600
X97600Y17600
X107600Y17600
X117600Y17600
X132600Y67600
X152600Y67600
X152600Y87600
X132600Y87600
X87600Y122600
X77600Y122600
X67600Y122600
X57600Y122600
X47600Y122600
X37600Y122600
X27600Y122600
X17600Y122600
X17600Y142600
X17600Y152600
X17600Y162600
X17600Y172600
X17600Y212600
X27600Y212600
X37600Y212600
X47600Y212600
X57600Y212600
X67600Y212600
X77600Y212600
X87600Y212600
X17600Y252600
X17600Y262600
X67600Y287600
X87600Y287600
X107600Y287600
X107600Y307600
X87600Y307600
X67600Y307600
X127600Y307600
X137600Y307600
X162600Y307600
X162600Y297600
X162600Y287600
X197600Y287600
X197600Y297600
X197600Y307600
X232600Y307600
X232600Y297600
X232600Y287600
X267600Y287600
X267600Y297600
X267600Y307600
X302600Y297600
X312600Y297600
X322600Y297600
X332600Y297600
X342600Y297600
X302600Y262600
X302600Y242600
X307600Y222600
X307600Y212600
X307600Y202600
X267600Y202600
X247600Y202600
X247600Y222600
X267600Y222600
X252600Y182600
X232600Y182600
X217600Y142600
X217600Y132600
X217600Y122600
X182600Y122600
X182600Y132600
X182600Y142600
X192600Y52600
X192600Y42600
X192600Y32600
X192600Y22600
X192600Y12600
X227600Y12600
X247600Y12600
X267600Y17600
X277600Y17600
X287600Y17600
X302600Y67600
X322600Y67600
X322600Y87600
X302600Y87600
X357600Y167600
X377600Y167600
X377600Y187600
X357600Y187600
T05
X217600Y207600
X177600Y207600
X167600Y207600
X127600Y207600
X57600Y192600
X17600Y192600
T06
X122600Y132600
X197600Y82600
X147600Y37600
X27600Y82600
X262600Y132600
X327600Y172600
X262600Y257600
X372600Y292600
X317600Y37600
X27600Y292600
M30
