%
M48
M72
T01C0.01181
T02C0.03200
T03C0.04000
T04C0.04400
T05C0.12598
%
T01
X61100Y62600
X40850Y139850
T02
X42600Y102600
X42600Y87600
X42600Y72600
X72600Y42600
X82600Y42600
X77600Y35100
X82600Y72600
X82600Y87600
X82600Y102600
X87600Y237600
X87600Y247600
X87600Y257600
X87600Y267600
X87600Y277600
X87600Y287600
X87600Y297600
X87600Y307600
X57600Y307600
X57600Y297600
X57600Y287600
X57600Y277600
X57600Y267600
X57600Y257600
X57600Y247600
X57600Y237600
X42600Y237600
X42600Y247600
X42600Y257600
X42600Y267600
X42600Y277600
X42600Y287600
X42600Y297600
X42600Y307600
X12600Y307600
X12600Y297600
X12600Y287600
X12600Y277600
X12600Y267600
X12600Y257600
X12600Y247600
X12600Y237600
X257600Y252600
X262600Y237600
X277600Y252600
X287600Y252600
X302600Y237600
X307600Y252600
X302600Y287600
X307600Y302600
X287600Y302600
X277600Y302600
X257600Y302600
X262600Y287600
X287600Y137600
X272600Y132600
X287600Y117600
X287600Y107600
X272600Y92600
X287600Y87600
X317600Y92600
X332600Y87600
X332600Y107600
X332600Y117600
X317600Y132600
X332600Y137600
X362600Y132600
X377600Y137600
X377600Y117600
X377600Y107600
X362600Y92600
X377600Y87600
T03
X12600Y37600
X12600Y47600
X12600Y57600
X12600Y67600
X12600Y77600
X12600Y87600
X12600Y97600
X12600Y107600
X22600Y122600
X22600Y132600
X22600Y142600
X22600Y152600
X22600Y162600
X22600Y172600
X22600Y182600
X22600Y192600
X102600Y272600
X102600Y282600
X102600Y292600
X102600Y302600
X222600Y292600
X232600Y292600
X242600Y292600
X242600Y242600
X232600Y242600
X222600Y242600
X277600Y167600
X277600Y157600
X277600Y147600
X327600Y147600
X327600Y157600
X327600Y167600
X372600Y167600
X372600Y157600
X372600Y147600
X337600Y232600
X337600Y242600
X337600Y252600
X337600Y282600
X337600Y292600
X337600Y302600
X102600Y107600
X102600Y97600
X102600Y87600
X102600Y77600
X102600Y67600
X102600Y57600
X102600Y47600
X102600Y37600
X117600Y32600
X117600Y22600
X117600Y12600
X87600Y12600
X87600Y22600
X57600Y37600
X47600Y37600
X37600Y37600
X27600Y37600
X117600Y42600
X117600Y57600
X117600Y67600
X117600Y77600
X267600Y57600
X277600Y57600
X287600Y57600
X317600Y57600
X327600Y57600
X337600Y57600
X362600Y57600
X372600Y57600
X382600Y57600
T04
X27600Y57600
X27600Y97600
T05
X192600Y242600
X192600Y292600
X277600Y197600
X327600Y197600
X372600Y197600
X372600Y242600
X372600Y292600
X372600Y22600
X327600Y22600
X277600Y22600
M30
