G75*
%MOIN*%
%OFA0B0*%
%FSLAX25Y25*%
%IPPOS*%
%LPD*%
%AMOC8*
5,1,8,0,0,1.08239X$1,22.5*
%
%ADD10C,0.00600*%
D10*
X0050895Y0028968D02*
X0051962Y0027900D01*
X0053030Y0027900D01*
X0054097Y0028968D01*
X0054097Y0031103D01*
X0055165Y0032170D01*
X0056232Y0032170D01*
X0057300Y0031103D01*
X0057300Y0028968D01*
X0056232Y0027900D01*
X0050895Y0028968D02*
X0050895Y0031103D01*
X0051962Y0032170D01*
X0051962Y0082900D02*
X0053030Y0082900D01*
X0054097Y0083968D01*
X0054097Y0086103D01*
X0055165Y0087170D01*
X0056232Y0087170D01*
X0057300Y0086103D01*
X0057300Y0083968D01*
X0056232Y0082900D01*
X0051962Y0082900D02*
X0050895Y0083968D01*
X0050895Y0086103D01*
X0051962Y0087170D01*
X0185895Y0086103D02*
X0185895Y0083968D01*
X0186962Y0082900D01*
X0188030Y0082900D01*
X0189097Y0083968D01*
X0189097Y0086103D01*
X0190165Y0087170D01*
X0191232Y0087170D01*
X0192300Y0086103D01*
X0192300Y0083968D01*
X0191232Y0082900D01*
X0186962Y0087170D02*
X0185895Y0086103D01*
X0186962Y0032170D02*
X0185895Y0031103D01*
X0185895Y0028968D01*
X0186962Y0027900D01*
X0188030Y0027900D01*
X0189097Y0028968D01*
X0189097Y0031103D01*
X0190165Y0032170D01*
X0191232Y0032170D01*
X0192300Y0031103D01*
X0192300Y0028968D01*
X0191232Y0027900D01*
X0315895Y0028968D02*
X0316962Y0027900D01*
X0318030Y0027900D01*
X0319097Y0028968D01*
X0319097Y0031103D01*
X0320165Y0032170D01*
X0321232Y0032170D01*
X0322300Y0031103D01*
X0322300Y0028968D01*
X0321232Y0027900D01*
X0315895Y0028968D02*
X0315895Y0031103D01*
X0316962Y0032170D01*
X0316962Y0082900D02*
X0318030Y0082900D01*
X0319097Y0083968D01*
X0319097Y0086103D01*
X0320165Y0087170D01*
X0321232Y0087170D01*
X0322300Y0086103D01*
X0322300Y0083968D01*
X0321232Y0082900D01*
X0316962Y0082900D02*
X0315895Y0083968D01*
X0315895Y0086103D01*
X0316962Y0087170D01*
X0316103Y0262900D02*
X0313968Y0262900D01*
X0312900Y0263968D01*
X0313968Y0266103D02*
X0316103Y0266103D01*
X0317170Y0265035D01*
X0317170Y0263968D01*
X0316103Y0262900D01*
X0313968Y0266103D02*
X0312900Y0267170D01*
X0312900Y0268238D01*
X0313968Y0269305D01*
X0316103Y0269305D01*
X0317170Y0268238D01*
X0367900Y0268238D02*
X0367900Y0267170D01*
X0368968Y0266103D01*
X0371103Y0266103D01*
X0372170Y0265035D01*
X0372170Y0263968D01*
X0371103Y0262900D01*
X0368968Y0262900D01*
X0367900Y0263968D01*
X0367900Y0268238D02*
X0368968Y0269305D01*
X0371103Y0269305D01*
X0372170Y0268238D01*
M02*
