%
M48
M72
T01C0.01181
T02C0.03150
T03C0.03200
T04C0.04000
T05C0.04400
T06C0.12598
%
T01
X97850Y172100
T02
X132600Y222600
X152600Y222600
X172600Y222600
X192600Y222600
X192600Y242600
X192600Y252600
X192600Y262600
X172600Y262600
X172600Y252600
X172600Y242600
X152600Y242600
X152600Y252600
X152600Y262600
X132600Y262600
X132600Y252600
X132600Y242600
T03
X122600Y237600
X122600Y227600
X102600Y247600
X102600Y257600
X92600Y272600
X72600Y257600
X72600Y247600
X82600Y237600
X82600Y227600
X92600Y227600
X92600Y237600
X52600Y237600
X52600Y227600
X37600Y232600
X27600Y232600
X52600Y252600
X52600Y262600
X62600Y272600
X52600Y277600
X52600Y307600
X102600Y202600
X107600Y195100
X112600Y202600
X127600Y197600
X127600Y182600
X117600Y182600
X122600Y175100
X112600Y162600
X107600Y155100
X102600Y162600
X137600Y162600
X147600Y162600
X142600Y170100
X157600Y182600
X167600Y182600
X157600Y197600
X177600Y197600
X207600Y197600
X207600Y182600
X217600Y182600
X192600Y167600
X202600Y162600
X192600Y157600
X162600Y157600
X162600Y167600
X232600Y162600
X247600Y162600
X257600Y162600
X267600Y157600
X267600Y187600
X307600Y187600
X322600Y187600
X307600Y207600
X307600Y212600
X322600Y227600
X307600Y232600
X362600Y232600
X377600Y227600
X362600Y212600
X362600Y207600
X362600Y187600
X377600Y187600
X237600Y237600
X222600Y237600
X212600Y237600
X212600Y267600
X222600Y267600
X237600Y267600
X62600Y177600
X62600Y167600
X62600Y157600
X62600Y147600
X32600Y147600
X32600Y157600
X32600Y167600
X32600Y177600
X97600Y82600
X92600Y67600
X112600Y67600
X117600Y67600
X137600Y67600
X137600Y82600
X137600Y32600
X137600Y17600
X117600Y17600
X112600Y17600
X92600Y17600
X97600Y32600
T04
X82600Y27600
X72600Y27600
X62600Y27600
X62600Y77600
X72600Y77600
X82600Y77600
X77600Y122600
X87600Y122600
X67600Y122600
X57600Y122600
X47600Y122600
X37600Y122600
X27600Y122600
X17600Y122600
X17600Y142600
X17600Y152600
X17600Y162600
X17600Y172600
X17600Y212600
X27600Y212600
X37600Y212600
X47600Y212600
X57600Y212600
X67600Y212600
X77600Y212600
X87600Y212600
X17600Y252600
X17600Y262600
X67600Y287600
X87600Y287600
X107600Y287600
X107600Y307600
X87600Y307600
X67600Y307600
X127600Y307600
X137600Y307600
X162600Y307600
X162600Y297600
X162600Y287600
X197600Y287600
X197600Y297600
X197600Y307600
X232600Y307600
X232600Y297600
X232600Y287600
X267600Y287600
X267600Y297600
X267600Y307600
X317600Y262600
X317600Y252600
X317600Y242600
X267600Y222600
X247600Y222600
X247600Y202600
X267600Y202600
X252600Y182600
X232600Y182600
X217600Y142600
X217600Y132600
X217600Y122600
X182600Y122600
X182600Y132600
X182600Y142600
X167600Y87600
X167600Y77600
X167600Y67600
X167600Y37600
X167600Y27600
X167600Y17600
X292600Y27600
X302600Y27600
X312600Y27600
X337600Y27600
X337600Y17600
X337600Y37600
X337600Y67600
X337600Y77600
X337600Y87600
X312600Y77600
X302600Y77600
X292600Y77600
X307600Y157600
X317600Y157600
X327600Y157600
X362600Y157600
X372600Y157600
X382600Y157600
X372600Y242600
X372600Y252600
X372600Y262600
T05
X217600Y207600
X177600Y207600
X167600Y207600
X127600Y207600
X57600Y192600
X17600Y192600
T06
X27600Y27600
X27600Y77600
X122600Y132600
X197600Y77600
X252600Y77600
X252600Y27600
X197600Y27600
X317600Y127600
X372600Y127600
X372600Y77600
X372600Y27600
X262600Y132600
X262600Y257600
X317600Y297600
X372600Y297600
X27600Y292600
M30
