G75*
%MOIN*%
%OFA0B0*%
%FSLAX25Y25*%
%IPPOS*%
%LPD*%
%AMOC8*
5,1,8,0,0,1.08239X$1,22.5*
%
%ADD10C,0.00000*%
%ADD11C,0.06400*%
%ADD12OC8,0.06400*%
%ADD13C,0.07000*%
%ADD14C,0.05600*%
%ADD15C,0.06400*%
%ADD16C,0.05550*%
%ADD17OC8,0.05600*%
%ADD18C,0.12998*%
D10*
X0002600Y0002600D02*
X0002600Y0317561D01*
X0396301Y0317561D01*
X0396301Y0002600D01*
X0002600Y0002600D01*
X0021301Y0027600D02*
X0021303Y0027758D01*
X0021309Y0027916D01*
X0021319Y0028074D01*
X0021333Y0028232D01*
X0021351Y0028389D01*
X0021372Y0028546D01*
X0021398Y0028702D01*
X0021428Y0028858D01*
X0021461Y0029013D01*
X0021499Y0029166D01*
X0021540Y0029319D01*
X0021585Y0029471D01*
X0021634Y0029622D01*
X0021687Y0029771D01*
X0021743Y0029919D01*
X0021803Y0030065D01*
X0021867Y0030210D01*
X0021935Y0030353D01*
X0022006Y0030495D01*
X0022080Y0030635D01*
X0022158Y0030772D01*
X0022240Y0030908D01*
X0022324Y0031042D01*
X0022413Y0031173D01*
X0022504Y0031302D01*
X0022599Y0031429D01*
X0022696Y0031554D01*
X0022797Y0031676D01*
X0022901Y0031795D01*
X0023008Y0031912D01*
X0023118Y0032026D01*
X0023231Y0032137D01*
X0023346Y0032246D01*
X0023464Y0032351D01*
X0023585Y0032453D01*
X0023708Y0032553D01*
X0023834Y0032649D01*
X0023962Y0032742D01*
X0024092Y0032832D01*
X0024225Y0032918D01*
X0024360Y0033002D01*
X0024496Y0033081D01*
X0024635Y0033158D01*
X0024776Y0033230D01*
X0024918Y0033300D01*
X0025062Y0033365D01*
X0025208Y0033427D01*
X0025355Y0033485D01*
X0025504Y0033540D01*
X0025654Y0033591D01*
X0025805Y0033638D01*
X0025957Y0033681D01*
X0026110Y0033720D01*
X0026265Y0033756D01*
X0026420Y0033787D01*
X0026576Y0033815D01*
X0026732Y0033839D01*
X0026889Y0033859D01*
X0027047Y0033875D01*
X0027204Y0033887D01*
X0027363Y0033895D01*
X0027521Y0033899D01*
X0027679Y0033899D01*
X0027837Y0033895D01*
X0027996Y0033887D01*
X0028153Y0033875D01*
X0028311Y0033859D01*
X0028468Y0033839D01*
X0028624Y0033815D01*
X0028780Y0033787D01*
X0028935Y0033756D01*
X0029090Y0033720D01*
X0029243Y0033681D01*
X0029395Y0033638D01*
X0029546Y0033591D01*
X0029696Y0033540D01*
X0029845Y0033485D01*
X0029992Y0033427D01*
X0030138Y0033365D01*
X0030282Y0033300D01*
X0030424Y0033230D01*
X0030565Y0033158D01*
X0030704Y0033081D01*
X0030840Y0033002D01*
X0030975Y0032918D01*
X0031108Y0032832D01*
X0031238Y0032742D01*
X0031366Y0032649D01*
X0031492Y0032553D01*
X0031615Y0032453D01*
X0031736Y0032351D01*
X0031854Y0032246D01*
X0031969Y0032137D01*
X0032082Y0032026D01*
X0032192Y0031912D01*
X0032299Y0031795D01*
X0032403Y0031676D01*
X0032504Y0031554D01*
X0032601Y0031429D01*
X0032696Y0031302D01*
X0032787Y0031173D01*
X0032876Y0031042D01*
X0032960Y0030908D01*
X0033042Y0030772D01*
X0033120Y0030635D01*
X0033194Y0030495D01*
X0033265Y0030353D01*
X0033333Y0030210D01*
X0033397Y0030065D01*
X0033457Y0029919D01*
X0033513Y0029771D01*
X0033566Y0029622D01*
X0033615Y0029471D01*
X0033660Y0029319D01*
X0033701Y0029166D01*
X0033739Y0029013D01*
X0033772Y0028858D01*
X0033802Y0028702D01*
X0033828Y0028546D01*
X0033849Y0028389D01*
X0033867Y0028232D01*
X0033881Y0028074D01*
X0033891Y0027916D01*
X0033897Y0027758D01*
X0033899Y0027600D01*
X0033897Y0027442D01*
X0033891Y0027284D01*
X0033881Y0027126D01*
X0033867Y0026968D01*
X0033849Y0026811D01*
X0033828Y0026654D01*
X0033802Y0026498D01*
X0033772Y0026342D01*
X0033739Y0026187D01*
X0033701Y0026034D01*
X0033660Y0025881D01*
X0033615Y0025729D01*
X0033566Y0025578D01*
X0033513Y0025429D01*
X0033457Y0025281D01*
X0033397Y0025135D01*
X0033333Y0024990D01*
X0033265Y0024847D01*
X0033194Y0024705D01*
X0033120Y0024565D01*
X0033042Y0024428D01*
X0032960Y0024292D01*
X0032876Y0024158D01*
X0032787Y0024027D01*
X0032696Y0023898D01*
X0032601Y0023771D01*
X0032504Y0023646D01*
X0032403Y0023524D01*
X0032299Y0023405D01*
X0032192Y0023288D01*
X0032082Y0023174D01*
X0031969Y0023063D01*
X0031854Y0022954D01*
X0031736Y0022849D01*
X0031615Y0022747D01*
X0031492Y0022647D01*
X0031366Y0022551D01*
X0031238Y0022458D01*
X0031108Y0022368D01*
X0030975Y0022282D01*
X0030840Y0022198D01*
X0030704Y0022119D01*
X0030565Y0022042D01*
X0030424Y0021970D01*
X0030282Y0021900D01*
X0030138Y0021835D01*
X0029992Y0021773D01*
X0029845Y0021715D01*
X0029696Y0021660D01*
X0029546Y0021609D01*
X0029395Y0021562D01*
X0029243Y0021519D01*
X0029090Y0021480D01*
X0028935Y0021444D01*
X0028780Y0021413D01*
X0028624Y0021385D01*
X0028468Y0021361D01*
X0028311Y0021341D01*
X0028153Y0021325D01*
X0027996Y0021313D01*
X0027837Y0021305D01*
X0027679Y0021301D01*
X0027521Y0021301D01*
X0027363Y0021305D01*
X0027204Y0021313D01*
X0027047Y0021325D01*
X0026889Y0021341D01*
X0026732Y0021361D01*
X0026576Y0021385D01*
X0026420Y0021413D01*
X0026265Y0021444D01*
X0026110Y0021480D01*
X0025957Y0021519D01*
X0025805Y0021562D01*
X0025654Y0021609D01*
X0025504Y0021660D01*
X0025355Y0021715D01*
X0025208Y0021773D01*
X0025062Y0021835D01*
X0024918Y0021900D01*
X0024776Y0021970D01*
X0024635Y0022042D01*
X0024496Y0022119D01*
X0024360Y0022198D01*
X0024225Y0022282D01*
X0024092Y0022368D01*
X0023962Y0022458D01*
X0023834Y0022551D01*
X0023708Y0022647D01*
X0023585Y0022747D01*
X0023464Y0022849D01*
X0023346Y0022954D01*
X0023231Y0023063D01*
X0023118Y0023174D01*
X0023008Y0023288D01*
X0022901Y0023405D01*
X0022797Y0023524D01*
X0022696Y0023646D01*
X0022599Y0023771D01*
X0022504Y0023898D01*
X0022413Y0024027D01*
X0022324Y0024158D01*
X0022240Y0024292D01*
X0022158Y0024428D01*
X0022080Y0024565D01*
X0022006Y0024705D01*
X0021935Y0024847D01*
X0021867Y0024990D01*
X0021803Y0025135D01*
X0021743Y0025281D01*
X0021687Y0025429D01*
X0021634Y0025578D01*
X0021585Y0025729D01*
X0021540Y0025881D01*
X0021499Y0026034D01*
X0021461Y0026187D01*
X0021428Y0026342D01*
X0021398Y0026498D01*
X0021372Y0026654D01*
X0021351Y0026811D01*
X0021333Y0026968D01*
X0021319Y0027126D01*
X0021309Y0027284D01*
X0021303Y0027442D01*
X0021301Y0027600D01*
X0021301Y0082600D02*
X0021303Y0082758D01*
X0021309Y0082916D01*
X0021319Y0083074D01*
X0021333Y0083232D01*
X0021351Y0083389D01*
X0021372Y0083546D01*
X0021398Y0083702D01*
X0021428Y0083858D01*
X0021461Y0084013D01*
X0021499Y0084166D01*
X0021540Y0084319D01*
X0021585Y0084471D01*
X0021634Y0084622D01*
X0021687Y0084771D01*
X0021743Y0084919D01*
X0021803Y0085065D01*
X0021867Y0085210D01*
X0021935Y0085353D01*
X0022006Y0085495D01*
X0022080Y0085635D01*
X0022158Y0085772D01*
X0022240Y0085908D01*
X0022324Y0086042D01*
X0022413Y0086173D01*
X0022504Y0086302D01*
X0022599Y0086429D01*
X0022696Y0086554D01*
X0022797Y0086676D01*
X0022901Y0086795D01*
X0023008Y0086912D01*
X0023118Y0087026D01*
X0023231Y0087137D01*
X0023346Y0087246D01*
X0023464Y0087351D01*
X0023585Y0087453D01*
X0023708Y0087553D01*
X0023834Y0087649D01*
X0023962Y0087742D01*
X0024092Y0087832D01*
X0024225Y0087918D01*
X0024360Y0088002D01*
X0024496Y0088081D01*
X0024635Y0088158D01*
X0024776Y0088230D01*
X0024918Y0088300D01*
X0025062Y0088365D01*
X0025208Y0088427D01*
X0025355Y0088485D01*
X0025504Y0088540D01*
X0025654Y0088591D01*
X0025805Y0088638D01*
X0025957Y0088681D01*
X0026110Y0088720D01*
X0026265Y0088756D01*
X0026420Y0088787D01*
X0026576Y0088815D01*
X0026732Y0088839D01*
X0026889Y0088859D01*
X0027047Y0088875D01*
X0027204Y0088887D01*
X0027363Y0088895D01*
X0027521Y0088899D01*
X0027679Y0088899D01*
X0027837Y0088895D01*
X0027996Y0088887D01*
X0028153Y0088875D01*
X0028311Y0088859D01*
X0028468Y0088839D01*
X0028624Y0088815D01*
X0028780Y0088787D01*
X0028935Y0088756D01*
X0029090Y0088720D01*
X0029243Y0088681D01*
X0029395Y0088638D01*
X0029546Y0088591D01*
X0029696Y0088540D01*
X0029845Y0088485D01*
X0029992Y0088427D01*
X0030138Y0088365D01*
X0030282Y0088300D01*
X0030424Y0088230D01*
X0030565Y0088158D01*
X0030704Y0088081D01*
X0030840Y0088002D01*
X0030975Y0087918D01*
X0031108Y0087832D01*
X0031238Y0087742D01*
X0031366Y0087649D01*
X0031492Y0087553D01*
X0031615Y0087453D01*
X0031736Y0087351D01*
X0031854Y0087246D01*
X0031969Y0087137D01*
X0032082Y0087026D01*
X0032192Y0086912D01*
X0032299Y0086795D01*
X0032403Y0086676D01*
X0032504Y0086554D01*
X0032601Y0086429D01*
X0032696Y0086302D01*
X0032787Y0086173D01*
X0032876Y0086042D01*
X0032960Y0085908D01*
X0033042Y0085772D01*
X0033120Y0085635D01*
X0033194Y0085495D01*
X0033265Y0085353D01*
X0033333Y0085210D01*
X0033397Y0085065D01*
X0033457Y0084919D01*
X0033513Y0084771D01*
X0033566Y0084622D01*
X0033615Y0084471D01*
X0033660Y0084319D01*
X0033701Y0084166D01*
X0033739Y0084013D01*
X0033772Y0083858D01*
X0033802Y0083702D01*
X0033828Y0083546D01*
X0033849Y0083389D01*
X0033867Y0083232D01*
X0033881Y0083074D01*
X0033891Y0082916D01*
X0033897Y0082758D01*
X0033899Y0082600D01*
X0033897Y0082442D01*
X0033891Y0082284D01*
X0033881Y0082126D01*
X0033867Y0081968D01*
X0033849Y0081811D01*
X0033828Y0081654D01*
X0033802Y0081498D01*
X0033772Y0081342D01*
X0033739Y0081187D01*
X0033701Y0081034D01*
X0033660Y0080881D01*
X0033615Y0080729D01*
X0033566Y0080578D01*
X0033513Y0080429D01*
X0033457Y0080281D01*
X0033397Y0080135D01*
X0033333Y0079990D01*
X0033265Y0079847D01*
X0033194Y0079705D01*
X0033120Y0079565D01*
X0033042Y0079428D01*
X0032960Y0079292D01*
X0032876Y0079158D01*
X0032787Y0079027D01*
X0032696Y0078898D01*
X0032601Y0078771D01*
X0032504Y0078646D01*
X0032403Y0078524D01*
X0032299Y0078405D01*
X0032192Y0078288D01*
X0032082Y0078174D01*
X0031969Y0078063D01*
X0031854Y0077954D01*
X0031736Y0077849D01*
X0031615Y0077747D01*
X0031492Y0077647D01*
X0031366Y0077551D01*
X0031238Y0077458D01*
X0031108Y0077368D01*
X0030975Y0077282D01*
X0030840Y0077198D01*
X0030704Y0077119D01*
X0030565Y0077042D01*
X0030424Y0076970D01*
X0030282Y0076900D01*
X0030138Y0076835D01*
X0029992Y0076773D01*
X0029845Y0076715D01*
X0029696Y0076660D01*
X0029546Y0076609D01*
X0029395Y0076562D01*
X0029243Y0076519D01*
X0029090Y0076480D01*
X0028935Y0076444D01*
X0028780Y0076413D01*
X0028624Y0076385D01*
X0028468Y0076361D01*
X0028311Y0076341D01*
X0028153Y0076325D01*
X0027996Y0076313D01*
X0027837Y0076305D01*
X0027679Y0076301D01*
X0027521Y0076301D01*
X0027363Y0076305D01*
X0027204Y0076313D01*
X0027047Y0076325D01*
X0026889Y0076341D01*
X0026732Y0076361D01*
X0026576Y0076385D01*
X0026420Y0076413D01*
X0026265Y0076444D01*
X0026110Y0076480D01*
X0025957Y0076519D01*
X0025805Y0076562D01*
X0025654Y0076609D01*
X0025504Y0076660D01*
X0025355Y0076715D01*
X0025208Y0076773D01*
X0025062Y0076835D01*
X0024918Y0076900D01*
X0024776Y0076970D01*
X0024635Y0077042D01*
X0024496Y0077119D01*
X0024360Y0077198D01*
X0024225Y0077282D01*
X0024092Y0077368D01*
X0023962Y0077458D01*
X0023834Y0077551D01*
X0023708Y0077647D01*
X0023585Y0077747D01*
X0023464Y0077849D01*
X0023346Y0077954D01*
X0023231Y0078063D01*
X0023118Y0078174D01*
X0023008Y0078288D01*
X0022901Y0078405D01*
X0022797Y0078524D01*
X0022696Y0078646D01*
X0022599Y0078771D01*
X0022504Y0078898D01*
X0022413Y0079027D01*
X0022324Y0079158D01*
X0022240Y0079292D01*
X0022158Y0079428D01*
X0022080Y0079565D01*
X0022006Y0079705D01*
X0021935Y0079847D01*
X0021867Y0079990D01*
X0021803Y0080135D01*
X0021743Y0080281D01*
X0021687Y0080429D01*
X0021634Y0080578D01*
X0021585Y0080729D01*
X0021540Y0080881D01*
X0021499Y0081034D01*
X0021461Y0081187D01*
X0021428Y0081342D01*
X0021398Y0081498D01*
X0021372Y0081654D01*
X0021351Y0081811D01*
X0021333Y0081968D01*
X0021319Y0082126D01*
X0021309Y0082284D01*
X0021303Y0082442D01*
X0021301Y0082600D01*
X0116301Y0132600D02*
X0116303Y0132758D01*
X0116309Y0132916D01*
X0116319Y0133074D01*
X0116333Y0133232D01*
X0116351Y0133389D01*
X0116372Y0133546D01*
X0116398Y0133702D01*
X0116428Y0133858D01*
X0116461Y0134013D01*
X0116499Y0134166D01*
X0116540Y0134319D01*
X0116585Y0134471D01*
X0116634Y0134622D01*
X0116687Y0134771D01*
X0116743Y0134919D01*
X0116803Y0135065D01*
X0116867Y0135210D01*
X0116935Y0135353D01*
X0117006Y0135495D01*
X0117080Y0135635D01*
X0117158Y0135772D01*
X0117240Y0135908D01*
X0117324Y0136042D01*
X0117413Y0136173D01*
X0117504Y0136302D01*
X0117599Y0136429D01*
X0117696Y0136554D01*
X0117797Y0136676D01*
X0117901Y0136795D01*
X0118008Y0136912D01*
X0118118Y0137026D01*
X0118231Y0137137D01*
X0118346Y0137246D01*
X0118464Y0137351D01*
X0118585Y0137453D01*
X0118708Y0137553D01*
X0118834Y0137649D01*
X0118962Y0137742D01*
X0119092Y0137832D01*
X0119225Y0137918D01*
X0119360Y0138002D01*
X0119496Y0138081D01*
X0119635Y0138158D01*
X0119776Y0138230D01*
X0119918Y0138300D01*
X0120062Y0138365D01*
X0120208Y0138427D01*
X0120355Y0138485D01*
X0120504Y0138540D01*
X0120654Y0138591D01*
X0120805Y0138638D01*
X0120957Y0138681D01*
X0121110Y0138720D01*
X0121265Y0138756D01*
X0121420Y0138787D01*
X0121576Y0138815D01*
X0121732Y0138839D01*
X0121889Y0138859D01*
X0122047Y0138875D01*
X0122204Y0138887D01*
X0122363Y0138895D01*
X0122521Y0138899D01*
X0122679Y0138899D01*
X0122837Y0138895D01*
X0122996Y0138887D01*
X0123153Y0138875D01*
X0123311Y0138859D01*
X0123468Y0138839D01*
X0123624Y0138815D01*
X0123780Y0138787D01*
X0123935Y0138756D01*
X0124090Y0138720D01*
X0124243Y0138681D01*
X0124395Y0138638D01*
X0124546Y0138591D01*
X0124696Y0138540D01*
X0124845Y0138485D01*
X0124992Y0138427D01*
X0125138Y0138365D01*
X0125282Y0138300D01*
X0125424Y0138230D01*
X0125565Y0138158D01*
X0125704Y0138081D01*
X0125840Y0138002D01*
X0125975Y0137918D01*
X0126108Y0137832D01*
X0126238Y0137742D01*
X0126366Y0137649D01*
X0126492Y0137553D01*
X0126615Y0137453D01*
X0126736Y0137351D01*
X0126854Y0137246D01*
X0126969Y0137137D01*
X0127082Y0137026D01*
X0127192Y0136912D01*
X0127299Y0136795D01*
X0127403Y0136676D01*
X0127504Y0136554D01*
X0127601Y0136429D01*
X0127696Y0136302D01*
X0127787Y0136173D01*
X0127876Y0136042D01*
X0127960Y0135908D01*
X0128042Y0135772D01*
X0128120Y0135635D01*
X0128194Y0135495D01*
X0128265Y0135353D01*
X0128333Y0135210D01*
X0128397Y0135065D01*
X0128457Y0134919D01*
X0128513Y0134771D01*
X0128566Y0134622D01*
X0128615Y0134471D01*
X0128660Y0134319D01*
X0128701Y0134166D01*
X0128739Y0134013D01*
X0128772Y0133858D01*
X0128802Y0133702D01*
X0128828Y0133546D01*
X0128849Y0133389D01*
X0128867Y0133232D01*
X0128881Y0133074D01*
X0128891Y0132916D01*
X0128897Y0132758D01*
X0128899Y0132600D01*
X0128897Y0132442D01*
X0128891Y0132284D01*
X0128881Y0132126D01*
X0128867Y0131968D01*
X0128849Y0131811D01*
X0128828Y0131654D01*
X0128802Y0131498D01*
X0128772Y0131342D01*
X0128739Y0131187D01*
X0128701Y0131034D01*
X0128660Y0130881D01*
X0128615Y0130729D01*
X0128566Y0130578D01*
X0128513Y0130429D01*
X0128457Y0130281D01*
X0128397Y0130135D01*
X0128333Y0129990D01*
X0128265Y0129847D01*
X0128194Y0129705D01*
X0128120Y0129565D01*
X0128042Y0129428D01*
X0127960Y0129292D01*
X0127876Y0129158D01*
X0127787Y0129027D01*
X0127696Y0128898D01*
X0127601Y0128771D01*
X0127504Y0128646D01*
X0127403Y0128524D01*
X0127299Y0128405D01*
X0127192Y0128288D01*
X0127082Y0128174D01*
X0126969Y0128063D01*
X0126854Y0127954D01*
X0126736Y0127849D01*
X0126615Y0127747D01*
X0126492Y0127647D01*
X0126366Y0127551D01*
X0126238Y0127458D01*
X0126108Y0127368D01*
X0125975Y0127282D01*
X0125840Y0127198D01*
X0125704Y0127119D01*
X0125565Y0127042D01*
X0125424Y0126970D01*
X0125282Y0126900D01*
X0125138Y0126835D01*
X0124992Y0126773D01*
X0124845Y0126715D01*
X0124696Y0126660D01*
X0124546Y0126609D01*
X0124395Y0126562D01*
X0124243Y0126519D01*
X0124090Y0126480D01*
X0123935Y0126444D01*
X0123780Y0126413D01*
X0123624Y0126385D01*
X0123468Y0126361D01*
X0123311Y0126341D01*
X0123153Y0126325D01*
X0122996Y0126313D01*
X0122837Y0126305D01*
X0122679Y0126301D01*
X0122521Y0126301D01*
X0122363Y0126305D01*
X0122204Y0126313D01*
X0122047Y0126325D01*
X0121889Y0126341D01*
X0121732Y0126361D01*
X0121576Y0126385D01*
X0121420Y0126413D01*
X0121265Y0126444D01*
X0121110Y0126480D01*
X0120957Y0126519D01*
X0120805Y0126562D01*
X0120654Y0126609D01*
X0120504Y0126660D01*
X0120355Y0126715D01*
X0120208Y0126773D01*
X0120062Y0126835D01*
X0119918Y0126900D01*
X0119776Y0126970D01*
X0119635Y0127042D01*
X0119496Y0127119D01*
X0119360Y0127198D01*
X0119225Y0127282D01*
X0119092Y0127368D01*
X0118962Y0127458D01*
X0118834Y0127551D01*
X0118708Y0127647D01*
X0118585Y0127747D01*
X0118464Y0127849D01*
X0118346Y0127954D01*
X0118231Y0128063D01*
X0118118Y0128174D01*
X0118008Y0128288D01*
X0117901Y0128405D01*
X0117797Y0128524D01*
X0117696Y0128646D01*
X0117599Y0128771D01*
X0117504Y0128898D01*
X0117413Y0129027D01*
X0117324Y0129158D01*
X0117240Y0129292D01*
X0117158Y0129428D01*
X0117080Y0129565D01*
X0117006Y0129705D01*
X0116935Y0129847D01*
X0116867Y0129990D01*
X0116803Y0130135D01*
X0116743Y0130281D01*
X0116687Y0130429D01*
X0116634Y0130578D01*
X0116585Y0130729D01*
X0116540Y0130881D01*
X0116499Y0131034D01*
X0116461Y0131187D01*
X0116428Y0131342D01*
X0116398Y0131498D01*
X0116372Y0131654D01*
X0116351Y0131811D01*
X0116333Y0131968D01*
X0116319Y0132126D01*
X0116309Y0132284D01*
X0116303Y0132442D01*
X0116301Y0132600D01*
X0156301Y0082600D02*
X0156303Y0082758D01*
X0156309Y0082916D01*
X0156319Y0083074D01*
X0156333Y0083232D01*
X0156351Y0083389D01*
X0156372Y0083546D01*
X0156398Y0083702D01*
X0156428Y0083858D01*
X0156461Y0084013D01*
X0156499Y0084166D01*
X0156540Y0084319D01*
X0156585Y0084471D01*
X0156634Y0084622D01*
X0156687Y0084771D01*
X0156743Y0084919D01*
X0156803Y0085065D01*
X0156867Y0085210D01*
X0156935Y0085353D01*
X0157006Y0085495D01*
X0157080Y0085635D01*
X0157158Y0085772D01*
X0157240Y0085908D01*
X0157324Y0086042D01*
X0157413Y0086173D01*
X0157504Y0086302D01*
X0157599Y0086429D01*
X0157696Y0086554D01*
X0157797Y0086676D01*
X0157901Y0086795D01*
X0158008Y0086912D01*
X0158118Y0087026D01*
X0158231Y0087137D01*
X0158346Y0087246D01*
X0158464Y0087351D01*
X0158585Y0087453D01*
X0158708Y0087553D01*
X0158834Y0087649D01*
X0158962Y0087742D01*
X0159092Y0087832D01*
X0159225Y0087918D01*
X0159360Y0088002D01*
X0159496Y0088081D01*
X0159635Y0088158D01*
X0159776Y0088230D01*
X0159918Y0088300D01*
X0160062Y0088365D01*
X0160208Y0088427D01*
X0160355Y0088485D01*
X0160504Y0088540D01*
X0160654Y0088591D01*
X0160805Y0088638D01*
X0160957Y0088681D01*
X0161110Y0088720D01*
X0161265Y0088756D01*
X0161420Y0088787D01*
X0161576Y0088815D01*
X0161732Y0088839D01*
X0161889Y0088859D01*
X0162047Y0088875D01*
X0162204Y0088887D01*
X0162363Y0088895D01*
X0162521Y0088899D01*
X0162679Y0088899D01*
X0162837Y0088895D01*
X0162996Y0088887D01*
X0163153Y0088875D01*
X0163311Y0088859D01*
X0163468Y0088839D01*
X0163624Y0088815D01*
X0163780Y0088787D01*
X0163935Y0088756D01*
X0164090Y0088720D01*
X0164243Y0088681D01*
X0164395Y0088638D01*
X0164546Y0088591D01*
X0164696Y0088540D01*
X0164845Y0088485D01*
X0164992Y0088427D01*
X0165138Y0088365D01*
X0165282Y0088300D01*
X0165424Y0088230D01*
X0165565Y0088158D01*
X0165704Y0088081D01*
X0165840Y0088002D01*
X0165975Y0087918D01*
X0166108Y0087832D01*
X0166238Y0087742D01*
X0166366Y0087649D01*
X0166492Y0087553D01*
X0166615Y0087453D01*
X0166736Y0087351D01*
X0166854Y0087246D01*
X0166969Y0087137D01*
X0167082Y0087026D01*
X0167192Y0086912D01*
X0167299Y0086795D01*
X0167403Y0086676D01*
X0167504Y0086554D01*
X0167601Y0086429D01*
X0167696Y0086302D01*
X0167787Y0086173D01*
X0167876Y0086042D01*
X0167960Y0085908D01*
X0168042Y0085772D01*
X0168120Y0085635D01*
X0168194Y0085495D01*
X0168265Y0085353D01*
X0168333Y0085210D01*
X0168397Y0085065D01*
X0168457Y0084919D01*
X0168513Y0084771D01*
X0168566Y0084622D01*
X0168615Y0084471D01*
X0168660Y0084319D01*
X0168701Y0084166D01*
X0168739Y0084013D01*
X0168772Y0083858D01*
X0168802Y0083702D01*
X0168828Y0083546D01*
X0168849Y0083389D01*
X0168867Y0083232D01*
X0168881Y0083074D01*
X0168891Y0082916D01*
X0168897Y0082758D01*
X0168899Y0082600D01*
X0168897Y0082442D01*
X0168891Y0082284D01*
X0168881Y0082126D01*
X0168867Y0081968D01*
X0168849Y0081811D01*
X0168828Y0081654D01*
X0168802Y0081498D01*
X0168772Y0081342D01*
X0168739Y0081187D01*
X0168701Y0081034D01*
X0168660Y0080881D01*
X0168615Y0080729D01*
X0168566Y0080578D01*
X0168513Y0080429D01*
X0168457Y0080281D01*
X0168397Y0080135D01*
X0168333Y0079990D01*
X0168265Y0079847D01*
X0168194Y0079705D01*
X0168120Y0079565D01*
X0168042Y0079428D01*
X0167960Y0079292D01*
X0167876Y0079158D01*
X0167787Y0079027D01*
X0167696Y0078898D01*
X0167601Y0078771D01*
X0167504Y0078646D01*
X0167403Y0078524D01*
X0167299Y0078405D01*
X0167192Y0078288D01*
X0167082Y0078174D01*
X0166969Y0078063D01*
X0166854Y0077954D01*
X0166736Y0077849D01*
X0166615Y0077747D01*
X0166492Y0077647D01*
X0166366Y0077551D01*
X0166238Y0077458D01*
X0166108Y0077368D01*
X0165975Y0077282D01*
X0165840Y0077198D01*
X0165704Y0077119D01*
X0165565Y0077042D01*
X0165424Y0076970D01*
X0165282Y0076900D01*
X0165138Y0076835D01*
X0164992Y0076773D01*
X0164845Y0076715D01*
X0164696Y0076660D01*
X0164546Y0076609D01*
X0164395Y0076562D01*
X0164243Y0076519D01*
X0164090Y0076480D01*
X0163935Y0076444D01*
X0163780Y0076413D01*
X0163624Y0076385D01*
X0163468Y0076361D01*
X0163311Y0076341D01*
X0163153Y0076325D01*
X0162996Y0076313D01*
X0162837Y0076305D01*
X0162679Y0076301D01*
X0162521Y0076301D01*
X0162363Y0076305D01*
X0162204Y0076313D01*
X0162047Y0076325D01*
X0161889Y0076341D01*
X0161732Y0076361D01*
X0161576Y0076385D01*
X0161420Y0076413D01*
X0161265Y0076444D01*
X0161110Y0076480D01*
X0160957Y0076519D01*
X0160805Y0076562D01*
X0160654Y0076609D01*
X0160504Y0076660D01*
X0160355Y0076715D01*
X0160208Y0076773D01*
X0160062Y0076835D01*
X0159918Y0076900D01*
X0159776Y0076970D01*
X0159635Y0077042D01*
X0159496Y0077119D01*
X0159360Y0077198D01*
X0159225Y0077282D01*
X0159092Y0077368D01*
X0158962Y0077458D01*
X0158834Y0077551D01*
X0158708Y0077647D01*
X0158585Y0077747D01*
X0158464Y0077849D01*
X0158346Y0077954D01*
X0158231Y0078063D01*
X0158118Y0078174D01*
X0158008Y0078288D01*
X0157901Y0078405D01*
X0157797Y0078524D01*
X0157696Y0078646D01*
X0157599Y0078771D01*
X0157504Y0078898D01*
X0157413Y0079027D01*
X0157324Y0079158D01*
X0157240Y0079292D01*
X0157158Y0079428D01*
X0157080Y0079565D01*
X0157006Y0079705D01*
X0156935Y0079847D01*
X0156867Y0079990D01*
X0156803Y0080135D01*
X0156743Y0080281D01*
X0156687Y0080429D01*
X0156634Y0080578D01*
X0156585Y0080729D01*
X0156540Y0080881D01*
X0156499Y0081034D01*
X0156461Y0081187D01*
X0156428Y0081342D01*
X0156398Y0081498D01*
X0156372Y0081654D01*
X0156351Y0081811D01*
X0156333Y0081968D01*
X0156319Y0082126D01*
X0156309Y0082284D01*
X0156303Y0082442D01*
X0156301Y0082600D01*
X0156301Y0027600D02*
X0156303Y0027758D01*
X0156309Y0027916D01*
X0156319Y0028074D01*
X0156333Y0028232D01*
X0156351Y0028389D01*
X0156372Y0028546D01*
X0156398Y0028702D01*
X0156428Y0028858D01*
X0156461Y0029013D01*
X0156499Y0029166D01*
X0156540Y0029319D01*
X0156585Y0029471D01*
X0156634Y0029622D01*
X0156687Y0029771D01*
X0156743Y0029919D01*
X0156803Y0030065D01*
X0156867Y0030210D01*
X0156935Y0030353D01*
X0157006Y0030495D01*
X0157080Y0030635D01*
X0157158Y0030772D01*
X0157240Y0030908D01*
X0157324Y0031042D01*
X0157413Y0031173D01*
X0157504Y0031302D01*
X0157599Y0031429D01*
X0157696Y0031554D01*
X0157797Y0031676D01*
X0157901Y0031795D01*
X0158008Y0031912D01*
X0158118Y0032026D01*
X0158231Y0032137D01*
X0158346Y0032246D01*
X0158464Y0032351D01*
X0158585Y0032453D01*
X0158708Y0032553D01*
X0158834Y0032649D01*
X0158962Y0032742D01*
X0159092Y0032832D01*
X0159225Y0032918D01*
X0159360Y0033002D01*
X0159496Y0033081D01*
X0159635Y0033158D01*
X0159776Y0033230D01*
X0159918Y0033300D01*
X0160062Y0033365D01*
X0160208Y0033427D01*
X0160355Y0033485D01*
X0160504Y0033540D01*
X0160654Y0033591D01*
X0160805Y0033638D01*
X0160957Y0033681D01*
X0161110Y0033720D01*
X0161265Y0033756D01*
X0161420Y0033787D01*
X0161576Y0033815D01*
X0161732Y0033839D01*
X0161889Y0033859D01*
X0162047Y0033875D01*
X0162204Y0033887D01*
X0162363Y0033895D01*
X0162521Y0033899D01*
X0162679Y0033899D01*
X0162837Y0033895D01*
X0162996Y0033887D01*
X0163153Y0033875D01*
X0163311Y0033859D01*
X0163468Y0033839D01*
X0163624Y0033815D01*
X0163780Y0033787D01*
X0163935Y0033756D01*
X0164090Y0033720D01*
X0164243Y0033681D01*
X0164395Y0033638D01*
X0164546Y0033591D01*
X0164696Y0033540D01*
X0164845Y0033485D01*
X0164992Y0033427D01*
X0165138Y0033365D01*
X0165282Y0033300D01*
X0165424Y0033230D01*
X0165565Y0033158D01*
X0165704Y0033081D01*
X0165840Y0033002D01*
X0165975Y0032918D01*
X0166108Y0032832D01*
X0166238Y0032742D01*
X0166366Y0032649D01*
X0166492Y0032553D01*
X0166615Y0032453D01*
X0166736Y0032351D01*
X0166854Y0032246D01*
X0166969Y0032137D01*
X0167082Y0032026D01*
X0167192Y0031912D01*
X0167299Y0031795D01*
X0167403Y0031676D01*
X0167504Y0031554D01*
X0167601Y0031429D01*
X0167696Y0031302D01*
X0167787Y0031173D01*
X0167876Y0031042D01*
X0167960Y0030908D01*
X0168042Y0030772D01*
X0168120Y0030635D01*
X0168194Y0030495D01*
X0168265Y0030353D01*
X0168333Y0030210D01*
X0168397Y0030065D01*
X0168457Y0029919D01*
X0168513Y0029771D01*
X0168566Y0029622D01*
X0168615Y0029471D01*
X0168660Y0029319D01*
X0168701Y0029166D01*
X0168739Y0029013D01*
X0168772Y0028858D01*
X0168802Y0028702D01*
X0168828Y0028546D01*
X0168849Y0028389D01*
X0168867Y0028232D01*
X0168881Y0028074D01*
X0168891Y0027916D01*
X0168897Y0027758D01*
X0168899Y0027600D01*
X0168897Y0027442D01*
X0168891Y0027284D01*
X0168881Y0027126D01*
X0168867Y0026968D01*
X0168849Y0026811D01*
X0168828Y0026654D01*
X0168802Y0026498D01*
X0168772Y0026342D01*
X0168739Y0026187D01*
X0168701Y0026034D01*
X0168660Y0025881D01*
X0168615Y0025729D01*
X0168566Y0025578D01*
X0168513Y0025429D01*
X0168457Y0025281D01*
X0168397Y0025135D01*
X0168333Y0024990D01*
X0168265Y0024847D01*
X0168194Y0024705D01*
X0168120Y0024565D01*
X0168042Y0024428D01*
X0167960Y0024292D01*
X0167876Y0024158D01*
X0167787Y0024027D01*
X0167696Y0023898D01*
X0167601Y0023771D01*
X0167504Y0023646D01*
X0167403Y0023524D01*
X0167299Y0023405D01*
X0167192Y0023288D01*
X0167082Y0023174D01*
X0166969Y0023063D01*
X0166854Y0022954D01*
X0166736Y0022849D01*
X0166615Y0022747D01*
X0166492Y0022647D01*
X0166366Y0022551D01*
X0166238Y0022458D01*
X0166108Y0022368D01*
X0165975Y0022282D01*
X0165840Y0022198D01*
X0165704Y0022119D01*
X0165565Y0022042D01*
X0165424Y0021970D01*
X0165282Y0021900D01*
X0165138Y0021835D01*
X0164992Y0021773D01*
X0164845Y0021715D01*
X0164696Y0021660D01*
X0164546Y0021609D01*
X0164395Y0021562D01*
X0164243Y0021519D01*
X0164090Y0021480D01*
X0163935Y0021444D01*
X0163780Y0021413D01*
X0163624Y0021385D01*
X0163468Y0021361D01*
X0163311Y0021341D01*
X0163153Y0021325D01*
X0162996Y0021313D01*
X0162837Y0021305D01*
X0162679Y0021301D01*
X0162521Y0021301D01*
X0162363Y0021305D01*
X0162204Y0021313D01*
X0162047Y0021325D01*
X0161889Y0021341D01*
X0161732Y0021361D01*
X0161576Y0021385D01*
X0161420Y0021413D01*
X0161265Y0021444D01*
X0161110Y0021480D01*
X0160957Y0021519D01*
X0160805Y0021562D01*
X0160654Y0021609D01*
X0160504Y0021660D01*
X0160355Y0021715D01*
X0160208Y0021773D01*
X0160062Y0021835D01*
X0159918Y0021900D01*
X0159776Y0021970D01*
X0159635Y0022042D01*
X0159496Y0022119D01*
X0159360Y0022198D01*
X0159225Y0022282D01*
X0159092Y0022368D01*
X0158962Y0022458D01*
X0158834Y0022551D01*
X0158708Y0022647D01*
X0158585Y0022747D01*
X0158464Y0022849D01*
X0158346Y0022954D01*
X0158231Y0023063D01*
X0158118Y0023174D01*
X0158008Y0023288D01*
X0157901Y0023405D01*
X0157797Y0023524D01*
X0157696Y0023646D01*
X0157599Y0023771D01*
X0157504Y0023898D01*
X0157413Y0024027D01*
X0157324Y0024158D01*
X0157240Y0024292D01*
X0157158Y0024428D01*
X0157080Y0024565D01*
X0157006Y0024705D01*
X0156935Y0024847D01*
X0156867Y0024990D01*
X0156803Y0025135D01*
X0156743Y0025281D01*
X0156687Y0025429D01*
X0156634Y0025578D01*
X0156585Y0025729D01*
X0156540Y0025881D01*
X0156499Y0026034D01*
X0156461Y0026187D01*
X0156428Y0026342D01*
X0156398Y0026498D01*
X0156372Y0026654D01*
X0156351Y0026811D01*
X0156333Y0026968D01*
X0156319Y0027126D01*
X0156309Y0027284D01*
X0156303Y0027442D01*
X0156301Y0027600D01*
X0256301Y0132600D02*
X0256303Y0132758D01*
X0256309Y0132916D01*
X0256319Y0133074D01*
X0256333Y0133232D01*
X0256351Y0133389D01*
X0256372Y0133546D01*
X0256398Y0133702D01*
X0256428Y0133858D01*
X0256461Y0134013D01*
X0256499Y0134166D01*
X0256540Y0134319D01*
X0256585Y0134471D01*
X0256634Y0134622D01*
X0256687Y0134771D01*
X0256743Y0134919D01*
X0256803Y0135065D01*
X0256867Y0135210D01*
X0256935Y0135353D01*
X0257006Y0135495D01*
X0257080Y0135635D01*
X0257158Y0135772D01*
X0257240Y0135908D01*
X0257324Y0136042D01*
X0257413Y0136173D01*
X0257504Y0136302D01*
X0257599Y0136429D01*
X0257696Y0136554D01*
X0257797Y0136676D01*
X0257901Y0136795D01*
X0258008Y0136912D01*
X0258118Y0137026D01*
X0258231Y0137137D01*
X0258346Y0137246D01*
X0258464Y0137351D01*
X0258585Y0137453D01*
X0258708Y0137553D01*
X0258834Y0137649D01*
X0258962Y0137742D01*
X0259092Y0137832D01*
X0259225Y0137918D01*
X0259360Y0138002D01*
X0259496Y0138081D01*
X0259635Y0138158D01*
X0259776Y0138230D01*
X0259918Y0138300D01*
X0260062Y0138365D01*
X0260208Y0138427D01*
X0260355Y0138485D01*
X0260504Y0138540D01*
X0260654Y0138591D01*
X0260805Y0138638D01*
X0260957Y0138681D01*
X0261110Y0138720D01*
X0261265Y0138756D01*
X0261420Y0138787D01*
X0261576Y0138815D01*
X0261732Y0138839D01*
X0261889Y0138859D01*
X0262047Y0138875D01*
X0262204Y0138887D01*
X0262363Y0138895D01*
X0262521Y0138899D01*
X0262679Y0138899D01*
X0262837Y0138895D01*
X0262996Y0138887D01*
X0263153Y0138875D01*
X0263311Y0138859D01*
X0263468Y0138839D01*
X0263624Y0138815D01*
X0263780Y0138787D01*
X0263935Y0138756D01*
X0264090Y0138720D01*
X0264243Y0138681D01*
X0264395Y0138638D01*
X0264546Y0138591D01*
X0264696Y0138540D01*
X0264845Y0138485D01*
X0264992Y0138427D01*
X0265138Y0138365D01*
X0265282Y0138300D01*
X0265424Y0138230D01*
X0265565Y0138158D01*
X0265704Y0138081D01*
X0265840Y0138002D01*
X0265975Y0137918D01*
X0266108Y0137832D01*
X0266238Y0137742D01*
X0266366Y0137649D01*
X0266492Y0137553D01*
X0266615Y0137453D01*
X0266736Y0137351D01*
X0266854Y0137246D01*
X0266969Y0137137D01*
X0267082Y0137026D01*
X0267192Y0136912D01*
X0267299Y0136795D01*
X0267403Y0136676D01*
X0267504Y0136554D01*
X0267601Y0136429D01*
X0267696Y0136302D01*
X0267787Y0136173D01*
X0267876Y0136042D01*
X0267960Y0135908D01*
X0268042Y0135772D01*
X0268120Y0135635D01*
X0268194Y0135495D01*
X0268265Y0135353D01*
X0268333Y0135210D01*
X0268397Y0135065D01*
X0268457Y0134919D01*
X0268513Y0134771D01*
X0268566Y0134622D01*
X0268615Y0134471D01*
X0268660Y0134319D01*
X0268701Y0134166D01*
X0268739Y0134013D01*
X0268772Y0133858D01*
X0268802Y0133702D01*
X0268828Y0133546D01*
X0268849Y0133389D01*
X0268867Y0133232D01*
X0268881Y0133074D01*
X0268891Y0132916D01*
X0268897Y0132758D01*
X0268899Y0132600D01*
X0268897Y0132442D01*
X0268891Y0132284D01*
X0268881Y0132126D01*
X0268867Y0131968D01*
X0268849Y0131811D01*
X0268828Y0131654D01*
X0268802Y0131498D01*
X0268772Y0131342D01*
X0268739Y0131187D01*
X0268701Y0131034D01*
X0268660Y0130881D01*
X0268615Y0130729D01*
X0268566Y0130578D01*
X0268513Y0130429D01*
X0268457Y0130281D01*
X0268397Y0130135D01*
X0268333Y0129990D01*
X0268265Y0129847D01*
X0268194Y0129705D01*
X0268120Y0129565D01*
X0268042Y0129428D01*
X0267960Y0129292D01*
X0267876Y0129158D01*
X0267787Y0129027D01*
X0267696Y0128898D01*
X0267601Y0128771D01*
X0267504Y0128646D01*
X0267403Y0128524D01*
X0267299Y0128405D01*
X0267192Y0128288D01*
X0267082Y0128174D01*
X0266969Y0128063D01*
X0266854Y0127954D01*
X0266736Y0127849D01*
X0266615Y0127747D01*
X0266492Y0127647D01*
X0266366Y0127551D01*
X0266238Y0127458D01*
X0266108Y0127368D01*
X0265975Y0127282D01*
X0265840Y0127198D01*
X0265704Y0127119D01*
X0265565Y0127042D01*
X0265424Y0126970D01*
X0265282Y0126900D01*
X0265138Y0126835D01*
X0264992Y0126773D01*
X0264845Y0126715D01*
X0264696Y0126660D01*
X0264546Y0126609D01*
X0264395Y0126562D01*
X0264243Y0126519D01*
X0264090Y0126480D01*
X0263935Y0126444D01*
X0263780Y0126413D01*
X0263624Y0126385D01*
X0263468Y0126361D01*
X0263311Y0126341D01*
X0263153Y0126325D01*
X0262996Y0126313D01*
X0262837Y0126305D01*
X0262679Y0126301D01*
X0262521Y0126301D01*
X0262363Y0126305D01*
X0262204Y0126313D01*
X0262047Y0126325D01*
X0261889Y0126341D01*
X0261732Y0126361D01*
X0261576Y0126385D01*
X0261420Y0126413D01*
X0261265Y0126444D01*
X0261110Y0126480D01*
X0260957Y0126519D01*
X0260805Y0126562D01*
X0260654Y0126609D01*
X0260504Y0126660D01*
X0260355Y0126715D01*
X0260208Y0126773D01*
X0260062Y0126835D01*
X0259918Y0126900D01*
X0259776Y0126970D01*
X0259635Y0127042D01*
X0259496Y0127119D01*
X0259360Y0127198D01*
X0259225Y0127282D01*
X0259092Y0127368D01*
X0258962Y0127458D01*
X0258834Y0127551D01*
X0258708Y0127647D01*
X0258585Y0127747D01*
X0258464Y0127849D01*
X0258346Y0127954D01*
X0258231Y0128063D01*
X0258118Y0128174D01*
X0258008Y0128288D01*
X0257901Y0128405D01*
X0257797Y0128524D01*
X0257696Y0128646D01*
X0257599Y0128771D01*
X0257504Y0128898D01*
X0257413Y0129027D01*
X0257324Y0129158D01*
X0257240Y0129292D01*
X0257158Y0129428D01*
X0257080Y0129565D01*
X0257006Y0129705D01*
X0256935Y0129847D01*
X0256867Y0129990D01*
X0256803Y0130135D01*
X0256743Y0130281D01*
X0256687Y0130429D01*
X0256634Y0130578D01*
X0256585Y0130729D01*
X0256540Y0130881D01*
X0256499Y0131034D01*
X0256461Y0131187D01*
X0256428Y0131342D01*
X0256398Y0131498D01*
X0256372Y0131654D01*
X0256351Y0131811D01*
X0256333Y0131968D01*
X0256319Y0132126D01*
X0256309Y0132284D01*
X0256303Y0132442D01*
X0256301Y0132600D01*
X0286301Y0082600D02*
X0286303Y0082758D01*
X0286309Y0082916D01*
X0286319Y0083074D01*
X0286333Y0083232D01*
X0286351Y0083389D01*
X0286372Y0083546D01*
X0286398Y0083702D01*
X0286428Y0083858D01*
X0286461Y0084013D01*
X0286499Y0084166D01*
X0286540Y0084319D01*
X0286585Y0084471D01*
X0286634Y0084622D01*
X0286687Y0084771D01*
X0286743Y0084919D01*
X0286803Y0085065D01*
X0286867Y0085210D01*
X0286935Y0085353D01*
X0287006Y0085495D01*
X0287080Y0085635D01*
X0287158Y0085772D01*
X0287240Y0085908D01*
X0287324Y0086042D01*
X0287413Y0086173D01*
X0287504Y0086302D01*
X0287599Y0086429D01*
X0287696Y0086554D01*
X0287797Y0086676D01*
X0287901Y0086795D01*
X0288008Y0086912D01*
X0288118Y0087026D01*
X0288231Y0087137D01*
X0288346Y0087246D01*
X0288464Y0087351D01*
X0288585Y0087453D01*
X0288708Y0087553D01*
X0288834Y0087649D01*
X0288962Y0087742D01*
X0289092Y0087832D01*
X0289225Y0087918D01*
X0289360Y0088002D01*
X0289496Y0088081D01*
X0289635Y0088158D01*
X0289776Y0088230D01*
X0289918Y0088300D01*
X0290062Y0088365D01*
X0290208Y0088427D01*
X0290355Y0088485D01*
X0290504Y0088540D01*
X0290654Y0088591D01*
X0290805Y0088638D01*
X0290957Y0088681D01*
X0291110Y0088720D01*
X0291265Y0088756D01*
X0291420Y0088787D01*
X0291576Y0088815D01*
X0291732Y0088839D01*
X0291889Y0088859D01*
X0292047Y0088875D01*
X0292204Y0088887D01*
X0292363Y0088895D01*
X0292521Y0088899D01*
X0292679Y0088899D01*
X0292837Y0088895D01*
X0292996Y0088887D01*
X0293153Y0088875D01*
X0293311Y0088859D01*
X0293468Y0088839D01*
X0293624Y0088815D01*
X0293780Y0088787D01*
X0293935Y0088756D01*
X0294090Y0088720D01*
X0294243Y0088681D01*
X0294395Y0088638D01*
X0294546Y0088591D01*
X0294696Y0088540D01*
X0294845Y0088485D01*
X0294992Y0088427D01*
X0295138Y0088365D01*
X0295282Y0088300D01*
X0295424Y0088230D01*
X0295565Y0088158D01*
X0295704Y0088081D01*
X0295840Y0088002D01*
X0295975Y0087918D01*
X0296108Y0087832D01*
X0296238Y0087742D01*
X0296366Y0087649D01*
X0296492Y0087553D01*
X0296615Y0087453D01*
X0296736Y0087351D01*
X0296854Y0087246D01*
X0296969Y0087137D01*
X0297082Y0087026D01*
X0297192Y0086912D01*
X0297299Y0086795D01*
X0297403Y0086676D01*
X0297504Y0086554D01*
X0297601Y0086429D01*
X0297696Y0086302D01*
X0297787Y0086173D01*
X0297876Y0086042D01*
X0297960Y0085908D01*
X0298042Y0085772D01*
X0298120Y0085635D01*
X0298194Y0085495D01*
X0298265Y0085353D01*
X0298333Y0085210D01*
X0298397Y0085065D01*
X0298457Y0084919D01*
X0298513Y0084771D01*
X0298566Y0084622D01*
X0298615Y0084471D01*
X0298660Y0084319D01*
X0298701Y0084166D01*
X0298739Y0084013D01*
X0298772Y0083858D01*
X0298802Y0083702D01*
X0298828Y0083546D01*
X0298849Y0083389D01*
X0298867Y0083232D01*
X0298881Y0083074D01*
X0298891Y0082916D01*
X0298897Y0082758D01*
X0298899Y0082600D01*
X0298897Y0082442D01*
X0298891Y0082284D01*
X0298881Y0082126D01*
X0298867Y0081968D01*
X0298849Y0081811D01*
X0298828Y0081654D01*
X0298802Y0081498D01*
X0298772Y0081342D01*
X0298739Y0081187D01*
X0298701Y0081034D01*
X0298660Y0080881D01*
X0298615Y0080729D01*
X0298566Y0080578D01*
X0298513Y0080429D01*
X0298457Y0080281D01*
X0298397Y0080135D01*
X0298333Y0079990D01*
X0298265Y0079847D01*
X0298194Y0079705D01*
X0298120Y0079565D01*
X0298042Y0079428D01*
X0297960Y0079292D01*
X0297876Y0079158D01*
X0297787Y0079027D01*
X0297696Y0078898D01*
X0297601Y0078771D01*
X0297504Y0078646D01*
X0297403Y0078524D01*
X0297299Y0078405D01*
X0297192Y0078288D01*
X0297082Y0078174D01*
X0296969Y0078063D01*
X0296854Y0077954D01*
X0296736Y0077849D01*
X0296615Y0077747D01*
X0296492Y0077647D01*
X0296366Y0077551D01*
X0296238Y0077458D01*
X0296108Y0077368D01*
X0295975Y0077282D01*
X0295840Y0077198D01*
X0295704Y0077119D01*
X0295565Y0077042D01*
X0295424Y0076970D01*
X0295282Y0076900D01*
X0295138Y0076835D01*
X0294992Y0076773D01*
X0294845Y0076715D01*
X0294696Y0076660D01*
X0294546Y0076609D01*
X0294395Y0076562D01*
X0294243Y0076519D01*
X0294090Y0076480D01*
X0293935Y0076444D01*
X0293780Y0076413D01*
X0293624Y0076385D01*
X0293468Y0076361D01*
X0293311Y0076341D01*
X0293153Y0076325D01*
X0292996Y0076313D01*
X0292837Y0076305D01*
X0292679Y0076301D01*
X0292521Y0076301D01*
X0292363Y0076305D01*
X0292204Y0076313D01*
X0292047Y0076325D01*
X0291889Y0076341D01*
X0291732Y0076361D01*
X0291576Y0076385D01*
X0291420Y0076413D01*
X0291265Y0076444D01*
X0291110Y0076480D01*
X0290957Y0076519D01*
X0290805Y0076562D01*
X0290654Y0076609D01*
X0290504Y0076660D01*
X0290355Y0076715D01*
X0290208Y0076773D01*
X0290062Y0076835D01*
X0289918Y0076900D01*
X0289776Y0076970D01*
X0289635Y0077042D01*
X0289496Y0077119D01*
X0289360Y0077198D01*
X0289225Y0077282D01*
X0289092Y0077368D01*
X0288962Y0077458D01*
X0288834Y0077551D01*
X0288708Y0077647D01*
X0288585Y0077747D01*
X0288464Y0077849D01*
X0288346Y0077954D01*
X0288231Y0078063D01*
X0288118Y0078174D01*
X0288008Y0078288D01*
X0287901Y0078405D01*
X0287797Y0078524D01*
X0287696Y0078646D01*
X0287599Y0078771D01*
X0287504Y0078898D01*
X0287413Y0079027D01*
X0287324Y0079158D01*
X0287240Y0079292D01*
X0287158Y0079428D01*
X0287080Y0079565D01*
X0287006Y0079705D01*
X0286935Y0079847D01*
X0286867Y0079990D01*
X0286803Y0080135D01*
X0286743Y0080281D01*
X0286687Y0080429D01*
X0286634Y0080578D01*
X0286585Y0080729D01*
X0286540Y0080881D01*
X0286499Y0081034D01*
X0286461Y0081187D01*
X0286428Y0081342D01*
X0286398Y0081498D01*
X0286372Y0081654D01*
X0286351Y0081811D01*
X0286333Y0081968D01*
X0286319Y0082126D01*
X0286309Y0082284D01*
X0286303Y0082442D01*
X0286301Y0082600D01*
X0286301Y0027600D02*
X0286303Y0027758D01*
X0286309Y0027916D01*
X0286319Y0028074D01*
X0286333Y0028232D01*
X0286351Y0028389D01*
X0286372Y0028546D01*
X0286398Y0028702D01*
X0286428Y0028858D01*
X0286461Y0029013D01*
X0286499Y0029166D01*
X0286540Y0029319D01*
X0286585Y0029471D01*
X0286634Y0029622D01*
X0286687Y0029771D01*
X0286743Y0029919D01*
X0286803Y0030065D01*
X0286867Y0030210D01*
X0286935Y0030353D01*
X0287006Y0030495D01*
X0287080Y0030635D01*
X0287158Y0030772D01*
X0287240Y0030908D01*
X0287324Y0031042D01*
X0287413Y0031173D01*
X0287504Y0031302D01*
X0287599Y0031429D01*
X0287696Y0031554D01*
X0287797Y0031676D01*
X0287901Y0031795D01*
X0288008Y0031912D01*
X0288118Y0032026D01*
X0288231Y0032137D01*
X0288346Y0032246D01*
X0288464Y0032351D01*
X0288585Y0032453D01*
X0288708Y0032553D01*
X0288834Y0032649D01*
X0288962Y0032742D01*
X0289092Y0032832D01*
X0289225Y0032918D01*
X0289360Y0033002D01*
X0289496Y0033081D01*
X0289635Y0033158D01*
X0289776Y0033230D01*
X0289918Y0033300D01*
X0290062Y0033365D01*
X0290208Y0033427D01*
X0290355Y0033485D01*
X0290504Y0033540D01*
X0290654Y0033591D01*
X0290805Y0033638D01*
X0290957Y0033681D01*
X0291110Y0033720D01*
X0291265Y0033756D01*
X0291420Y0033787D01*
X0291576Y0033815D01*
X0291732Y0033839D01*
X0291889Y0033859D01*
X0292047Y0033875D01*
X0292204Y0033887D01*
X0292363Y0033895D01*
X0292521Y0033899D01*
X0292679Y0033899D01*
X0292837Y0033895D01*
X0292996Y0033887D01*
X0293153Y0033875D01*
X0293311Y0033859D01*
X0293468Y0033839D01*
X0293624Y0033815D01*
X0293780Y0033787D01*
X0293935Y0033756D01*
X0294090Y0033720D01*
X0294243Y0033681D01*
X0294395Y0033638D01*
X0294546Y0033591D01*
X0294696Y0033540D01*
X0294845Y0033485D01*
X0294992Y0033427D01*
X0295138Y0033365D01*
X0295282Y0033300D01*
X0295424Y0033230D01*
X0295565Y0033158D01*
X0295704Y0033081D01*
X0295840Y0033002D01*
X0295975Y0032918D01*
X0296108Y0032832D01*
X0296238Y0032742D01*
X0296366Y0032649D01*
X0296492Y0032553D01*
X0296615Y0032453D01*
X0296736Y0032351D01*
X0296854Y0032246D01*
X0296969Y0032137D01*
X0297082Y0032026D01*
X0297192Y0031912D01*
X0297299Y0031795D01*
X0297403Y0031676D01*
X0297504Y0031554D01*
X0297601Y0031429D01*
X0297696Y0031302D01*
X0297787Y0031173D01*
X0297876Y0031042D01*
X0297960Y0030908D01*
X0298042Y0030772D01*
X0298120Y0030635D01*
X0298194Y0030495D01*
X0298265Y0030353D01*
X0298333Y0030210D01*
X0298397Y0030065D01*
X0298457Y0029919D01*
X0298513Y0029771D01*
X0298566Y0029622D01*
X0298615Y0029471D01*
X0298660Y0029319D01*
X0298701Y0029166D01*
X0298739Y0029013D01*
X0298772Y0028858D01*
X0298802Y0028702D01*
X0298828Y0028546D01*
X0298849Y0028389D01*
X0298867Y0028232D01*
X0298881Y0028074D01*
X0298891Y0027916D01*
X0298897Y0027758D01*
X0298899Y0027600D01*
X0298897Y0027442D01*
X0298891Y0027284D01*
X0298881Y0027126D01*
X0298867Y0026968D01*
X0298849Y0026811D01*
X0298828Y0026654D01*
X0298802Y0026498D01*
X0298772Y0026342D01*
X0298739Y0026187D01*
X0298701Y0026034D01*
X0298660Y0025881D01*
X0298615Y0025729D01*
X0298566Y0025578D01*
X0298513Y0025429D01*
X0298457Y0025281D01*
X0298397Y0025135D01*
X0298333Y0024990D01*
X0298265Y0024847D01*
X0298194Y0024705D01*
X0298120Y0024565D01*
X0298042Y0024428D01*
X0297960Y0024292D01*
X0297876Y0024158D01*
X0297787Y0024027D01*
X0297696Y0023898D01*
X0297601Y0023771D01*
X0297504Y0023646D01*
X0297403Y0023524D01*
X0297299Y0023405D01*
X0297192Y0023288D01*
X0297082Y0023174D01*
X0296969Y0023063D01*
X0296854Y0022954D01*
X0296736Y0022849D01*
X0296615Y0022747D01*
X0296492Y0022647D01*
X0296366Y0022551D01*
X0296238Y0022458D01*
X0296108Y0022368D01*
X0295975Y0022282D01*
X0295840Y0022198D01*
X0295704Y0022119D01*
X0295565Y0022042D01*
X0295424Y0021970D01*
X0295282Y0021900D01*
X0295138Y0021835D01*
X0294992Y0021773D01*
X0294845Y0021715D01*
X0294696Y0021660D01*
X0294546Y0021609D01*
X0294395Y0021562D01*
X0294243Y0021519D01*
X0294090Y0021480D01*
X0293935Y0021444D01*
X0293780Y0021413D01*
X0293624Y0021385D01*
X0293468Y0021361D01*
X0293311Y0021341D01*
X0293153Y0021325D01*
X0292996Y0021313D01*
X0292837Y0021305D01*
X0292679Y0021301D01*
X0292521Y0021301D01*
X0292363Y0021305D01*
X0292204Y0021313D01*
X0292047Y0021325D01*
X0291889Y0021341D01*
X0291732Y0021361D01*
X0291576Y0021385D01*
X0291420Y0021413D01*
X0291265Y0021444D01*
X0291110Y0021480D01*
X0290957Y0021519D01*
X0290805Y0021562D01*
X0290654Y0021609D01*
X0290504Y0021660D01*
X0290355Y0021715D01*
X0290208Y0021773D01*
X0290062Y0021835D01*
X0289918Y0021900D01*
X0289776Y0021970D01*
X0289635Y0022042D01*
X0289496Y0022119D01*
X0289360Y0022198D01*
X0289225Y0022282D01*
X0289092Y0022368D01*
X0288962Y0022458D01*
X0288834Y0022551D01*
X0288708Y0022647D01*
X0288585Y0022747D01*
X0288464Y0022849D01*
X0288346Y0022954D01*
X0288231Y0023063D01*
X0288118Y0023174D01*
X0288008Y0023288D01*
X0287901Y0023405D01*
X0287797Y0023524D01*
X0287696Y0023646D01*
X0287599Y0023771D01*
X0287504Y0023898D01*
X0287413Y0024027D01*
X0287324Y0024158D01*
X0287240Y0024292D01*
X0287158Y0024428D01*
X0287080Y0024565D01*
X0287006Y0024705D01*
X0286935Y0024847D01*
X0286867Y0024990D01*
X0286803Y0025135D01*
X0286743Y0025281D01*
X0286687Y0025429D01*
X0286634Y0025578D01*
X0286585Y0025729D01*
X0286540Y0025881D01*
X0286499Y0026034D01*
X0286461Y0026187D01*
X0286428Y0026342D01*
X0286398Y0026498D01*
X0286372Y0026654D01*
X0286351Y0026811D01*
X0286333Y0026968D01*
X0286319Y0027126D01*
X0286309Y0027284D01*
X0286303Y0027442D01*
X0286301Y0027600D01*
X0256301Y0257600D02*
X0256303Y0257758D01*
X0256309Y0257916D01*
X0256319Y0258074D01*
X0256333Y0258232D01*
X0256351Y0258389D01*
X0256372Y0258546D01*
X0256398Y0258702D01*
X0256428Y0258858D01*
X0256461Y0259013D01*
X0256499Y0259166D01*
X0256540Y0259319D01*
X0256585Y0259471D01*
X0256634Y0259622D01*
X0256687Y0259771D01*
X0256743Y0259919D01*
X0256803Y0260065D01*
X0256867Y0260210D01*
X0256935Y0260353D01*
X0257006Y0260495D01*
X0257080Y0260635D01*
X0257158Y0260772D01*
X0257240Y0260908D01*
X0257324Y0261042D01*
X0257413Y0261173D01*
X0257504Y0261302D01*
X0257599Y0261429D01*
X0257696Y0261554D01*
X0257797Y0261676D01*
X0257901Y0261795D01*
X0258008Y0261912D01*
X0258118Y0262026D01*
X0258231Y0262137D01*
X0258346Y0262246D01*
X0258464Y0262351D01*
X0258585Y0262453D01*
X0258708Y0262553D01*
X0258834Y0262649D01*
X0258962Y0262742D01*
X0259092Y0262832D01*
X0259225Y0262918D01*
X0259360Y0263002D01*
X0259496Y0263081D01*
X0259635Y0263158D01*
X0259776Y0263230D01*
X0259918Y0263300D01*
X0260062Y0263365D01*
X0260208Y0263427D01*
X0260355Y0263485D01*
X0260504Y0263540D01*
X0260654Y0263591D01*
X0260805Y0263638D01*
X0260957Y0263681D01*
X0261110Y0263720D01*
X0261265Y0263756D01*
X0261420Y0263787D01*
X0261576Y0263815D01*
X0261732Y0263839D01*
X0261889Y0263859D01*
X0262047Y0263875D01*
X0262204Y0263887D01*
X0262363Y0263895D01*
X0262521Y0263899D01*
X0262679Y0263899D01*
X0262837Y0263895D01*
X0262996Y0263887D01*
X0263153Y0263875D01*
X0263311Y0263859D01*
X0263468Y0263839D01*
X0263624Y0263815D01*
X0263780Y0263787D01*
X0263935Y0263756D01*
X0264090Y0263720D01*
X0264243Y0263681D01*
X0264395Y0263638D01*
X0264546Y0263591D01*
X0264696Y0263540D01*
X0264845Y0263485D01*
X0264992Y0263427D01*
X0265138Y0263365D01*
X0265282Y0263300D01*
X0265424Y0263230D01*
X0265565Y0263158D01*
X0265704Y0263081D01*
X0265840Y0263002D01*
X0265975Y0262918D01*
X0266108Y0262832D01*
X0266238Y0262742D01*
X0266366Y0262649D01*
X0266492Y0262553D01*
X0266615Y0262453D01*
X0266736Y0262351D01*
X0266854Y0262246D01*
X0266969Y0262137D01*
X0267082Y0262026D01*
X0267192Y0261912D01*
X0267299Y0261795D01*
X0267403Y0261676D01*
X0267504Y0261554D01*
X0267601Y0261429D01*
X0267696Y0261302D01*
X0267787Y0261173D01*
X0267876Y0261042D01*
X0267960Y0260908D01*
X0268042Y0260772D01*
X0268120Y0260635D01*
X0268194Y0260495D01*
X0268265Y0260353D01*
X0268333Y0260210D01*
X0268397Y0260065D01*
X0268457Y0259919D01*
X0268513Y0259771D01*
X0268566Y0259622D01*
X0268615Y0259471D01*
X0268660Y0259319D01*
X0268701Y0259166D01*
X0268739Y0259013D01*
X0268772Y0258858D01*
X0268802Y0258702D01*
X0268828Y0258546D01*
X0268849Y0258389D01*
X0268867Y0258232D01*
X0268881Y0258074D01*
X0268891Y0257916D01*
X0268897Y0257758D01*
X0268899Y0257600D01*
X0268897Y0257442D01*
X0268891Y0257284D01*
X0268881Y0257126D01*
X0268867Y0256968D01*
X0268849Y0256811D01*
X0268828Y0256654D01*
X0268802Y0256498D01*
X0268772Y0256342D01*
X0268739Y0256187D01*
X0268701Y0256034D01*
X0268660Y0255881D01*
X0268615Y0255729D01*
X0268566Y0255578D01*
X0268513Y0255429D01*
X0268457Y0255281D01*
X0268397Y0255135D01*
X0268333Y0254990D01*
X0268265Y0254847D01*
X0268194Y0254705D01*
X0268120Y0254565D01*
X0268042Y0254428D01*
X0267960Y0254292D01*
X0267876Y0254158D01*
X0267787Y0254027D01*
X0267696Y0253898D01*
X0267601Y0253771D01*
X0267504Y0253646D01*
X0267403Y0253524D01*
X0267299Y0253405D01*
X0267192Y0253288D01*
X0267082Y0253174D01*
X0266969Y0253063D01*
X0266854Y0252954D01*
X0266736Y0252849D01*
X0266615Y0252747D01*
X0266492Y0252647D01*
X0266366Y0252551D01*
X0266238Y0252458D01*
X0266108Y0252368D01*
X0265975Y0252282D01*
X0265840Y0252198D01*
X0265704Y0252119D01*
X0265565Y0252042D01*
X0265424Y0251970D01*
X0265282Y0251900D01*
X0265138Y0251835D01*
X0264992Y0251773D01*
X0264845Y0251715D01*
X0264696Y0251660D01*
X0264546Y0251609D01*
X0264395Y0251562D01*
X0264243Y0251519D01*
X0264090Y0251480D01*
X0263935Y0251444D01*
X0263780Y0251413D01*
X0263624Y0251385D01*
X0263468Y0251361D01*
X0263311Y0251341D01*
X0263153Y0251325D01*
X0262996Y0251313D01*
X0262837Y0251305D01*
X0262679Y0251301D01*
X0262521Y0251301D01*
X0262363Y0251305D01*
X0262204Y0251313D01*
X0262047Y0251325D01*
X0261889Y0251341D01*
X0261732Y0251361D01*
X0261576Y0251385D01*
X0261420Y0251413D01*
X0261265Y0251444D01*
X0261110Y0251480D01*
X0260957Y0251519D01*
X0260805Y0251562D01*
X0260654Y0251609D01*
X0260504Y0251660D01*
X0260355Y0251715D01*
X0260208Y0251773D01*
X0260062Y0251835D01*
X0259918Y0251900D01*
X0259776Y0251970D01*
X0259635Y0252042D01*
X0259496Y0252119D01*
X0259360Y0252198D01*
X0259225Y0252282D01*
X0259092Y0252368D01*
X0258962Y0252458D01*
X0258834Y0252551D01*
X0258708Y0252647D01*
X0258585Y0252747D01*
X0258464Y0252849D01*
X0258346Y0252954D01*
X0258231Y0253063D01*
X0258118Y0253174D01*
X0258008Y0253288D01*
X0257901Y0253405D01*
X0257797Y0253524D01*
X0257696Y0253646D01*
X0257599Y0253771D01*
X0257504Y0253898D01*
X0257413Y0254027D01*
X0257324Y0254158D01*
X0257240Y0254292D01*
X0257158Y0254428D01*
X0257080Y0254565D01*
X0257006Y0254705D01*
X0256935Y0254847D01*
X0256867Y0254990D01*
X0256803Y0255135D01*
X0256743Y0255281D01*
X0256687Y0255429D01*
X0256634Y0255578D01*
X0256585Y0255729D01*
X0256540Y0255881D01*
X0256499Y0256034D01*
X0256461Y0256187D01*
X0256428Y0256342D01*
X0256398Y0256498D01*
X0256372Y0256654D01*
X0256351Y0256811D01*
X0256333Y0256968D01*
X0256319Y0257126D01*
X0256309Y0257284D01*
X0256303Y0257442D01*
X0256301Y0257600D01*
X0311301Y0292600D02*
X0311303Y0292758D01*
X0311309Y0292916D01*
X0311319Y0293074D01*
X0311333Y0293232D01*
X0311351Y0293389D01*
X0311372Y0293546D01*
X0311398Y0293702D01*
X0311428Y0293858D01*
X0311461Y0294013D01*
X0311499Y0294166D01*
X0311540Y0294319D01*
X0311585Y0294471D01*
X0311634Y0294622D01*
X0311687Y0294771D01*
X0311743Y0294919D01*
X0311803Y0295065D01*
X0311867Y0295210D01*
X0311935Y0295353D01*
X0312006Y0295495D01*
X0312080Y0295635D01*
X0312158Y0295772D01*
X0312240Y0295908D01*
X0312324Y0296042D01*
X0312413Y0296173D01*
X0312504Y0296302D01*
X0312599Y0296429D01*
X0312696Y0296554D01*
X0312797Y0296676D01*
X0312901Y0296795D01*
X0313008Y0296912D01*
X0313118Y0297026D01*
X0313231Y0297137D01*
X0313346Y0297246D01*
X0313464Y0297351D01*
X0313585Y0297453D01*
X0313708Y0297553D01*
X0313834Y0297649D01*
X0313962Y0297742D01*
X0314092Y0297832D01*
X0314225Y0297918D01*
X0314360Y0298002D01*
X0314496Y0298081D01*
X0314635Y0298158D01*
X0314776Y0298230D01*
X0314918Y0298300D01*
X0315062Y0298365D01*
X0315208Y0298427D01*
X0315355Y0298485D01*
X0315504Y0298540D01*
X0315654Y0298591D01*
X0315805Y0298638D01*
X0315957Y0298681D01*
X0316110Y0298720D01*
X0316265Y0298756D01*
X0316420Y0298787D01*
X0316576Y0298815D01*
X0316732Y0298839D01*
X0316889Y0298859D01*
X0317047Y0298875D01*
X0317204Y0298887D01*
X0317363Y0298895D01*
X0317521Y0298899D01*
X0317679Y0298899D01*
X0317837Y0298895D01*
X0317996Y0298887D01*
X0318153Y0298875D01*
X0318311Y0298859D01*
X0318468Y0298839D01*
X0318624Y0298815D01*
X0318780Y0298787D01*
X0318935Y0298756D01*
X0319090Y0298720D01*
X0319243Y0298681D01*
X0319395Y0298638D01*
X0319546Y0298591D01*
X0319696Y0298540D01*
X0319845Y0298485D01*
X0319992Y0298427D01*
X0320138Y0298365D01*
X0320282Y0298300D01*
X0320424Y0298230D01*
X0320565Y0298158D01*
X0320704Y0298081D01*
X0320840Y0298002D01*
X0320975Y0297918D01*
X0321108Y0297832D01*
X0321238Y0297742D01*
X0321366Y0297649D01*
X0321492Y0297553D01*
X0321615Y0297453D01*
X0321736Y0297351D01*
X0321854Y0297246D01*
X0321969Y0297137D01*
X0322082Y0297026D01*
X0322192Y0296912D01*
X0322299Y0296795D01*
X0322403Y0296676D01*
X0322504Y0296554D01*
X0322601Y0296429D01*
X0322696Y0296302D01*
X0322787Y0296173D01*
X0322876Y0296042D01*
X0322960Y0295908D01*
X0323042Y0295772D01*
X0323120Y0295635D01*
X0323194Y0295495D01*
X0323265Y0295353D01*
X0323333Y0295210D01*
X0323397Y0295065D01*
X0323457Y0294919D01*
X0323513Y0294771D01*
X0323566Y0294622D01*
X0323615Y0294471D01*
X0323660Y0294319D01*
X0323701Y0294166D01*
X0323739Y0294013D01*
X0323772Y0293858D01*
X0323802Y0293702D01*
X0323828Y0293546D01*
X0323849Y0293389D01*
X0323867Y0293232D01*
X0323881Y0293074D01*
X0323891Y0292916D01*
X0323897Y0292758D01*
X0323899Y0292600D01*
X0323897Y0292442D01*
X0323891Y0292284D01*
X0323881Y0292126D01*
X0323867Y0291968D01*
X0323849Y0291811D01*
X0323828Y0291654D01*
X0323802Y0291498D01*
X0323772Y0291342D01*
X0323739Y0291187D01*
X0323701Y0291034D01*
X0323660Y0290881D01*
X0323615Y0290729D01*
X0323566Y0290578D01*
X0323513Y0290429D01*
X0323457Y0290281D01*
X0323397Y0290135D01*
X0323333Y0289990D01*
X0323265Y0289847D01*
X0323194Y0289705D01*
X0323120Y0289565D01*
X0323042Y0289428D01*
X0322960Y0289292D01*
X0322876Y0289158D01*
X0322787Y0289027D01*
X0322696Y0288898D01*
X0322601Y0288771D01*
X0322504Y0288646D01*
X0322403Y0288524D01*
X0322299Y0288405D01*
X0322192Y0288288D01*
X0322082Y0288174D01*
X0321969Y0288063D01*
X0321854Y0287954D01*
X0321736Y0287849D01*
X0321615Y0287747D01*
X0321492Y0287647D01*
X0321366Y0287551D01*
X0321238Y0287458D01*
X0321108Y0287368D01*
X0320975Y0287282D01*
X0320840Y0287198D01*
X0320704Y0287119D01*
X0320565Y0287042D01*
X0320424Y0286970D01*
X0320282Y0286900D01*
X0320138Y0286835D01*
X0319992Y0286773D01*
X0319845Y0286715D01*
X0319696Y0286660D01*
X0319546Y0286609D01*
X0319395Y0286562D01*
X0319243Y0286519D01*
X0319090Y0286480D01*
X0318935Y0286444D01*
X0318780Y0286413D01*
X0318624Y0286385D01*
X0318468Y0286361D01*
X0318311Y0286341D01*
X0318153Y0286325D01*
X0317996Y0286313D01*
X0317837Y0286305D01*
X0317679Y0286301D01*
X0317521Y0286301D01*
X0317363Y0286305D01*
X0317204Y0286313D01*
X0317047Y0286325D01*
X0316889Y0286341D01*
X0316732Y0286361D01*
X0316576Y0286385D01*
X0316420Y0286413D01*
X0316265Y0286444D01*
X0316110Y0286480D01*
X0315957Y0286519D01*
X0315805Y0286562D01*
X0315654Y0286609D01*
X0315504Y0286660D01*
X0315355Y0286715D01*
X0315208Y0286773D01*
X0315062Y0286835D01*
X0314918Y0286900D01*
X0314776Y0286970D01*
X0314635Y0287042D01*
X0314496Y0287119D01*
X0314360Y0287198D01*
X0314225Y0287282D01*
X0314092Y0287368D01*
X0313962Y0287458D01*
X0313834Y0287551D01*
X0313708Y0287647D01*
X0313585Y0287747D01*
X0313464Y0287849D01*
X0313346Y0287954D01*
X0313231Y0288063D01*
X0313118Y0288174D01*
X0313008Y0288288D01*
X0312901Y0288405D01*
X0312797Y0288524D01*
X0312696Y0288646D01*
X0312599Y0288771D01*
X0312504Y0288898D01*
X0312413Y0289027D01*
X0312324Y0289158D01*
X0312240Y0289292D01*
X0312158Y0289428D01*
X0312080Y0289565D01*
X0312006Y0289705D01*
X0311935Y0289847D01*
X0311867Y0289990D01*
X0311803Y0290135D01*
X0311743Y0290281D01*
X0311687Y0290429D01*
X0311634Y0290578D01*
X0311585Y0290729D01*
X0311540Y0290881D01*
X0311499Y0291034D01*
X0311461Y0291187D01*
X0311428Y0291342D01*
X0311398Y0291498D01*
X0311372Y0291654D01*
X0311351Y0291811D01*
X0311333Y0291968D01*
X0311319Y0292126D01*
X0311309Y0292284D01*
X0311303Y0292442D01*
X0311301Y0292600D01*
X0366301Y0292600D02*
X0366303Y0292758D01*
X0366309Y0292916D01*
X0366319Y0293074D01*
X0366333Y0293232D01*
X0366351Y0293389D01*
X0366372Y0293546D01*
X0366398Y0293702D01*
X0366428Y0293858D01*
X0366461Y0294013D01*
X0366499Y0294166D01*
X0366540Y0294319D01*
X0366585Y0294471D01*
X0366634Y0294622D01*
X0366687Y0294771D01*
X0366743Y0294919D01*
X0366803Y0295065D01*
X0366867Y0295210D01*
X0366935Y0295353D01*
X0367006Y0295495D01*
X0367080Y0295635D01*
X0367158Y0295772D01*
X0367240Y0295908D01*
X0367324Y0296042D01*
X0367413Y0296173D01*
X0367504Y0296302D01*
X0367599Y0296429D01*
X0367696Y0296554D01*
X0367797Y0296676D01*
X0367901Y0296795D01*
X0368008Y0296912D01*
X0368118Y0297026D01*
X0368231Y0297137D01*
X0368346Y0297246D01*
X0368464Y0297351D01*
X0368585Y0297453D01*
X0368708Y0297553D01*
X0368834Y0297649D01*
X0368962Y0297742D01*
X0369092Y0297832D01*
X0369225Y0297918D01*
X0369360Y0298002D01*
X0369496Y0298081D01*
X0369635Y0298158D01*
X0369776Y0298230D01*
X0369918Y0298300D01*
X0370062Y0298365D01*
X0370208Y0298427D01*
X0370355Y0298485D01*
X0370504Y0298540D01*
X0370654Y0298591D01*
X0370805Y0298638D01*
X0370957Y0298681D01*
X0371110Y0298720D01*
X0371265Y0298756D01*
X0371420Y0298787D01*
X0371576Y0298815D01*
X0371732Y0298839D01*
X0371889Y0298859D01*
X0372047Y0298875D01*
X0372204Y0298887D01*
X0372363Y0298895D01*
X0372521Y0298899D01*
X0372679Y0298899D01*
X0372837Y0298895D01*
X0372996Y0298887D01*
X0373153Y0298875D01*
X0373311Y0298859D01*
X0373468Y0298839D01*
X0373624Y0298815D01*
X0373780Y0298787D01*
X0373935Y0298756D01*
X0374090Y0298720D01*
X0374243Y0298681D01*
X0374395Y0298638D01*
X0374546Y0298591D01*
X0374696Y0298540D01*
X0374845Y0298485D01*
X0374992Y0298427D01*
X0375138Y0298365D01*
X0375282Y0298300D01*
X0375424Y0298230D01*
X0375565Y0298158D01*
X0375704Y0298081D01*
X0375840Y0298002D01*
X0375975Y0297918D01*
X0376108Y0297832D01*
X0376238Y0297742D01*
X0376366Y0297649D01*
X0376492Y0297553D01*
X0376615Y0297453D01*
X0376736Y0297351D01*
X0376854Y0297246D01*
X0376969Y0297137D01*
X0377082Y0297026D01*
X0377192Y0296912D01*
X0377299Y0296795D01*
X0377403Y0296676D01*
X0377504Y0296554D01*
X0377601Y0296429D01*
X0377696Y0296302D01*
X0377787Y0296173D01*
X0377876Y0296042D01*
X0377960Y0295908D01*
X0378042Y0295772D01*
X0378120Y0295635D01*
X0378194Y0295495D01*
X0378265Y0295353D01*
X0378333Y0295210D01*
X0378397Y0295065D01*
X0378457Y0294919D01*
X0378513Y0294771D01*
X0378566Y0294622D01*
X0378615Y0294471D01*
X0378660Y0294319D01*
X0378701Y0294166D01*
X0378739Y0294013D01*
X0378772Y0293858D01*
X0378802Y0293702D01*
X0378828Y0293546D01*
X0378849Y0293389D01*
X0378867Y0293232D01*
X0378881Y0293074D01*
X0378891Y0292916D01*
X0378897Y0292758D01*
X0378899Y0292600D01*
X0378897Y0292442D01*
X0378891Y0292284D01*
X0378881Y0292126D01*
X0378867Y0291968D01*
X0378849Y0291811D01*
X0378828Y0291654D01*
X0378802Y0291498D01*
X0378772Y0291342D01*
X0378739Y0291187D01*
X0378701Y0291034D01*
X0378660Y0290881D01*
X0378615Y0290729D01*
X0378566Y0290578D01*
X0378513Y0290429D01*
X0378457Y0290281D01*
X0378397Y0290135D01*
X0378333Y0289990D01*
X0378265Y0289847D01*
X0378194Y0289705D01*
X0378120Y0289565D01*
X0378042Y0289428D01*
X0377960Y0289292D01*
X0377876Y0289158D01*
X0377787Y0289027D01*
X0377696Y0288898D01*
X0377601Y0288771D01*
X0377504Y0288646D01*
X0377403Y0288524D01*
X0377299Y0288405D01*
X0377192Y0288288D01*
X0377082Y0288174D01*
X0376969Y0288063D01*
X0376854Y0287954D01*
X0376736Y0287849D01*
X0376615Y0287747D01*
X0376492Y0287647D01*
X0376366Y0287551D01*
X0376238Y0287458D01*
X0376108Y0287368D01*
X0375975Y0287282D01*
X0375840Y0287198D01*
X0375704Y0287119D01*
X0375565Y0287042D01*
X0375424Y0286970D01*
X0375282Y0286900D01*
X0375138Y0286835D01*
X0374992Y0286773D01*
X0374845Y0286715D01*
X0374696Y0286660D01*
X0374546Y0286609D01*
X0374395Y0286562D01*
X0374243Y0286519D01*
X0374090Y0286480D01*
X0373935Y0286444D01*
X0373780Y0286413D01*
X0373624Y0286385D01*
X0373468Y0286361D01*
X0373311Y0286341D01*
X0373153Y0286325D01*
X0372996Y0286313D01*
X0372837Y0286305D01*
X0372679Y0286301D01*
X0372521Y0286301D01*
X0372363Y0286305D01*
X0372204Y0286313D01*
X0372047Y0286325D01*
X0371889Y0286341D01*
X0371732Y0286361D01*
X0371576Y0286385D01*
X0371420Y0286413D01*
X0371265Y0286444D01*
X0371110Y0286480D01*
X0370957Y0286519D01*
X0370805Y0286562D01*
X0370654Y0286609D01*
X0370504Y0286660D01*
X0370355Y0286715D01*
X0370208Y0286773D01*
X0370062Y0286835D01*
X0369918Y0286900D01*
X0369776Y0286970D01*
X0369635Y0287042D01*
X0369496Y0287119D01*
X0369360Y0287198D01*
X0369225Y0287282D01*
X0369092Y0287368D01*
X0368962Y0287458D01*
X0368834Y0287551D01*
X0368708Y0287647D01*
X0368585Y0287747D01*
X0368464Y0287849D01*
X0368346Y0287954D01*
X0368231Y0288063D01*
X0368118Y0288174D01*
X0368008Y0288288D01*
X0367901Y0288405D01*
X0367797Y0288524D01*
X0367696Y0288646D01*
X0367599Y0288771D01*
X0367504Y0288898D01*
X0367413Y0289027D01*
X0367324Y0289158D01*
X0367240Y0289292D01*
X0367158Y0289428D01*
X0367080Y0289565D01*
X0367006Y0289705D01*
X0366935Y0289847D01*
X0366867Y0289990D01*
X0366803Y0290135D01*
X0366743Y0290281D01*
X0366687Y0290429D01*
X0366634Y0290578D01*
X0366585Y0290729D01*
X0366540Y0290881D01*
X0366499Y0291034D01*
X0366461Y0291187D01*
X0366428Y0291342D01*
X0366398Y0291498D01*
X0366372Y0291654D01*
X0366351Y0291811D01*
X0366333Y0291968D01*
X0366319Y0292126D01*
X0366309Y0292284D01*
X0366303Y0292442D01*
X0366301Y0292600D01*
X0021301Y0292600D02*
X0021303Y0292758D01*
X0021309Y0292916D01*
X0021319Y0293074D01*
X0021333Y0293232D01*
X0021351Y0293389D01*
X0021372Y0293546D01*
X0021398Y0293702D01*
X0021428Y0293858D01*
X0021461Y0294013D01*
X0021499Y0294166D01*
X0021540Y0294319D01*
X0021585Y0294471D01*
X0021634Y0294622D01*
X0021687Y0294771D01*
X0021743Y0294919D01*
X0021803Y0295065D01*
X0021867Y0295210D01*
X0021935Y0295353D01*
X0022006Y0295495D01*
X0022080Y0295635D01*
X0022158Y0295772D01*
X0022240Y0295908D01*
X0022324Y0296042D01*
X0022413Y0296173D01*
X0022504Y0296302D01*
X0022599Y0296429D01*
X0022696Y0296554D01*
X0022797Y0296676D01*
X0022901Y0296795D01*
X0023008Y0296912D01*
X0023118Y0297026D01*
X0023231Y0297137D01*
X0023346Y0297246D01*
X0023464Y0297351D01*
X0023585Y0297453D01*
X0023708Y0297553D01*
X0023834Y0297649D01*
X0023962Y0297742D01*
X0024092Y0297832D01*
X0024225Y0297918D01*
X0024360Y0298002D01*
X0024496Y0298081D01*
X0024635Y0298158D01*
X0024776Y0298230D01*
X0024918Y0298300D01*
X0025062Y0298365D01*
X0025208Y0298427D01*
X0025355Y0298485D01*
X0025504Y0298540D01*
X0025654Y0298591D01*
X0025805Y0298638D01*
X0025957Y0298681D01*
X0026110Y0298720D01*
X0026265Y0298756D01*
X0026420Y0298787D01*
X0026576Y0298815D01*
X0026732Y0298839D01*
X0026889Y0298859D01*
X0027047Y0298875D01*
X0027204Y0298887D01*
X0027363Y0298895D01*
X0027521Y0298899D01*
X0027679Y0298899D01*
X0027837Y0298895D01*
X0027996Y0298887D01*
X0028153Y0298875D01*
X0028311Y0298859D01*
X0028468Y0298839D01*
X0028624Y0298815D01*
X0028780Y0298787D01*
X0028935Y0298756D01*
X0029090Y0298720D01*
X0029243Y0298681D01*
X0029395Y0298638D01*
X0029546Y0298591D01*
X0029696Y0298540D01*
X0029845Y0298485D01*
X0029992Y0298427D01*
X0030138Y0298365D01*
X0030282Y0298300D01*
X0030424Y0298230D01*
X0030565Y0298158D01*
X0030704Y0298081D01*
X0030840Y0298002D01*
X0030975Y0297918D01*
X0031108Y0297832D01*
X0031238Y0297742D01*
X0031366Y0297649D01*
X0031492Y0297553D01*
X0031615Y0297453D01*
X0031736Y0297351D01*
X0031854Y0297246D01*
X0031969Y0297137D01*
X0032082Y0297026D01*
X0032192Y0296912D01*
X0032299Y0296795D01*
X0032403Y0296676D01*
X0032504Y0296554D01*
X0032601Y0296429D01*
X0032696Y0296302D01*
X0032787Y0296173D01*
X0032876Y0296042D01*
X0032960Y0295908D01*
X0033042Y0295772D01*
X0033120Y0295635D01*
X0033194Y0295495D01*
X0033265Y0295353D01*
X0033333Y0295210D01*
X0033397Y0295065D01*
X0033457Y0294919D01*
X0033513Y0294771D01*
X0033566Y0294622D01*
X0033615Y0294471D01*
X0033660Y0294319D01*
X0033701Y0294166D01*
X0033739Y0294013D01*
X0033772Y0293858D01*
X0033802Y0293702D01*
X0033828Y0293546D01*
X0033849Y0293389D01*
X0033867Y0293232D01*
X0033881Y0293074D01*
X0033891Y0292916D01*
X0033897Y0292758D01*
X0033899Y0292600D01*
X0033897Y0292442D01*
X0033891Y0292284D01*
X0033881Y0292126D01*
X0033867Y0291968D01*
X0033849Y0291811D01*
X0033828Y0291654D01*
X0033802Y0291498D01*
X0033772Y0291342D01*
X0033739Y0291187D01*
X0033701Y0291034D01*
X0033660Y0290881D01*
X0033615Y0290729D01*
X0033566Y0290578D01*
X0033513Y0290429D01*
X0033457Y0290281D01*
X0033397Y0290135D01*
X0033333Y0289990D01*
X0033265Y0289847D01*
X0033194Y0289705D01*
X0033120Y0289565D01*
X0033042Y0289428D01*
X0032960Y0289292D01*
X0032876Y0289158D01*
X0032787Y0289027D01*
X0032696Y0288898D01*
X0032601Y0288771D01*
X0032504Y0288646D01*
X0032403Y0288524D01*
X0032299Y0288405D01*
X0032192Y0288288D01*
X0032082Y0288174D01*
X0031969Y0288063D01*
X0031854Y0287954D01*
X0031736Y0287849D01*
X0031615Y0287747D01*
X0031492Y0287647D01*
X0031366Y0287551D01*
X0031238Y0287458D01*
X0031108Y0287368D01*
X0030975Y0287282D01*
X0030840Y0287198D01*
X0030704Y0287119D01*
X0030565Y0287042D01*
X0030424Y0286970D01*
X0030282Y0286900D01*
X0030138Y0286835D01*
X0029992Y0286773D01*
X0029845Y0286715D01*
X0029696Y0286660D01*
X0029546Y0286609D01*
X0029395Y0286562D01*
X0029243Y0286519D01*
X0029090Y0286480D01*
X0028935Y0286444D01*
X0028780Y0286413D01*
X0028624Y0286385D01*
X0028468Y0286361D01*
X0028311Y0286341D01*
X0028153Y0286325D01*
X0027996Y0286313D01*
X0027837Y0286305D01*
X0027679Y0286301D01*
X0027521Y0286301D01*
X0027363Y0286305D01*
X0027204Y0286313D01*
X0027047Y0286325D01*
X0026889Y0286341D01*
X0026732Y0286361D01*
X0026576Y0286385D01*
X0026420Y0286413D01*
X0026265Y0286444D01*
X0026110Y0286480D01*
X0025957Y0286519D01*
X0025805Y0286562D01*
X0025654Y0286609D01*
X0025504Y0286660D01*
X0025355Y0286715D01*
X0025208Y0286773D01*
X0025062Y0286835D01*
X0024918Y0286900D01*
X0024776Y0286970D01*
X0024635Y0287042D01*
X0024496Y0287119D01*
X0024360Y0287198D01*
X0024225Y0287282D01*
X0024092Y0287368D01*
X0023962Y0287458D01*
X0023834Y0287551D01*
X0023708Y0287647D01*
X0023585Y0287747D01*
X0023464Y0287849D01*
X0023346Y0287954D01*
X0023231Y0288063D01*
X0023118Y0288174D01*
X0023008Y0288288D01*
X0022901Y0288405D01*
X0022797Y0288524D01*
X0022696Y0288646D01*
X0022599Y0288771D01*
X0022504Y0288898D01*
X0022413Y0289027D01*
X0022324Y0289158D01*
X0022240Y0289292D01*
X0022158Y0289428D01*
X0022080Y0289565D01*
X0022006Y0289705D01*
X0021935Y0289847D01*
X0021867Y0289990D01*
X0021803Y0290135D01*
X0021743Y0290281D01*
X0021687Y0290429D01*
X0021634Y0290578D01*
X0021585Y0290729D01*
X0021540Y0290881D01*
X0021499Y0291034D01*
X0021461Y0291187D01*
X0021428Y0291342D01*
X0021398Y0291498D01*
X0021372Y0291654D01*
X0021351Y0291811D01*
X0021333Y0291968D01*
X0021319Y0292126D01*
X0021309Y0292284D01*
X0021303Y0292442D01*
X0021301Y0292600D01*
D11*
X0067600Y0307600D03*
X0267600Y0202600D03*
D12*
X0247600Y0202600D03*
X0247600Y0222600D03*
X0267600Y0222600D03*
X0252600Y0182600D03*
X0232600Y0182600D03*
X0107600Y0287600D03*
X0087600Y0287600D03*
X0067600Y0287600D03*
X0087600Y0307600D03*
X0107600Y0307600D03*
D13*
X0127600Y0207600D03*
X0167600Y0207600D03*
X0177600Y0207600D03*
X0217600Y0207600D03*
X0057600Y0192600D03*
X0017600Y0192600D03*
D14*
X0067400Y0247600D02*
X0072600Y0247600D01*
X0072600Y0257600D02*
X0067400Y0257600D01*
X0052600Y0275000D02*
X0052600Y0280200D01*
X0052600Y0305000D02*
X0052600Y0310200D01*
X0102600Y0257600D02*
X0107800Y0257600D01*
X0107800Y0247600D02*
X0102600Y0247600D01*
X0212600Y0237600D02*
X0212600Y0232400D01*
X0222600Y0232400D02*
X0222600Y0237600D01*
X0222600Y0267600D02*
X0222600Y0272800D01*
X0212600Y0272800D02*
X0212600Y0267600D01*
X0267600Y0190200D02*
X0267600Y0185000D01*
X0267600Y0160200D02*
X0267600Y0155000D01*
D15*
X0220600Y0142600D02*
X0214600Y0142600D01*
X0214600Y0132600D02*
X0220600Y0132600D01*
X0220600Y0122600D02*
X0214600Y0122600D01*
X0185600Y0122600D02*
X0179600Y0122600D01*
X0179600Y0132600D02*
X0185600Y0132600D01*
X0185600Y0142600D02*
X0179600Y0142600D01*
X0120600Y0092600D02*
X0114600Y0092600D01*
X0114600Y0082600D02*
X0120600Y0082600D01*
X0120600Y0072600D02*
X0114600Y0072600D01*
X0092600Y0079600D02*
X0092600Y0085600D01*
X0082600Y0085600D02*
X0082600Y0079600D01*
X0072600Y0079600D02*
X0072600Y0085600D01*
X0067600Y0119600D02*
X0067600Y0125600D01*
X0057600Y0125600D02*
X0057600Y0119600D01*
X0047600Y0119600D02*
X0047600Y0125600D01*
X0037600Y0125600D02*
X0037600Y0119600D01*
X0027600Y0119600D02*
X0027600Y0125600D01*
X0017600Y0125600D02*
X0017600Y0119600D01*
X0014600Y0142600D02*
X0020600Y0142600D01*
X0020600Y0152600D02*
X0014600Y0152600D01*
X0014600Y0162600D02*
X0020600Y0162600D01*
X0020600Y0172600D02*
X0014600Y0172600D01*
X0017600Y0209600D02*
X0017600Y0215600D01*
X0027600Y0215600D02*
X0027600Y0209600D01*
X0037600Y0209600D02*
X0037600Y0215600D01*
X0047600Y0215600D02*
X0047600Y0209600D01*
X0057600Y0209600D02*
X0057600Y0215600D01*
X0067600Y0215600D02*
X0067600Y0209600D01*
X0077600Y0209600D02*
X0077600Y0215600D01*
X0087600Y0215600D02*
X0087600Y0209600D01*
X0020600Y0252600D02*
X0014600Y0252600D01*
X0014600Y0262600D02*
X0020600Y0262600D01*
X0127600Y0304600D02*
X0127600Y0310600D01*
X0137600Y0310600D02*
X0137600Y0304600D01*
X0159600Y0307600D02*
X0165600Y0307600D01*
X0165600Y0297600D02*
X0159600Y0297600D01*
X0159600Y0287600D02*
X0165600Y0287600D01*
X0194600Y0287600D02*
X0200600Y0287600D01*
X0200600Y0297600D02*
X0194600Y0297600D01*
X0194600Y0307600D02*
X0200600Y0307600D01*
X0229600Y0307600D02*
X0235600Y0307600D01*
X0235600Y0297600D02*
X0229600Y0297600D01*
X0229600Y0287600D02*
X0235600Y0287600D01*
X0264600Y0287600D02*
X0270600Y0287600D01*
X0270600Y0297600D02*
X0264600Y0297600D01*
X0264600Y0307600D02*
X0270600Y0307600D01*
X0314600Y0242600D02*
X0320600Y0242600D01*
X0320600Y0232600D02*
X0314600Y0232600D01*
X0314600Y0222600D02*
X0320600Y0222600D01*
X0317600Y0200600D02*
X0317600Y0194600D01*
X0327600Y0194600D02*
X0327600Y0200600D01*
X0307600Y0200600D02*
X0307600Y0194600D01*
X0362600Y0194600D02*
X0362600Y0200600D01*
X0372600Y0200600D02*
X0372600Y0194600D01*
X0382600Y0194600D02*
X0382600Y0200600D01*
X0375600Y0222600D02*
X0369600Y0222600D01*
X0369600Y0232600D02*
X0375600Y0232600D01*
X0375600Y0242600D02*
X0369600Y0242600D01*
X0379600Y0092600D02*
X0385600Y0092600D01*
X0385600Y0082600D02*
X0379600Y0082600D01*
X0379600Y0072600D02*
X0385600Y0072600D01*
X0357600Y0079600D02*
X0357600Y0085600D01*
X0347600Y0085600D02*
X0347600Y0079600D01*
X0337600Y0079600D02*
X0337600Y0085600D01*
X0379600Y0037600D02*
X0385600Y0037600D01*
X0385600Y0027600D02*
X0379600Y0027600D01*
X0379600Y0017600D02*
X0385600Y0017600D01*
X0357600Y0024600D02*
X0357600Y0030600D01*
X0347600Y0030600D02*
X0347600Y0024600D01*
X0337600Y0024600D02*
X0337600Y0030600D01*
X0255600Y0027600D02*
X0249600Y0027600D01*
X0249600Y0017600D02*
X0255600Y0017600D01*
X0255600Y0037600D02*
X0249600Y0037600D01*
X0227600Y0030600D02*
X0227600Y0024600D01*
X0217600Y0024600D02*
X0217600Y0030600D01*
X0207600Y0030600D02*
X0207600Y0024600D01*
X0249600Y0072600D02*
X0255600Y0072600D01*
X0255600Y0082600D02*
X0249600Y0082600D01*
X0249600Y0092600D02*
X0255600Y0092600D01*
X0227600Y0085600D02*
X0227600Y0079600D01*
X0217600Y0079600D02*
X0217600Y0085600D01*
X0207600Y0085600D02*
X0207600Y0079600D01*
X0120600Y0037600D02*
X0114600Y0037600D01*
X0114600Y0027600D02*
X0120600Y0027600D01*
X0120600Y0017600D02*
X0114600Y0017600D01*
X0092600Y0024600D02*
X0092600Y0030600D01*
X0082600Y0030600D02*
X0082600Y0024600D01*
X0072600Y0024600D02*
X0072600Y0030600D01*
X0077600Y0119600D02*
X0077600Y0125600D01*
X0087600Y0125600D02*
X0087600Y0119600D01*
D16*
X0130025Y0222600D02*
X0135175Y0222600D01*
X0150025Y0222600D02*
X0155175Y0222600D01*
X0170025Y0222600D02*
X0175175Y0222600D01*
X0190025Y0222600D02*
X0195175Y0222600D01*
X0195175Y0242600D02*
X0190025Y0242600D01*
X0190025Y0252600D02*
X0195175Y0252600D01*
X0195175Y0262600D02*
X0190025Y0262600D01*
X0175175Y0262600D02*
X0170025Y0262600D01*
X0170025Y0252600D02*
X0175175Y0252600D01*
X0175175Y0242600D02*
X0170025Y0242600D01*
X0155175Y0242600D02*
X0150025Y0242600D01*
X0150025Y0252600D02*
X0155175Y0252600D01*
X0155175Y0262600D02*
X0150025Y0262600D01*
X0135175Y0262600D02*
X0130025Y0262600D01*
X0130025Y0252600D02*
X0135175Y0252600D01*
X0135175Y0242600D02*
X0130025Y0242600D01*
D17*
X0122600Y0237600D03*
X0122600Y0227600D03*
X0092600Y0227600D03*
X0092600Y0237600D03*
X0082600Y0237600D03*
X0082600Y0227600D03*
X0052600Y0227600D03*
X0052600Y0237600D03*
X0052600Y0252600D03*
X0052600Y0262600D03*
X0062600Y0272600D03*
X0092600Y0272600D03*
X0037600Y0232600D03*
X0027600Y0232600D03*
X0032600Y0177600D03*
X0032600Y0167600D03*
X0032600Y0157600D03*
X0032600Y0147600D03*
X0062600Y0147600D03*
X0062600Y0157600D03*
X0062600Y0167600D03*
X0062600Y0177600D03*
X0102600Y0162600D03*
X0107600Y0155100D03*
X0112600Y0162600D03*
X0122600Y0175100D03*
X0117600Y0182600D03*
X0127600Y0182600D03*
X0127600Y0197600D03*
X0112600Y0202600D03*
X0107600Y0195100D03*
X0102600Y0202600D03*
X0142600Y0170100D03*
X0137600Y0162600D03*
X0147600Y0162600D03*
X0162600Y0157600D03*
X0162600Y0167600D03*
X0157600Y0182600D03*
X0167600Y0182600D03*
X0157600Y0197600D03*
X0177600Y0197600D03*
X0207600Y0197600D03*
X0207600Y0182600D03*
X0217600Y0182600D03*
X0192600Y0167600D03*
X0202600Y0162600D03*
X0192600Y0157600D03*
X0232600Y0162600D03*
X0247600Y0162600D03*
X0257600Y0162600D03*
X0237600Y0237600D03*
X0237600Y0267600D03*
D18*
X0262600Y0257600D03*
X0317600Y0292600D03*
X0372600Y0292600D03*
X0262600Y0132600D03*
X0292600Y0082600D03*
X0292600Y0027600D03*
X0162600Y0027600D03*
X0162600Y0082600D03*
X0122600Y0132600D03*
X0027600Y0082600D03*
X0027600Y0027600D03*
X0027600Y0292600D03*
M02*
