G75*
%MOIN*%
%OFA0B0*%
%FSLAX25Y25*%
%IPPOS*%
%LPD*%
%AMOC8*
5,1,8,0,0,1.08239X$1,22.5*
%
%ADD10C,0.00000*%
%ADD11C,0.06000*%
%ADD12OC8,0.06000*%
%ADD13C,0.06600*%
%ADD14C,0.05200*%
%ADD15C,0.06000*%
%ADD16C,0.05150*%
%ADD17OC8,0.05200*%
%ADD18C,0.02000*%
%ADD19C,0.04000*%
%ADD20C,0.03000*%
%ADD21C,0.02381*%
D10*
X0002600Y0002600D02*
X0002600Y0317561D01*
X0396301Y0317561D01*
X0396301Y0002600D01*
X0002600Y0002600D01*
X0021301Y0027600D02*
X0021303Y0027758D01*
X0021309Y0027916D01*
X0021319Y0028074D01*
X0021333Y0028232D01*
X0021351Y0028389D01*
X0021372Y0028546D01*
X0021398Y0028702D01*
X0021428Y0028858D01*
X0021461Y0029013D01*
X0021499Y0029166D01*
X0021540Y0029319D01*
X0021585Y0029471D01*
X0021634Y0029622D01*
X0021687Y0029771D01*
X0021743Y0029919D01*
X0021803Y0030065D01*
X0021867Y0030210D01*
X0021935Y0030353D01*
X0022006Y0030495D01*
X0022080Y0030635D01*
X0022158Y0030772D01*
X0022240Y0030908D01*
X0022324Y0031042D01*
X0022413Y0031173D01*
X0022504Y0031302D01*
X0022599Y0031429D01*
X0022696Y0031554D01*
X0022797Y0031676D01*
X0022901Y0031795D01*
X0023008Y0031912D01*
X0023118Y0032026D01*
X0023231Y0032137D01*
X0023346Y0032246D01*
X0023464Y0032351D01*
X0023585Y0032453D01*
X0023708Y0032553D01*
X0023834Y0032649D01*
X0023962Y0032742D01*
X0024092Y0032832D01*
X0024225Y0032918D01*
X0024360Y0033002D01*
X0024496Y0033081D01*
X0024635Y0033158D01*
X0024776Y0033230D01*
X0024918Y0033300D01*
X0025062Y0033365D01*
X0025208Y0033427D01*
X0025355Y0033485D01*
X0025504Y0033540D01*
X0025654Y0033591D01*
X0025805Y0033638D01*
X0025957Y0033681D01*
X0026110Y0033720D01*
X0026265Y0033756D01*
X0026420Y0033787D01*
X0026576Y0033815D01*
X0026732Y0033839D01*
X0026889Y0033859D01*
X0027047Y0033875D01*
X0027204Y0033887D01*
X0027363Y0033895D01*
X0027521Y0033899D01*
X0027679Y0033899D01*
X0027837Y0033895D01*
X0027996Y0033887D01*
X0028153Y0033875D01*
X0028311Y0033859D01*
X0028468Y0033839D01*
X0028624Y0033815D01*
X0028780Y0033787D01*
X0028935Y0033756D01*
X0029090Y0033720D01*
X0029243Y0033681D01*
X0029395Y0033638D01*
X0029546Y0033591D01*
X0029696Y0033540D01*
X0029845Y0033485D01*
X0029992Y0033427D01*
X0030138Y0033365D01*
X0030282Y0033300D01*
X0030424Y0033230D01*
X0030565Y0033158D01*
X0030704Y0033081D01*
X0030840Y0033002D01*
X0030975Y0032918D01*
X0031108Y0032832D01*
X0031238Y0032742D01*
X0031366Y0032649D01*
X0031492Y0032553D01*
X0031615Y0032453D01*
X0031736Y0032351D01*
X0031854Y0032246D01*
X0031969Y0032137D01*
X0032082Y0032026D01*
X0032192Y0031912D01*
X0032299Y0031795D01*
X0032403Y0031676D01*
X0032504Y0031554D01*
X0032601Y0031429D01*
X0032696Y0031302D01*
X0032787Y0031173D01*
X0032876Y0031042D01*
X0032960Y0030908D01*
X0033042Y0030772D01*
X0033120Y0030635D01*
X0033194Y0030495D01*
X0033265Y0030353D01*
X0033333Y0030210D01*
X0033397Y0030065D01*
X0033457Y0029919D01*
X0033513Y0029771D01*
X0033566Y0029622D01*
X0033615Y0029471D01*
X0033660Y0029319D01*
X0033701Y0029166D01*
X0033739Y0029013D01*
X0033772Y0028858D01*
X0033802Y0028702D01*
X0033828Y0028546D01*
X0033849Y0028389D01*
X0033867Y0028232D01*
X0033881Y0028074D01*
X0033891Y0027916D01*
X0033897Y0027758D01*
X0033899Y0027600D01*
X0033897Y0027442D01*
X0033891Y0027284D01*
X0033881Y0027126D01*
X0033867Y0026968D01*
X0033849Y0026811D01*
X0033828Y0026654D01*
X0033802Y0026498D01*
X0033772Y0026342D01*
X0033739Y0026187D01*
X0033701Y0026034D01*
X0033660Y0025881D01*
X0033615Y0025729D01*
X0033566Y0025578D01*
X0033513Y0025429D01*
X0033457Y0025281D01*
X0033397Y0025135D01*
X0033333Y0024990D01*
X0033265Y0024847D01*
X0033194Y0024705D01*
X0033120Y0024565D01*
X0033042Y0024428D01*
X0032960Y0024292D01*
X0032876Y0024158D01*
X0032787Y0024027D01*
X0032696Y0023898D01*
X0032601Y0023771D01*
X0032504Y0023646D01*
X0032403Y0023524D01*
X0032299Y0023405D01*
X0032192Y0023288D01*
X0032082Y0023174D01*
X0031969Y0023063D01*
X0031854Y0022954D01*
X0031736Y0022849D01*
X0031615Y0022747D01*
X0031492Y0022647D01*
X0031366Y0022551D01*
X0031238Y0022458D01*
X0031108Y0022368D01*
X0030975Y0022282D01*
X0030840Y0022198D01*
X0030704Y0022119D01*
X0030565Y0022042D01*
X0030424Y0021970D01*
X0030282Y0021900D01*
X0030138Y0021835D01*
X0029992Y0021773D01*
X0029845Y0021715D01*
X0029696Y0021660D01*
X0029546Y0021609D01*
X0029395Y0021562D01*
X0029243Y0021519D01*
X0029090Y0021480D01*
X0028935Y0021444D01*
X0028780Y0021413D01*
X0028624Y0021385D01*
X0028468Y0021361D01*
X0028311Y0021341D01*
X0028153Y0021325D01*
X0027996Y0021313D01*
X0027837Y0021305D01*
X0027679Y0021301D01*
X0027521Y0021301D01*
X0027363Y0021305D01*
X0027204Y0021313D01*
X0027047Y0021325D01*
X0026889Y0021341D01*
X0026732Y0021361D01*
X0026576Y0021385D01*
X0026420Y0021413D01*
X0026265Y0021444D01*
X0026110Y0021480D01*
X0025957Y0021519D01*
X0025805Y0021562D01*
X0025654Y0021609D01*
X0025504Y0021660D01*
X0025355Y0021715D01*
X0025208Y0021773D01*
X0025062Y0021835D01*
X0024918Y0021900D01*
X0024776Y0021970D01*
X0024635Y0022042D01*
X0024496Y0022119D01*
X0024360Y0022198D01*
X0024225Y0022282D01*
X0024092Y0022368D01*
X0023962Y0022458D01*
X0023834Y0022551D01*
X0023708Y0022647D01*
X0023585Y0022747D01*
X0023464Y0022849D01*
X0023346Y0022954D01*
X0023231Y0023063D01*
X0023118Y0023174D01*
X0023008Y0023288D01*
X0022901Y0023405D01*
X0022797Y0023524D01*
X0022696Y0023646D01*
X0022599Y0023771D01*
X0022504Y0023898D01*
X0022413Y0024027D01*
X0022324Y0024158D01*
X0022240Y0024292D01*
X0022158Y0024428D01*
X0022080Y0024565D01*
X0022006Y0024705D01*
X0021935Y0024847D01*
X0021867Y0024990D01*
X0021803Y0025135D01*
X0021743Y0025281D01*
X0021687Y0025429D01*
X0021634Y0025578D01*
X0021585Y0025729D01*
X0021540Y0025881D01*
X0021499Y0026034D01*
X0021461Y0026187D01*
X0021428Y0026342D01*
X0021398Y0026498D01*
X0021372Y0026654D01*
X0021351Y0026811D01*
X0021333Y0026968D01*
X0021319Y0027126D01*
X0021309Y0027284D01*
X0021303Y0027442D01*
X0021301Y0027600D01*
X0021301Y0077600D02*
X0021303Y0077758D01*
X0021309Y0077916D01*
X0021319Y0078074D01*
X0021333Y0078232D01*
X0021351Y0078389D01*
X0021372Y0078546D01*
X0021398Y0078702D01*
X0021428Y0078858D01*
X0021461Y0079013D01*
X0021499Y0079166D01*
X0021540Y0079319D01*
X0021585Y0079471D01*
X0021634Y0079622D01*
X0021687Y0079771D01*
X0021743Y0079919D01*
X0021803Y0080065D01*
X0021867Y0080210D01*
X0021935Y0080353D01*
X0022006Y0080495D01*
X0022080Y0080635D01*
X0022158Y0080772D01*
X0022240Y0080908D01*
X0022324Y0081042D01*
X0022413Y0081173D01*
X0022504Y0081302D01*
X0022599Y0081429D01*
X0022696Y0081554D01*
X0022797Y0081676D01*
X0022901Y0081795D01*
X0023008Y0081912D01*
X0023118Y0082026D01*
X0023231Y0082137D01*
X0023346Y0082246D01*
X0023464Y0082351D01*
X0023585Y0082453D01*
X0023708Y0082553D01*
X0023834Y0082649D01*
X0023962Y0082742D01*
X0024092Y0082832D01*
X0024225Y0082918D01*
X0024360Y0083002D01*
X0024496Y0083081D01*
X0024635Y0083158D01*
X0024776Y0083230D01*
X0024918Y0083300D01*
X0025062Y0083365D01*
X0025208Y0083427D01*
X0025355Y0083485D01*
X0025504Y0083540D01*
X0025654Y0083591D01*
X0025805Y0083638D01*
X0025957Y0083681D01*
X0026110Y0083720D01*
X0026265Y0083756D01*
X0026420Y0083787D01*
X0026576Y0083815D01*
X0026732Y0083839D01*
X0026889Y0083859D01*
X0027047Y0083875D01*
X0027204Y0083887D01*
X0027363Y0083895D01*
X0027521Y0083899D01*
X0027679Y0083899D01*
X0027837Y0083895D01*
X0027996Y0083887D01*
X0028153Y0083875D01*
X0028311Y0083859D01*
X0028468Y0083839D01*
X0028624Y0083815D01*
X0028780Y0083787D01*
X0028935Y0083756D01*
X0029090Y0083720D01*
X0029243Y0083681D01*
X0029395Y0083638D01*
X0029546Y0083591D01*
X0029696Y0083540D01*
X0029845Y0083485D01*
X0029992Y0083427D01*
X0030138Y0083365D01*
X0030282Y0083300D01*
X0030424Y0083230D01*
X0030565Y0083158D01*
X0030704Y0083081D01*
X0030840Y0083002D01*
X0030975Y0082918D01*
X0031108Y0082832D01*
X0031238Y0082742D01*
X0031366Y0082649D01*
X0031492Y0082553D01*
X0031615Y0082453D01*
X0031736Y0082351D01*
X0031854Y0082246D01*
X0031969Y0082137D01*
X0032082Y0082026D01*
X0032192Y0081912D01*
X0032299Y0081795D01*
X0032403Y0081676D01*
X0032504Y0081554D01*
X0032601Y0081429D01*
X0032696Y0081302D01*
X0032787Y0081173D01*
X0032876Y0081042D01*
X0032960Y0080908D01*
X0033042Y0080772D01*
X0033120Y0080635D01*
X0033194Y0080495D01*
X0033265Y0080353D01*
X0033333Y0080210D01*
X0033397Y0080065D01*
X0033457Y0079919D01*
X0033513Y0079771D01*
X0033566Y0079622D01*
X0033615Y0079471D01*
X0033660Y0079319D01*
X0033701Y0079166D01*
X0033739Y0079013D01*
X0033772Y0078858D01*
X0033802Y0078702D01*
X0033828Y0078546D01*
X0033849Y0078389D01*
X0033867Y0078232D01*
X0033881Y0078074D01*
X0033891Y0077916D01*
X0033897Y0077758D01*
X0033899Y0077600D01*
X0033897Y0077442D01*
X0033891Y0077284D01*
X0033881Y0077126D01*
X0033867Y0076968D01*
X0033849Y0076811D01*
X0033828Y0076654D01*
X0033802Y0076498D01*
X0033772Y0076342D01*
X0033739Y0076187D01*
X0033701Y0076034D01*
X0033660Y0075881D01*
X0033615Y0075729D01*
X0033566Y0075578D01*
X0033513Y0075429D01*
X0033457Y0075281D01*
X0033397Y0075135D01*
X0033333Y0074990D01*
X0033265Y0074847D01*
X0033194Y0074705D01*
X0033120Y0074565D01*
X0033042Y0074428D01*
X0032960Y0074292D01*
X0032876Y0074158D01*
X0032787Y0074027D01*
X0032696Y0073898D01*
X0032601Y0073771D01*
X0032504Y0073646D01*
X0032403Y0073524D01*
X0032299Y0073405D01*
X0032192Y0073288D01*
X0032082Y0073174D01*
X0031969Y0073063D01*
X0031854Y0072954D01*
X0031736Y0072849D01*
X0031615Y0072747D01*
X0031492Y0072647D01*
X0031366Y0072551D01*
X0031238Y0072458D01*
X0031108Y0072368D01*
X0030975Y0072282D01*
X0030840Y0072198D01*
X0030704Y0072119D01*
X0030565Y0072042D01*
X0030424Y0071970D01*
X0030282Y0071900D01*
X0030138Y0071835D01*
X0029992Y0071773D01*
X0029845Y0071715D01*
X0029696Y0071660D01*
X0029546Y0071609D01*
X0029395Y0071562D01*
X0029243Y0071519D01*
X0029090Y0071480D01*
X0028935Y0071444D01*
X0028780Y0071413D01*
X0028624Y0071385D01*
X0028468Y0071361D01*
X0028311Y0071341D01*
X0028153Y0071325D01*
X0027996Y0071313D01*
X0027837Y0071305D01*
X0027679Y0071301D01*
X0027521Y0071301D01*
X0027363Y0071305D01*
X0027204Y0071313D01*
X0027047Y0071325D01*
X0026889Y0071341D01*
X0026732Y0071361D01*
X0026576Y0071385D01*
X0026420Y0071413D01*
X0026265Y0071444D01*
X0026110Y0071480D01*
X0025957Y0071519D01*
X0025805Y0071562D01*
X0025654Y0071609D01*
X0025504Y0071660D01*
X0025355Y0071715D01*
X0025208Y0071773D01*
X0025062Y0071835D01*
X0024918Y0071900D01*
X0024776Y0071970D01*
X0024635Y0072042D01*
X0024496Y0072119D01*
X0024360Y0072198D01*
X0024225Y0072282D01*
X0024092Y0072368D01*
X0023962Y0072458D01*
X0023834Y0072551D01*
X0023708Y0072647D01*
X0023585Y0072747D01*
X0023464Y0072849D01*
X0023346Y0072954D01*
X0023231Y0073063D01*
X0023118Y0073174D01*
X0023008Y0073288D01*
X0022901Y0073405D01*
X0022797Y0073524D01*
X0022696Y0073646D01*
X0022599Y0073771D01*
X0022504Y0073898D01*
X0022413Y0074027D01*
X0022324Y0074158D01*
X0022240Y0074292D01*
X0022158Y0074428D01*
X0022080Y0074565D01*
X0022006Y0074705D01*
X0021935Y0074847D01*
X0021867Y0074990D01*
X0021803Y0075135D01*
X0021743Y0075281D01*
X0021687Y0075429D01*
X0021634Y0075578D01*
X0021585Y0075729D01*
X0021540Y0075881D01*
X0021499Y0076034D01*
X0021461Y0076187D01*
X0021428Y0076342D01*
X0021398Y0076498D01*
X0021372Y0076654D01*
X0021351Y0076811D01*
X0021333Y0076968D01*
X0021319Y0077126D01*
X0021309Y0077284D01*
X0021303Y0077442D01*
X0021301Y0077600D01*
X0116301Y0132600D02*
X0116303Y0132758D01*
X0116309Y0132916D01*
X0116319Y0133074D01*
X0116333Y0133232D01*
X0116351Y0133389D01*
X0116372Y0133546D01*
X0116398Y0133702D01*
X0116428Y0133858D01*
X0116461Y0134013D01*
X0116499Y0134166D01*
X0116540Y0134319D01*
X0116585Y0134471D01*
X0116634Y0134622D01*
X0116687Y0134771D01*
X0116743Y0134919D01*
X0116803Y0135065D01*
X0116867Y0135210D01*
X0116935Y0135353D01*
X0117006Y0135495D01*
X0117080Y0135635D01*
X0117158Y0135772D01*
X0117240Y0135908D01*
X0117324Y0136042D01*
X0117413Y0136173D01*
X0117504Y0136302D01*
X0117599Y0136429D01*
X0117696Y0136554D01*
X0117797Y0136676D01*
X0117901Y0136795D01*
X0118008Y0136912D01*
X0118118Y0137026D01*
X0118231Y0137137D01*
X0118346Y0137246D01*
X0118464Y0137351D01*
X0118585Y0137453D01*
X0118708Y0137553D01*
X0118834Y0137649D01*
X0118962Y0137742D01*
X0119092Y0137832D01*
X0119225Y0137918D01*
X0119360Y0138002D01*
X0119496Y0138081D01*
X0119635Y0138158D01*
X0119776Y0138230D01*
X0119918Y0138300D01*
X0120062Y0138365D01*
X0120208Y0138427D01*
X0120355Y0138485D01*
X0120504Y0138540D01*
X0120654Y0138591D01*
X0120805Y0138638D01*
X0120957Y0138681D01*
X0121110Y0138720D01*
X0121265Y0138756D01*
X0121420Y0138787D01*
X0121576Y0138815D01*
X0121732Y0138839D01*
X0121889Y0138859D01*
X0122047Y0138875D01*
X0122204Y0138887D01*
X0122363Y0138895D01*
X0122521Y0138899D01*
X0122679Y0138899D01*
X0122837Y0138895D01*
X0122996Y0138887D01*
X0123153Y0138875D01*
X0123311Y0138859D01*
X0123468Y0138839D01*
X0123624Y0138815D01*
X0123780Y0138787D01*
X0123935Y0138756D01*
X0124090Y0138720D01*
X0124243Y0138681D01*
X0124395Y0138638D01*
X0124546Y0138591D01*
X0124696Y0138540D01*
X0124845Y0138485D01*
X0124992Y0138427D01*
X0125138Y0138365D01*
X0125282Y0138300D01*
X0125424Y0138230D01*
X0125565Y0138158D01*
X0125704Y0138081D01*
X0125840Y0138002D01*
X0125975Y0137918D01*
X0126108Y0137832D01*
X0126238Y0137742D01*
X0126366Y0137649D01*
X0126492Y0137553D01*
X0126615Y0137453D01*
X0126736Y0137351D01*
X0126854Y0137246D01*
X0126969Y0137137D01*
X0127082Y0137026D01*
X0127192Y0136912D01*
X0127299Y0136795D01*
X0127403Y0136676D01*
X0127504Y0136554D01*
X0127601Y0136429D01*
X0127696Y0136302D01*
X0127787Y0136173D01*
X0127876Y0136042D01*
X0127960Y0135908D01*
X0128042Y0135772D01*
X0128120Y0135635D01*
X0128194Y0135495D01*
X0128265Y0135353D01*
X0128333Y0135210D01*
X0128397Y0135065D01*
X0128457Y0134919D01*
X0128513Y0134771D01*
X0128566Y0134622D01*
X0128615Y0134471D01*
X0128660Y0134319D01*
X0128701Y0134166D01*
X0128739Y0134013D01*
X0128772Y0133858D01*
X0128802Y0133702D01*
X0128828Y0133546D01*
X0128849Y0133389D01*
X0128867Y0133232D01*
X0128881Y0133074D01*
X0128891Y0132916D01*
X0128897Y0132758D01*
X0128899Y0132600D01*
X0128897Y0132442D01*
X0128891Y0132284D01*
X0128881Y0132126D01*
X0128867Y0131968D01*
X0128849Y0131811D01*
X0128828Y0131654D01*
X0128802Y0131498D01*
X0128772Y0131342D01*
X0128739Y0131187D01*
X0128701Y0131034D01*
X0128660Y0130881D01*
X0128615Y0130729D01*
X0128566Y0130578D01*
X0128513Y0130429D01*
X0128457Y0130281D01*
X0128397Y0130135D01*
X0128333Y0129990D01*
X0128265Y0129847D01*
X0128194Y0129705D01*
X0128120Y0129565D01*
X0128042Y0129428D01*
X0127960Y0129292D01*
X0127876Y0129158D01*
X0127787Y0129027D01*
X0127696Y0128898D01*
X0127601Y0128771D01*
X0127504Y0128646D01*
X0127403Y0128524D01*
X0127299Y0128405D01*
X0127192Y0128288D01*
X0127082Y0128174D01*
X0126969Y0128063D01*
X0126854Y0127954D01*
X0126736Y0127849D01*
X0126615Y0127747D01*
X0126492Y0127647D01*
X0126366Y0127551D01*
X0126238Y0127458D01*
X0126108Y0127368D01*
X0125975Y0127282D01*
X0125840Y0127198D01*
X0125704Y0127119D01*
X0125565Y0127042D01*
X0125424Y0126970D01*
X0125282Y0126900D01*
X0125138Y0126835D01*
X0124992Y0126773D01*
X0124845Y0126715D01*
X0124696Y0126660D01*
X0124546Y0126609D01*
X0124395Y0126562D01*
X0124243Y0126519D01*
X0124090Y0126480D01*
X0123935Y0126444D01*
X0123780Y0126413D01*
X0123624Y0126385D01*
X0123468Y0126361D01*
X0123311Y0126341D01*
X0123153Y0126325D01*
X0122996Y0126313D01*
X0122837Y0126305D01*
X0122679Y0126301D01*
X0122521Y0126301D01*
X0122363Y0126305D01*
X0122204Y0126313D01*
X0122047Y0126325D01*
X0121889Y0126341D01*
X0121732Y0126361D01*
X0121576Y0126385D01*
X0121420Y0126413D01*
X0121265Y0126444D01*
X0121110Y0126480D01*
X0120957Y0126519D01*
X0120805Y0126562D01*
X0120654Y0126609D01*
X0120504Y0126660D01*
X0120355Y0126715D01*
X0120208Y0126773D01*
X0120062Y0126835D01*
X0119918Y0126900D01*
X0119776Y0126970D01*
X0119635Y0127042D01*
X0119496Y0127119D01*
X0119360Y0127198D01*
X0119225Y0127282D01*
X0119092Y0127368D01*
X0118962Y0127458D01*
X0118834Y0127551D01*
X0118708Y0127647D01*
X0118585Y0127747D01*
X0118464Y0127849D01*
X0118346Y0127954D01*
X0118231Y0128063D01*
X0118118Y0128174D01*
X0118008Y0128288D01*
X0117901Y0128405D01*
X0117797Y0128524D01*
X0117696Y0128646D01*
X0117599Y0128771D01*
X0117504Y0128898D01*
X0117413Y0129027D01*
X0117324Y0129158D01*
X0117240Y0129292D01*
X0117158Y0129428D01*
X0117080Y0129565D01*
X0117006Y0129705D01*
X0116935Y0129847D01*
X0116867Y0129990D01*
X0116803Y0130135D01*
X0116743Y0130281D01*
X0116687Y0130429D01*
X0116634Y0130578D01*
X0116585Y0130729D01*
X0116540Y0130881D01*
X0116499Y0131034D01*
X0116461Y0131187D01*
X0116428Y0131342D01*
X0116398Y0131498D01*
X0116372Y0131654D01*
X0116351Y0131811D01*
X0116333Y0131968D01*
X0116319Y0132126D01*
X0116309Y0132284D01*
X0116303Y0132442D01*
X0116301Y0132600D01*
X0191301Y0077600D02*
X0191303Y0077758D01*
X0191309Y0077916D01*
X0191319Y0078074D01*
X0191333Y0078232D01*
X0191351Y0078389D01*
X0191372Y0078546D01*
X0191398Y0078702D01*
X0191428Y0078858D01*
X0191461Y0079013D01*
X0191499Y0079166D01*
X0191540Y0079319D01*
X0191585Y0079471D01*
X0191634Y0079622D01*
X0191687Y0079771D01*
X0191743Y0079919D01*
X0191803Y0080065D01*
X0191867Y0080210D01*
X0191935Y0080353D01*
X0192006Y0080495D01*
X0192080Y0080635D01*
X0192158Y0080772D01*
X0192240Y0080908D01*
X0192324Y0081042D01*
X0192413Y0081173D01*
X0192504Y0081302D01*
X0192599Y0081429D01*
X0192696Y0081554D01*
X0192797Y0081676D01*
X0192901Y0081795D01*
X0193008Y0081912D01*
X0193118Y0082026D01*
X0193231Y0082137D01*
X0193346Y0082246D01*
X0193464Y0082351D01*
X0193585Y0082453D01*
X0193708Y0082553D01*
X0193834Y0082649D01*
X0193962Y0082742D01*
X0194092Y0082832D01*
X0194225Y0082918D01*
X0194360Y0083002D01*
X0194496Y0083081D01*
X0194635Y0083158D01*
X0194776Y0083230D01*
X0194918Y0083300D01*
X0195062Y0083365D01*
X0195208Y0083427D01*
X0195355Y0083485D01*
X0195504Y0083540D01*
X0195654Y0083591D01*
X0195805Y0083638D01*
X0195957Y0083681D01*
X0196110Y0083720D01*
X0196265Y0083756D01*
X0196420Y0083787D01*
X0196576Y0083815D01*
X0196732Y0083839D01*
X0196889Y0083859D01*
X0197047Y0083875D01*
X0197204Y0083887D01*
X0197363Y0083895D01*
X0197521Y0083899D01*
X0197679Y0083899D01*
X0197837Y0083895D01*
X0197996Y0083887D01*
X0198153Y0083875D01*
X0198311Y0083859D01*
X0198468Y0083839D01*
X0198624Y0083815D01*
X0198780Y0083787D01*
X0198935Y0083756D01*
X0199090Y0083720D01*
X0199243Y0083681D01*
X0199395Y0083638D01*
X0199546Y0083591D01*
X0199696Y0083540D01*
X0199845Y0083485D01*
X0199992Y0083427D01*
X0200138Y0083365D01*
X0200282Y0083300D01*
X0200424Y0083230D01*
X0200565Y0083158D01*
X0200704Y0083081D01*
X0200840Y0083002D01*
X0200975Y0082918D01*
X0201108Y0082832D01*
X0201238Y0082742D01*
X0201366Y0082649D01*
X0201492Y0082553D01*
X0201615Y0082453D01*
X0201736Y0082351D01*
X0201854Y0082246D01*
X0201969Y0082137D01*
X0202082Y0082026D01*
X0202192Y0081912D01*
X0202299Y0081795D01*
X0202403Y0081676D01*
X0202504Y0081554D01*
X0202601Y0081429D01*
X0202696Y0081302D01*
X0202787Y0081173D01*
X0202876Y0081042D01*
X0202960Y0080908D01*
X0203042Y0080772D01*
X0203120Y0080635D01*
X0203194Y0080495D01*
X0203265Y0080353D01*
X0203333Y0080210D01*
X0203397Y0080065D01*
X0203457Y0079919D01*
X0203513Y0079771D01*
X0203566Y0079622D01*
X0203615Y0079471D01*
X0203660Y0079319D01*
X0203701Y0079166D01*
X0203739Y0079013D01*
X0203772Y0078858D01*
X0203802Y0078702D01*
X0203828Y0078546D01*
X0203849Y0078389D01*
X0203867Y0078232D01*
X0203881Y0078074D01*
X0203891Y0077916D01*
X0203897Y0077758D01*
X0203899Y0077600D01*
X0203897Y0077442D01*
X0203891Y0077284D01*
X0203881Y0077126D01*
X0203867Y0076968D01*
X0203849Y0076811D01*
X0203828Y0076654D01*
X0203802Y0076498D01*
X0203772Y0076342D01*
X0203739Y0076187D01*
X0203701Y0076034D01*
X0203660Y0075881D01*
X0203615Y0075729D01*
X0203566Y0075578D01*
X0203513Y0075429D01*
X0203457Y0075281D01*
X0203397Y0075135D01*
X0203333Y0074990D01*
X0203265Y0074847D01*
X0203194Y0074705D01*
X0203120Y0074565D01*
X0203042Y0074428D01*
X0202960Y0074292D01*
X0202876Y0074158D01*
X0202787Y0074027D01*
X0202696Y0073898D01*
X0202601Y0073771D01*
X0202504Y0073646D01*
X0202403Y0073524D01*
X0202299Y0073405D01*
X0202192Y0073288D01*
X0202082Y0073174D01*
X0201969Y0073063D01*
X0201854Y0072954D01*
X0201736Y0072849D01*
X0201615Y0072747D01*
X0201492Y0072647D01*
X0201366Y0072551D01*
X0201238Y0072458D01*
X0201108Y0072368D01*
X0200975Y0072282D01*
X0200840Y0072198D01*
X0200704Y0072119D01*
X0200565Y0072042D01*
X0200424Y0071970D01*
X0200282Y0071900D01*
X0200138Y0071835D01*
X0199992Y0071773D01*
X0199845Y0071715D01*
X0199696Y0071660D01*
X0199546Y0071609D01*
X0199395Y0071562D01*
X0199243Y0071519D01*
X0199090Y0071480D01*
X0198935Y0071444D01*
X0198780Y0071413D01*
X0198624Y0071385D01*
X0198468Y0071361D01*
X0198311Y0071341D01*
X0198153Y0071325D01*
X0197996Y0071313D01*
X0197837Y0071305D01*
X0197679Y0071301D01*
X0197521Y0071301D01*
X0197363Y0071305D01*
X0197204Y0071313D01*
X0197047Y0071325D01*
X0196889Y0071341D01*
X0196732Y0071361D01*
X0196576Y0071385D01*
X0196420Y0071413D01*
X0196265Y0071444D01*
X0196110Y0071480D01*
X0195957Y0071519D01*
X0195805Y0071562D01*
X0195654Y0071609D01*
X0195504Y0071660D01*
X0195355Y0071715D01*
X0195208Y0071773D01*
X0195062Y0071835D01*
X0194918Y0071900D01*
X0194776Y0071970D01*
X0194635Y0072042D01*
X0194496Y0072119D01*
X0194360Y0072198D01*
X0194225Y0072282D01*
X0194092Y0072368D01*
X0193962Y0072458D01*
X0193834Y0072551D01*
X0193708Y0072647D01*
X0193585Y0072747D01*
X0193464Y0072849D01*
X0193346Y0072954D01*
X0193231Y0073063D01*
X0193118Y0073174D01*
X0193008Y0073288D01*
X0192901Y0073405D01*
X0192797Y0073524D01*
X0192696Y0073646D01*
X0192599Y0073771D01*
X0192504Y0073898D01*
X0192413Y0074027D01*
X0192324Y0074158D01*
X0192240Y0074292D01*
X0192158Y0074428D01*
X0192080Y0074565D01*
X0192006Y0074705D01*
X0191935Y0074847D01*
X0191867Y0074990D01*
X0191803Y0075135D01*
X0191743Y0075281D01*
X0191687Y0075429D01*
X0191634Y0075578D01*
X0191585Y0075729D01*
X0191540Y0075881D01*
X0191499Y0076034D01*
X0191461Y0076187D01*
X0191428Y0076342D01*
X0191398Y0076498D01*
X0191372Y0076654D01*
X0191351Y0076811D01*
X0191333Y0076968D01*
X0191319Y0077126D01*
X0191309Y0077284D01*
X0191303Y0077442D01*
X0191301Y0077600D01*
X0191301Y0027600D02*
X0191303Y0027758D01*
X0191309Y0027916D01*
X0191319Y0028074D01*
X0191333Y0028232D01*
X0191351Y0028389D01*
X0191372Y0028546D01*
X0191398Y0028702D01*
X0191428Y0028858D01*
X0191461Y0029013D01*
X0191499Y0029166D01*
X0191540Y0029319D01*
X0191585Y0029471D01*
X0191634Y0029622D01*
X0191687Y0029771D01*
X0191743Y0029919D01*
X0191803Y0030065D01*
X0191867Y0030210D01*
X0191935Y0030353D01*
X0192006Y0030495D01*
X0192080Y0030635D01*
X0192158Y0030772D01*
X0192240Y0030908D01*
X0192324Y0031042D01*
X0192413Y0031173D01*
X0192504Y0031302D01*
X0192599Y0031429D01*
X0192696Y0031554D01*
X0192797Y0031676D01*
X0192901Y0031795D01*
X0193008Y0031912D01*
X0193118Y0032026D01*
X0193231Y0032137D01*
X0193346Y0032246D01*
X0193464Y0032351D01*
X0193585Y0032453D01*
X0193708Y0032553D01*
X0193834Y0032649D01*
X0193962Y0032742D01*
X0194092Y0032832D01*
X0194225Y0032918D01*
X0194360Y0033002D01*
X0194496Y0033081D01*
X0194635Y0033158D01*
X0194776Y0033230D01*
X0194918Y0033300D01*
X0195062Y0033365D01*
X0195208Y0033427D01*
X0195355Y0033485D01*
X0195504Y0033540D01*
X0195654Y0033591D01*
X0195805Y0033638D01*
X0195957Y0033681D01*
X0196110Y0033720D01*
X0196265Y0033756D01*
X0196420Y0033787D01*
X0196576Y0033815D01*
X0196732Y0033839D01*
X0196889Y0033859D01*
X0197047Y0033875D01*
X0197204Y0033887D01*
X0197363Y0033895D01*
X0197521Y0033899D01*
X0197679Y0033899D01*
X0197837Y0033895D01*
X0197996Y0033887D01*
X0198153Y0033875D01*
X0198311Y0033859D01*
X0198468Y0033839D01*
X0198624Y0033815D01*
X0198780Y0033787D01*
X0198935Y0033756D01*
X0199090Y0033720D01*
X0199243Y0033681D01*
X0199395Y0033638D01*
X0199546Y0033591D01*
X0199696Y0033540D01*
X0199845Y0033485D01*
X0199992Y0033427D01*
X0200138Y0033365D01*
X0200282Y0033300D01*
X0200424Y0033230D01*
X0200565Y0033158D01*
X0200704Y0033081D01*
X0200840Y0033002D01*
X0200975Y0032918D01*
X0201108Y0032832D01*
X0201238Y0032742D01*
X0201366Y0032649D01*
X0201492Y0032553D01*
X0201615Y0032453D01*
X0201736Y0032351D01*
X0201854Y0032246D01*
X0201969Y0032137D01*
X0202082Y0032026D01*
X0202192Y0031912D01*
X0202299Y0031795D01*
X0202403Y0031676D01*
X0202504Y0031554D01*
X0202601Y0031429D01*
X0202696Y0031302D01*
X0202787Y0031173D01*
X0202876Y0031042D01*
X0202960Y0030908D01*
X0203042Y0030772D01*
X0203120Y0030635D01*
X0203194Y0030495D01*
X0203265Y0030353D01*
X0203333Y0030210D01*
X0203397Y0030065D01*
X0203457Y0029919D01*
X0203513Y0029771D01*
X0203566Y0029622D01*
X0203615Y0029471D01*
X0203660Y0029319D01*
X0203701Y0029166D01*
X0203739Y0029013D01*
X0203772Y0028858D01*
X0203802Y0028702D01*
X0203828Y0028546D01*
X0203849Y0028389D01*
X0203867Y0028232D01*
X0203881Y0028074D01*
X0203891Y0027916D01*
X0203897Y0027758D01*
X0203899Y0027600D01*
X0203897Y0027442D01*
X0203891Y0027284D01*
X0203881Y0027126D01*
X0203867Y0026968D01*
X0203849Y0026811D01*
X0203828Y0026654D01*
X0203802Y0026498D01*
X0203772Y0026342D01*
X0203739Y0026187D01*
X0203701Y0026034D01*
X0203660Y0025881D01*
X0203615Y0025729D01*
X0203566Y0025578D01*
X0203513Y0025429D01*
X0203457Y0025281D01*
X0203397Y0025135D01*
X0203333Y0024990D01*
X0203265Y0024847D01*
X0203194Y0024705D01*
X0203120Y0024565D01*
X0203042Y0024428D01*
X0202960Y0024292D01*
X0202876Y0024158D01*
X0202787Y0024027D01*
X0202696Y0023898D01*
X0202601Y0023771D01*
X0202504Y0023646D01*
X0202403Y0023524D01*
X0202299Y0023405D01*
X0202192Y0023288D01*
X0202082Y0023174D01*
X0201969Y0023063D01*
X0201854Y0022954D01*
X0201736Y0022849D01*
X0201615Y0022747D01*
X0201492Y0022647D01*
X0201366Y0022551D01*
X0201238Y0022458D01*
X0201108Y0022368D01*
X0200975Y0022282D01*
X0200840Y0022198D01*
X0200704Y0022119D01*
X0200565Y0022042D01*
X0200424Y0021970D01*
X0200282Y0021900D01*
X0200138Y0021835D01*
X0199992Y0021773D01*
X0199845Y0021715D01*
X0199696Y0021660D01*
X0199546Y0021609D01*
X0199395Y0021562D01*
X0199243Y0021519D01*
X0199090Y0021480D01*
X0198935Y0021444D01*
X0198780Y0021413D01*
X0198624Y0021385D01*
X0198468Y0021361D01*
X0198311Y0021341D01*
X0198153Y0021325D01*
X0197996Y0021313D01*
X0197837Y0021305D01*
X0197679Y0021301D01*
X0197521Y0021301D01*
X0197363Y0021305D01*
X0197204Y0021313D01*
X0197047Y0021325D01*
X0196889Y0021341D01*
X0196732Y0021361D01*
X0196576Y0021385D01*
X0196420Y0021413D01*
X0196265Y0021444D01*
X0196110Y0021480D01*
X0195957Y0021519D01*
X0195805Y0021562D01*
X0195654Y0021609D01*
X0195504Y0021660D01*
X0195355Y0021715D01*
X0195208Y0021773D01*
X0195062Y0021835D01*
X0194918Y0021900D01*
X0194776Y0021970D01*
X0194635Y0022042D01*
X0194496Y0022119D01*
X0194360Y0022198D01*
X0194225Y0022282D01*
X0194092Y0022368D01*
X0193962Y0022458D01*
X0193834Y0022551D01*
X0193708Y0022647D01*
X0193585Y0022747D01*
X0193464Y0022849D01*
X0193346Y0022954D01*
X0193231Y0023063D01*
X0193118Y0023174D01*
X0193008Y0023288D01*
X0192901Y0023405D01*
X0192797Y0023524D01*
X0192696Y0023646D01*
X0192599Y0023771D01*
X0192504Y0023898D01*
X0192413Y0024027D01*
X0192324Y0024158D01*
X0192240Y0024292D01*
X0192158Y0024428D01*
X0192080Y0024565D01*
X0192006Y0024705D01*
X0191935Y0024847D01*
X0191867Y0024990D01*
X0191803Y0025135D01*
X0191743Y0025281D01*
X0191687Y0025429D01*
X0191634Y0025578D01*
X0191585Y0025729D01*
X0191540Y0025881D01*
X0191499Y0026034D01*
X0191461Y0026187D01*
X0191428Y0026342D01*
X0191398Y0026498D01*
X0191372Y0026654D01*
X0191351Y0026811D01*
X0191333Y0026968D01*
X0191319Y0027126D01*
X0191309Y0027284D01*
X0191303Y0027442D01*
X0191301Y0027600D01*
X0246301Y0027600D02*
X0246303Y0027758D01*
X0246309Y0027916D01*
X0246319Y0028074D01*
X0246333Y0028232D01*
X0246351Y0028389D01*
X0246372Y0028546D01*
X0246398Y0028702D01*
X0246428Y0028858D01*
X0246461Y0029013D01*
X0246499Y0029166D01*
X0246540Y0029319D01*
X0246585Y0029471D01*
X0246634Y0029622D01*
X0246687Y0029771D01*
X0246743Y0029919D01*
X0246803Y0030065D01*
X0246867Y0030210D01*
X0246935Y0030353D01*
X0247006Y0030495D01*
X0247080Y0030635D01*
X0247158Y0030772D01*
X0247240Y0030908D01*
X0247324Y0031042D01*
X0247413Y0031173D01*
X0247504Y0031302D01*
X0247599Y0031429D01*
X0247696Y0031554D01*
X0247797Y0031676D01*
X0247901Y0031795D01*
X0248008Y0031912D01*
X0248118Y0032026D01*
X0248231Y0032137D01*
X0248346Y0032246D01*
X0248464Y0032351D01*
X0248585Y0032453D01*
X0248708Y0032553D01*
X0248834Y0032649D01*
X0248962Y0032742D01*
X0249092Y0032832D01*
X0249225Y0032918D01*
X0249360Y0033002D01*
X0249496Y0033081D01*
X0249635Y0033158D01*
X0249776Y0033230D01*
X0249918Y0033300D01*
X0250062Y0033365D01*
X0250208Y0033427D01*
X0250355Y0033485D01*
X0250504Y0033540D01*
X0250654Y0033591D01*
X0250805Y0033638D01*
X0250957Y0033681D01*
X0251110Y0033720D01*
X0251265Y0033756D01*
X0251420Y0033787D01*
X0251576Y0033815D01*
X0251732Y0033839D01*
X0251889Y0033859D01*
X0252047Y0033875D01*
X0252204Y0033887D01*
X0252363Y0033895D01*
X0252521Y0033899D01*
X0252679Y0033899D01*
X0252837Y0033895D01*
X0252996Y0033887D01*
X0253153Y0033875D01*
X0253311Y0033859D01*
X0253468Y0033839D01*
X0253624Y0033815D01*
X0253780Y0033787D01*
X0253935Y0033756D01*
X0254090Y0033720D01*
X0254243Y0033681D01*
X0254395Y0033638D01*
X0254546Y0033591D01*
X0254696Y0033540D01*
X0254845Y0033485D01*
X0254992Y0033427D01*
X0255138Y0033365D01*
X0255282Y0033300D01*
X0255424Y0033230D01*
X0255565Y0033158D01*
X0255704Y0033081D01*
X0255840Y0033002D01*
X0255975Y0032918D01*
X0256108Y0032832D01*
X0256238Y0032742D01*
X0256366Y0032649D01*
X0256492Y0032553D01*
X0256615Y0032453D01*
X0256736Y0032351D01*
X0256854Y0032246D01*
X0256969Y0032137D01*
X0257082Y0032026D01*
X0257192Y0031912D01*
X0257299Y0031795D01*
X0257403Y0031676D01*
X0257504Y0031554D01*
X0257601Y0031429D01*
X0257696Y0031302D01*
X0257787Y0031173D01*
X0257876Y0031042D01*
X0257960Y0030908D01*
X0258042Y0030772D01*
X0258120Y0030635D01*
X0258194Y0030495D01*
X0258265Y0030353D01*
X0258333Y0030210D01*
X0258397Y0030065D01*
X0258457Y0029919D01*
X0258513Y0029771D01*
X0258566Y0029622D01*
X0258615Y0029471D01*
X0258660Y0029319D01*
X0258701Y0029166D01*
X0258739Y0029013D01*
X0258772Y0028858D01*
X0258802Y0028702D01*
X0258828Y0028546D01*
X0258849Y0028389D01*
X0258867Y0028232D01*
X0258881Y0028074D01*
X0258891Y0027916D01*
X0258897Y0027758D01*
X0258899Y0027600D01*
X0258897Y0027442D01*
X0258891Y0027284D01*
X0258881Y0027126D01*
X0258867Y0026968D01*
X0258849Y0026811D01*
X0258828Y0026654D01*
X0258802Y0026498D01*
X0258772Y0026342D01*
X0258739Y0026187D01*
X0258701Y0026034D01*
X0258660Y0025881D01*
X0258615Y0025729D01*
X0258566Y0025578D01*
X0258513Y0025429D01*
X0258457Y0025281D01*
X0258397Y0025135D01*
X0258333Y0024990D01*
X0258265Y0024847D01*
X0258194Y0024705D01*
X0258120Y0024565D01*
X0258042Y0024428D01*
X0257960Y0024292D01*
X0257876Y0024158D01*
X0257787Y0024027D01*
X0257696Y0023898D01*
X0257601Y0023771D01*
X0257504Y0023646D01*
X0257403Y0023524D01*
X0257299Y0023405D01*
X0257192Y0023288D01*
X0257082Y0023174D01*
X0256969Y0023063D01*
X0256854Y0022954D01*
X0256736Y0022849D01*
X0256615Y0022747D01*
X0256492Y0022647D01*
X0256366Y0022551D01*
X0256238Y0022458D01*
X0256108Y0022368D01*
X0255975Y0022282D01*
X0255840Y0022198D01*
X0255704Y0022119D01*
X0255565Y0022042D01*
X0255424Y0021970D01*
X0255282Y0021900D01*
X0255138Y0021835D01*
X0254992Y0021773D01*
X0254845Y0021715D01*
X0254696Y0021660D01*
X0254546Y0021609D01*
X0254395Y0021562D01*
X0254243Y0021519D01*
X0254090Y0021480D01*
X0253935Y0021444D01*
X0253780Y0021413D01*
X0253624Y0021385D01*
X0253468Y0021361D01*
X0253311Y0021341D01*
X0253153Y0021325D01*
X0252996Y0021313D01*
X0252837Y0021305D01*
X0252679Y0021301D01*
X0252521Y0021301D01*
X0252363Y0021305D01*
X0252204Y0021313D01*
X0252047Y0021325D01*
X0251889Y0021341D01*
X0251732Y0021361D01*
X0251576Y0021385D01*
X0251420Y0021413D01*
X0251265Y0021444D01*
X0251110Y0021480D01*
X0250957Y0021519D01*
X0250805Y0021562D01*
X0250654Y0021609D01*
X0250504Y0021660D01*
X0250355Y0021715D01*
X0250208Y0021773D01*
X0250062Y0021835D01*
X0249918Y0021900D01*
X0249776Y0021970D01*
X0249635Y0022042D01*
X0249496Y0022119D01*
X0249360Y0022198D01*
X0249225Y0022282D01*
X0249092Y0022368D01*
X0248962Y0022458D01*
X0248834Y0022551D01*
X0248708Y0022647D01*
X0248585Y0022747D01*
X0248464Y0022849D01*
X0248346Y0022954D01*
X0248231Y0023063D01*
X0248118Y0023174D01*
X0248008Y0023288D01*
X0247901Y0023405D01*
X0247797Y0023524D01*
X0247696Y0023646D01*
X0247599Y0023771D01*
X0247504Y0023898D01*
X0247413Y0024027D01*
X0247324Y0024158D01*
X0247240Y0024292D01*
X0247158Y0024428D01*
X0247080Y0024565D01*
X0247006Y0024705D01*
X0246935Y0024847D01*
X0246867Y0024990D01*
X0246803Y0025135D01*
X0246743Y0025281D01*
X0246687Y0025429D01*
X0246634Y0025578D01*
X0246585Y0025729D01*
X0246540Y0025881D01*
X0246499Y0026034D01*
X0246461Y0026187D01*
X0246428Y0026342D01*
X0246398Y0026498D01*
X0246372Y0026654D01*
X0246351Y0026811D01*
X0246333Y0026968D01*
X0246319Y0027126D01*
X0246309Y0027284D01*
X0246303Y0027442D01*
X0246301Y0027600D01*
X0246301Y0077600D02*
X0246303Y0077758D01*
X0246309Y0077916D01*
X0246319Y0078074D01*
X0246333Y0078232D01*
X0246351Y0078389D01*
X0246372Y0078546D01*
X0246398Y0078702D01*
X0246428Y0078858D01*
X0246461Y0079013D01*
X0246499Y0079166D01*
X0246540Y0079319D01*
X0246585Y0079471D01*
X0246634Y0079622D01*
X0246687Y0079771D01*
X0246743Y0079919D01*
X0246803Y0080065D01*
X0246867Y0080210D01*
X0246935Y0080353D01*
X0247006Y0080495D01*
X0247080Y0080635D01*
X0247158Y0080772D01*
X0247240Y0080908D01*
X0247324Y0081042D01*
X0247413Y0081173D01*
X0247504Y0081302D01*
X0247599Y0081429D01*
X0247696Y0081554D01*
X0247797Y0081676D01*
X0247901Y0081795D01*
X0248008Y0081912D01*
X0248118Y0082026D01*
X0248231Y0082137D01*
X0248346Y0082246D01*
X0248464Y0082351D01*
X0248585Y0082453D01*
X0248708Y0082553D01*
X0248834Y0082649D01*
X0248962Y0082742D01*
X0249092Y0082832D01*
X0249225Y0082918D01*
X0249360Y0083002D01*
X0249496Y0083081D01*
X0249635Y0083158D01*
X0249776Y0083230D01*
X0249918Y0083300D01*
X0250062Y0083365D01*
X0250208Y0083427D01*
X0250355Y0083485D01*
X0250504Y0083540D01*
X0250654Y0083591D01*
X0250805Y0083638D01*
X0250957Y0083681D01*
X0251110Y0083720D01*
X0251265Y0083756D01*
X0251420Y0083787D01*
X0251576Y0083815D01*
X0251732Y0083839D01*
X0251889Y0083859D01*
X0252047Y0083875D01*
X0252204Y0083887D01*
X0252363Y0083895D01*
X0252521Y0083899D01*
X0252679Y0083899D01*
X0252837Y0083895D01*
X0252996Y0083887D01*
X0253153Y0083875D01*
X0253311Y0083859D01*
X0253468Y0083839D01*
X0253624Y0083815D01*
X0253780Y0083787D01*
X0253935Y0083756D01*
X0254090Y0083720D01*
X0254243Y0083681D01*
X0254395Y0083638D01*
X0254546Y0083591D01*
X0254696Y0083540D01*
X0254845Y0083485D01*
X0254992Y0083427D01*
X0255138Y0083365D01*
X0255282Y0083300D01*
X0255424Y0083230D01*
X0255565Y0083158D01*
X0255704Y0083081D01*
X0255840Y0083002D01*
X0255975Y0082918D01*
X0256108Y0082832D01*
X0256238Y0082742D01*
X0256366Y0082649D01*
X0256492Y0082553D01*
X0256615Y0082453D01*
X0256736Y0082351D01*
X0256854Y0082246D01*
X0256969Y0082137D01*
X0257082Y0082026D01*
X0257192Y0081912D01*
X0257299Y0081795D01*
X0257403Y0081676D01*
X0257504Y0081554D01*
X0257601Y0081429D01*
X0257696Y0081302D01*
X0257787Y0081173D01*
X0257876Y0081042D01*
X0257960Y0080908D01*
X0258042Y0080772D01*
X0258120Y0080635D01*
X0258194Y0080495D01*
X0258265Y0080353D01*
X0258333Y0080210D01*
X0258397Y0080065D01*
X0258457Y0079919D01*
X0258513Y0079771D01*
X0258566Y0079622D01*
X0258615Y0079471D01*
X0258660Y0079319D01*
X0258701Y0079166D01*
X0258739Y0079013D01*
X0258772Y0078858D01*
X0258802Y0078702D01*
X0258828Y0078546D01*
X0258849Y0078389D01*
X0258867Y0078232D01*
X0258881Y0078074D01*
X0258891Y0077916D01*
X0258897Y0077758D01*
X0258899Y0077600D01*
X0258897Y0077442D01*
X0258891Y0077284D01*
X0258881Y0077126D01*
X0258867Y0076968D01*
X0258849Y0076811D01*
X0258828Y0076654D01*
X0258802Y0076498D01*
X0258772Y0076342D01*
X0258739Y0076187D01*
X0258701Y0076034D01*
X0258660Y0075881D01*
X0258615Y0075729D01*
X0258566Y0075578D01*
X0258513Y0075429D01*
X0258457Y0075281D01*
X0258397Y0075135D01*
X0258333Y0074990D01*
X0258265Y0074847D01*
X0258194Y0074705D01*
X0258120Y0074565D01*
X0258042Y0074428D01*
X0257960Y0074292D01*
X0257876Y0074158D01*
X0257787Y0074027D01*
X0257696Y0073898D01*
X0257601Y0073771D01*
X0257504Y0073646D01*
X0257403Y0073524D01*
X0257299Y0073405D01*
X0257192Y0073288D01*
X0257082Y0073174D01*
X0256969Y0073063D01*
X0256854Y0072954D01*
X0256736Y0072849D01*
X0256615Y0072747D01*
X0256492Y0072647D01*
X0256366Y0072551D01*
X0256238Y0072458D01*
X0256108Y0072368D01*
X0255975Y0072282D01*
X0255840Y0072198D01*
X0255704Y0072119D01*
X0255565Y0072042D01*
X0255424Y0071970D01*
X0255282Y0071900D01*
X0255138Y0071835D01*
X0254992Y0071773D01*
X0254845Y0071715D01*
X0254696Y0071660D01*
X0254546Y0071609D01*
X0254395Y0071562D01*
X0254243Y0071519D01*
X0254090Y0071480D01*
X0253935Y0071444D01*
X0253780Y0071413D01*
X0253624Y0071385D01*
X0253468Y0071361D01*
X0253311Y0071341D01*
X0253153Y0071325D01*
X0252996Y0071313D01*
X0252837Y0071305D01*
X0252679Y0071301D01*
X0252521Y0071301D01*
X0252363Y0071305D01*
X0252204Y0071313D01*
X0252047Y0071325D01*
X0251889Y0071341D01*
X0251732Y0071361D01*
X0251576Y0071385D01*
X0251420Y0071413D01*
X0251265Y0071444D01*
X0251110Y0071480D01*
X0250957Y0071519D01*
X0250805Y0071562D01*
X0250654Y0071609D01*
X0250504Y0071660D01*
X0250355Y0071715D01*
X0250208Y0071773D01*
X0250062Y0071835D01*
X0249918Y0071900D01*
X0249776Y0071970D01*
X0249635Y0072042D01*
X0249496Y0072119D01*
X0249360Y0072198D01*
X0249225Y0072282D01*
X0249092Y0072368D01*
X0248962Y0072458D01*
X0248834Y0072551D01*
X0248708Y0072647D01*
X0248585Y0072747D01*
X0248464Y0072849D01*
X0248346Y0072954D01*
X0248231Y0073063D01*
X0248118Y0073174D01*
X0248008Y0073288D01*
X0247901Y0073405D01*
X0247797Y0073524D01*
X0247696Y0073646D01*
X0247599Y0073771D01*
X0247504Y0073898D01*
X0247413Y0074027D01*
X0247324Y0074158D01*
X0247240Y0074292D01*
X0247158Y0074428D01*
X0247080Y0074565D01*
X0247006Y0074705D01*
X0246935Y0074847D01*
X0246867Y0074990D01*
X0246803Y0075135D01*
X0246743Y0075281D01*
X0246687Y0075429D01*
X0246634Y0075578D01*
X0246585Y0075729D01*
X0246540Y0075881D01*
X0246499Y0076034D01*
X0246461Y0076187D01*
X0246428Y0076342D01*
X0246398Y0076498D01*
X0246372Y0076654D01*
X0246351Y0076811D01*
X0246333Y0076968D01*
X0246319Y0077126D01*
X0246309Y0077284D01*
X0246303Y0077442D01*
X0246301Y0077600D01*
X0256301Y0132600D02*
X0256303Y0132758D01*
X0256309Y0132916D01*
X0256319Y0133074D01*
X0256333Y0133232D01*
X0256351Y0133389D01*
X0256372Y0133546D01*
X0256398Y0133702D01*
X0256428Y0133858D01*
X0256461Y0134013D01*
X0256499Y0134166D01*
X0256540Y0134319D01*
X0256585Y0134471D01*
X0256634Y0134622D01*
X0256687Y0134771D01*
X0256743Y0134919D01*
X0256803Y0135065D01*
X0256867Y0135210D01*
X0256935Y0135353D01*
X0257006Y0135495D01*
X0257080Y0135635D01*
X0257158Y0135772D01*
X0257240Y0135908D01*
X0257324Y0136042D01*
X0257413Y0136173D01*
X0257504Y0136302D01*
X0257599Y0136429D01*
X0257696Y0136554D01*
X0257797Y0136676D01*
X0257901Y0136795D01*
X0258008Y0136912D01*
X0258118Y0137026D01*
X0258231Y0137137D01*
X0258346Y0137246D01*
X0258464Y0137351D01*
X0258585Y0137453D01*
X0258708Y0137553D01*
X0258834Y0137649D01*
X0258962Y0137742D01*
X0259092Y0137832D01*
X0259225Y0137918D01*
X0259360Y0138002D01*
X0259496Y0138081D01*
X0259635Y0138158D01*
X0259776Y0138230D01*
X0259918Y0138300D01*
X0260062Y0138365D01*
X0260208Y0138427D01*
X0260355Y0138485D01*
X0260504Y0138540D01*
X0260654Y0138591D01*
X0260805Y0138638D01*
X0260957Y0138681D01*
X0261110Y0138720D01*
X0261265Y0138756D01*
X0261420Y0138787D01*
X0261576Y0138815D01*
X0261732Y0138839D01*
X0261889Y0138859D01*
X0262047Y0138875D01*
X0262204Y0138887D01*
X0262363Y0138895D01*
X0262521Y0138899D01*
X0262679Y0138899D01*
X0262837Y0138895D01*
X0262996Y0138887D01*
X0263153Y0138875D01*
X0263311Y0138859D01*
X0263468Y0138839D01*
X0263624Y0138815D01*
X0263780Y0138787D01*
X0263935Y0138756D01*
X0264090Y0138720D01*
X0264243Y0138681D01*
X0264395Y0138638D01*
X0264546Y0138591D01*
X0264696Y0138540D01*
X0264845Y0138485D01*
X0264992Y0138427D01*
X0265138Y0138365D01*
X0265282Y0138300D01*
X0265424Y0138230D01*
X0265565Y0138158D01*
X0265704Y0138081D01*
X0265840Y0138002D01*
X0265975Y0137918D01*
X0266108Y0137832D01*
X0266238Y0137742D01*
X0266366Y0137649D01*
X0266492Y0137553D01*
X0266615Y0137453D01*
X0266736Y0137351D01*
X0266854Y0137246D01*
X0266969Y0137137D01*
X0267082Y0137026D01*
X0267192Y0136912D01*
X0267299Y0136795D01*
X0267403Y0136676D01*
X0267504Y0136554D01*
X0267601Y0136429D01*
X0267696Y0136302D01*
X0267787Y0136173D01*
X0267876Y0136042D01*
X0267960Y0135908D01*
X0268042Y0135772D01*
X0268120Y0135635D01*
X0268194Y0135495D01*
X0268265Y0135353D01*
X0268333Y0135210D01*
X0268397Y0135065D01*
X0268457Y0134919D01*
X0268513Y0134771D01*
X0268566Y0134622D01*
X0268615Y0134471D01*
X0268660Y0134319D01*
X0268701Y0134166D01*
X0268739Y0134013D01*
X0268772Y0133858D01*
X0268802Y0133702D01*
X0268828Y0133546D01*
X0268849Y0133389D01*
X0268867Y0133232D01*
X0268881Y0133074D01*
X0268891Y0132916D01*
X0268897Y0132758D01*
X0268899Y0132600D01*
X0268897Y0132442D01*
X0268891Y0132284D01*
X0268881Y0132126D01*
X0268867Y0131968D01*
X0268849Y0131811D01*
X0268828Y0131654D01*
X0268802Y0131498D01*
X0268772Y0131342D01*
X0268739Y0131187D01*
X0268701Y0131034D01*
X0268660Y0130881D01*
X0268615Y0130729D01*
X0268566Y0130578D01*
X0268513Y0130429D01*
X0268457Y0130281D01*
X0268397Y0130135D01*
X0268333Y0129990D01*
X0268265Y0129847D01*
X0268194Y0129705D01*
X0268120Y0129565D01*
X0268042Y0129428D01*
X0267960Y0129292D01*
X0267876Y0129158D01*
X0267787Y0129027D01*
X0267696Y0128898D01*
X0267601Y0128771D01*
X0267504Y0128646D01*
X0267403Y0128524D01*
X0267299Y0128405D01*
X0267192Y0128288D01*
X0267082Y0128174D01*
X0266969Y0128063D01*
X0266854Y0127954D01*
X0266736Y0127849D01*
X0266615Y0127747D01*
X0266492Y0127647D01*
X0266366Y0127551D01*
X0266238Y0127458D01*
X0266108Y0127368D01*
X0265975Y0127282D01*
X0265840Y0127198D01*
X0265704Y0127119D01*
X0265565Y0127042D01*
X0265424Y0126970D01*
X0265282Y0126900D01*
X0265138Y0126835D01*
X0264992Y0126773D01*
X0264845Y0126715D01*
X0264696Y0126660D01*
X0264546Y0126609D01*
X0264395Y0126562D01*
X0264243Y0126519D01*
X0264090Y0126480D01*
X0263935Y0126444D01*
X0263780Y0126413D01*
X0263624Y0126385D01*
X0263468Y0126361D01*
X0263311Y0126341D01*
X0263153Y0126325D01*
X0262996Y0126313D01*
X0262837Y0126305D01*
X0262679Y0126301D01*
X0262521Y0126301D01*
X0262363Y0126305D01*
X0262204Y0126313D01*
X0262047Y0126325D01*
X0261889Y0126341D01*
X0261732Y0126361D01*
X0261576Y0126385D01*
X0261420Y0126413D01*
X0261265Y0126444D01*
X0261110Y0126480D01*
X0260957Y0126519D01*
X0260805Y0126562D01*
X0260654Y0126609D01*
X0260504Y0126660D01*
X0260355Y0126715D01*
X0260208Y0126773D01*
X0260062Y0126835D01*
X0259918Y0126900D01*
X0259776Y0126970D01*
X0259635Y0127042D01*
X0259496Y0127119D01*
X0259360Y0127198D01*
X0259225Y0127282D01*
X0259092Y0127368D01*
X0258962Y0127458D01*
X0258834Y0127551D01*
X0258708Y0127647D01*
X0258585Y0127747D01*
X0258464Y0127849D01*
X0258346Y0127954D01*
X0258231Y0128063D01*
X0258118Y0128174D01*
X0258008Y0128288D01*
X0257901Y0128405D01*
X0257797Y0128524D01*
X0257696Y0128646D01*
X0257599Y0128771D01*
X0257504Y0128898D01*
X0257413Y0129027D01*
X0257324Y0129158D01*
X0257240Y0129292D01*
X0257158Y0129428D01*
X0257080Y0129565D01*
X0257006Y0129705D01*
X0256935Y0129847D01*
X0256867Y0129990D01*
X0256803Y0130135D01*
X0256743Y0130281D01*
X0256687Y0130429D01*
X0256634Y0130578D01*
X0256585Y0130729D01*
X0256540Y0130881D01*
X0256499Y0131034D01*
X0256461Y0131187D01*
X0256428Y0131342D01*
X0256398Y0131498D01*
X0256372Y0131654D01*
X0256351Y0131811D01*
X0256333Y0131968D01*
X0256319Y0132126D01*
X0256309Y0132284D01*
X0256303Y0132442D01*
X0256301Y0132600D01*
X0311301Y0127600D02*
X0311303Y0127758D01*
X0311309Y0127916D01*
X0311319Y0128074D01*
X0311333Y0128232D01*
X0311351Y0128389D01*
X0311372Y0128546D01*
X0311398Y0128702D01*
X0311428Y0128858D01*
X0311461Y0129013D01*
X0311499Y0129166D01*
X0311540Y0129319D01*
X0311585Y0129471D01*
X0311634Y0129622D01*
X0311687Y0129771D01*
X0311743Y0129919D01*
X0311803Y0130065D01*
X0311867Y0130210D01*
X0311935Y0130353D01*
X0312006Y0130495D01*
X0312080Y0130635D01*
X0312158Y0130772D01*
X0312240Y0130908D01*
X0312324Y0131042D01*
X0312413Y0131173D01*
X0312504Y0131302D01*
X0312599Y0131429D01*
X0312696Y0131554D01*
X0312797Y0131676D01*
X0312901Y0131795D01*
X0313008Y0131912D01*
X0313118Y0132026D01*
X0313231Y0132137D01*
X0313346Y0132246D01*
X0313464Y0132351D01*
X0313585Y0132453D01*
X0313708Y0132553D01*
X0313834Y0132649D01*
X0313962Y0132742D01*
X0314092Y0132832D01*
X0314225Y0132918D01*
X0314360Y0133002D01*
X0314496Y0133081D01*
X0314635Y0133158D01*
X0314776Y0133230D01*
X0314918Y0133300D01*
X0315062Y0133365D01*
X0315208Y0133427D01*
X0315355Y0133485D01*
X0315504Y0133540D01*
X0315654Y0133591D01*
X0315805Y0133638D01*
X0315957Y0133681D01*
X0316110Y0133720D01*
X0316265Y0133756D01*
X0316420Y0133787D01*
X0316576Y0133815D01*
X0316732Y0133839D01*
X0316889Y0133859D01*
X0317047Y0133875D01*
X0317204Y0133887D01*
X0317363Y0133895D01*
X0317521Y0133899D01*
X0317679Y0133899D01*
X0317837Y0133895D01*
X0317996Y0133887D01*
X0318153Y0133875D01*
X0318311Y0133859D01*
X0318468Y0133839D01*
X0318624Y0133815D01*
X0318780Y0133787D01*
X0318935Y0133756D01*
X0319090Y0133720D01*
X0319243Y0133681D01*
X0319395Y0133638D01*
X0319546Y0133591D01*
X0319696Y0133540D01*
X0319845Y0133485D01*
X0319992Y0133427D01*
X0320138Y0133365D01*
X0320282Y0133300D01*
X0320424Y0133230D01*
X0320565Y0133158D01*
X0320704Y0133081D01*
X0320840Y0133002D01*
X0320975Y0132918D01*
X0321108Y0132832D01*
X0321238Y0132742D01*
X0321366Y0132649D01*
X0321492Y0132553D01*
X0321615Y0132453D01*
X0321736Y0132351D01*
X0321854Y0132246D01*
X0321969Y0132137D01*
X0322082Y0132026D01*
X0322192Y0131912D01*
X0322299Y0131795D01*
X0322403Y0131676D01*
X0322504Y0131554D01*
X0322601Y0131429D01*
X0322696Y0131302D01*
X0322787Y0131173D01*
X0322876Y0131042D01*
X0322960Y0130908D01*
X0323042Y0130772D01*
X0323120Y0130635D01*
X0323194Y0130495D01*
X0323265Y0130353D01*
X0323333Y0130210D01*
X0323397Y0130065D01*
X0323457Y0129919D01*
X0323513Y0129771D01*
X0323566Y0129622D01*
X0323615Y0129471D01*
X0323660Y0129319D01*
X0323701Y0129166D01*
X0323739Y0129013D01*
X0323772Y0128858D01*
X0323802Y0128702D01*
X0323828Y0128546D01*
X0323849Y0128389D01*
X0323867Y0128232D01*
X0323881Y0128074D01*
X0323891Y0127916D01*
X0323897Y0127758D01*
X0323899Y0127600D01*
X0323897Y0127442D01*
X0323891Y0127284D01*
X0323881Y0127126D01*
X0323867Y0126968D01*
X0323849Y0126811D01*
X0323828Y0126654D01*
X0323802Y0126498D01*
X0323772Y0126342D01*
X0323739Y0126187D01*
X0323701Y0126034D01*
X0323660Y0125881D01*
X0323615Y0125729D01*
X0323566Y0125578D01*
X0323513Y0125429D01*
X0323457Y0125281D01*
X0323397Y0125135D01*
X0323333Y0124990D01*
X0323265Y0124847D01*
X0323194Y0124705D01*
X0323120Y0124565D01*
X0323042Y0124428D01*
X0322960Y0124292D01*
X0322876Y0124158D01*
X0322787Y0124027D01*
X0322696Y0123898D01*
X0322601Y0123771D01*
X0322504Y0123646D01*
X0322403Y0123524D01*
X0322299Y0123405D01*
X0322192Y0123288D01*
X0322082Y0123174D01*
X0321969Y0123063D01*
X0321854Y0122954D01*
X0321736Y0122849D01*
X0321615Y0122747D01*
X0321492Y0122647D01*
X0321366Y0122551D01*
X0321238Y0122458D01*
X0321108Y0122368D01*
X0320975Y0122282D01*
X0320840Y0122198D01*
X0320704Y0122119D01*
X0320565Y0122042D01*
X0320424Y0121970D01*
X0320282Y0121900D01*
X0320138Y0121835D01*
X0319992Y0121773D01*
X0319845Y0121715D01*
X0319696Y0121660D01*
X0319546Y0121609D01*
X0319395Y0121562D01*
X0319243Y0121519D01*
X0319090Y0121480D01*
X0318935Y0121444D01*
X0318780Y0121413D01*
X0318624Y0121385D01*
X0318468Y0121361D01*
X0318311Y0121341D01*
X0318153Y0121325D01*
X0317996Y0121313D01*
X0317837Y0121305D01*
X0317679Y0121301D01*
X0317521Y0121301D01*
X0317363Y0121305D01*
X0317204Y0121313D01*
X0317047Y0121325D01*
X0316889Y0121341D01*
X0316732Y0121361D01*
X0316576Y0121385D01*
X0316420Y0121413D01*
X0316265Y0121444D01*
X0316110Y0121480D01*
X0315957Y0121519D01*
X0315805Y0121562D01*
X0315654Y0121609D01*
X0315504Y0121660D01*
X0315355Y0121715D01*
X0315208Y0121773D01*
X0315062Y0121835D01*
X0314918Y0121900D01*
X0314776Y0121970D01*
X0314635Y0122042D01*
X0314496Y0122119D01*
X0314360Y0122198D01*
X0314225Y0122282D01*
X0314092Y0122368D01*
X0313962Y0122458D01*
X0313834Y0122551D01*
X0313708Y0122647D01*
X0313585Y0122747D01*
X0313464Y0122849D01*
X0313346Y0122954D01*
X0313231Y0123063D01*
X0313118Y0123174D01*
X0313008Y0123288D01*
X0312901Y0123405D01*
X0312797Y0123524D01*
X0312696Y0123646D01*
X0312599Y0123771D01*
X0312504Y0123898D01*
X0312413Y0124027D01*
X0312324Y0124158D01*
X0312240Y0124292D01*
X0312158Y0124428D01*
X0312080Y0124565D01*
X0312006Y0124705D01*
X0311935Y0124847D01*
X0311867Y0124990D01*
X0311803Y0125135D01*
X0311743Y0125281D01*
X0311687Y0125429D01*
X0311634Y0125578D01*
X0311585Y0125729D01*
X0311540Y0125881D01*
X0311499Y0126034D01*
X0311461Y0126187D01*
X0311428Y0126342D01*
X0311398Y0126498D01*
X0311372Y0126654D01*
X0311351Y0126811D01*
X0311333Y0126968D01*
X0311319Y0127126D01*
X0311309Y0127284D01*
X0311303Y0127442D01*
X0311301Y0127600D01*
X0366301Y0127600D02*
X0366303Y0127758D01*
X0366309Y0127916D01*
X0366319Y0128074D01*
X0366333Y0128232D01*
X0366351Y0128389D01*
X0366372Y0128546D01*
X0366398Y0128702D01*
X0366428Y0128858D01*
X0366461Y0129013D01*
X0366499Y0129166D01*
X0366540Y0129319D01*
X0366585Y0129471D01*
X0366634Y0129622D01*
X0366687Y0129771D01*
X0366743Y0129919D01*
X0366803Y0130065D01*
X0366867Y0130210D01*
X0366935Y0130353D01*
X0367006Y0130495D01*
X0367080Y0130635D01*
X0367158Y0130772D01*
X0367240Y0130908D01*
X0367324Y0131042D01*
X0367413Y0131173D01*
X0367504Y0131302D01*
X0367599Y0131429D01*
X0367696Y0131554D01*
X0367797Y0131676D01*
X0367901Y0131795D01*
X0368008Y0131912D01*
X0368118Y0132026D01*
X0368231Y0132137D01*
X0368346Y0132246D01*
X0368464Y0132351D01*
X0368585Y0132453D01*
X0368708Y0132553D01*
X0368834Y0132649D01*
X0368962Y0132742D01*
X0369092Y0132832D01*
X0369225Y0132918D01*
X0369360Y0133002D01*
X0369496Y0133081D01*
X0369635Y0133158D01*
X0369776Y0133230D01*
X0369918Y0133300D01*
X0370062Y0133365D01*
X0370208Y0133427D01*
X0370355Y0133485D01*
X0370504Y0133540D01*
X0370654Y0133591D01*
X0370805Y0133638D01*
X0370957Y0133681D01*
X0371110Y0133720D01*
X0371265Y0133756D01*
X0371420Y0133787D01*
X0371576Y0133815D01*
X0371732Y0133839D01*
X0371889Y0133859D01*
X0372047Y0133875D01*
X0372204Y0133887D01*
X0372363Y0133895D01*
X0372521Y0133899D01*
X0372679Y0133899D01*
X0372837Y0133895D01*
X0372996Y0133887D01*
X0373153Y0133875D01*
X0373311Y0133859D01*
X0373468Y0133839D01*
X0373624Y0133815D01*
X0373780Y0133787D01*
X0373935Y0133756D01*
X0374090Y0133720D01*
X0374243Y0133681D01*
X0374395Y0133638D01*
X0374546Y0133591D01*
X0374696Y0133540D01*
X0374845Y0133485D01*
X0374992Y0133427D01*
X0375138Y0133365D01*
X0375282Y0133300D01*
X0375424Y0133230D01*
X0375565Y0133158D01*
X0375704Y0133081D01*
X0375840Y0133002D01*
X0375975Y0132918D01*
X0376108Y0132832D01*
X0376238Y0132742D01*
X0376366Y0132649D01*
X0376492Y0132553D01*
X0376615Y0132453D01*
X0376736Y0132351D01*
X0376854Y0132246D01*
X0376969Y0132137D01*
X0377082Y0132026D01*
X0377192Y0131912D01*
X0377299Y0131795D01*
X0377403Y0131676D01*
X0377504Y0131554D01*
X0377601Y0131429D01*
X0377696Y0131302D01*
X0377787Y0131173D01*
X0377876Y0131042D01*
X0377960Y0130908D01*
X0378042Y0130772D01*
X0378120Y0130635D01*
X0378194Y0130495D01*
X0378265Y0130353D01*
X0378333Y0130210D01*
X0378397Y0130065D01*
X0378457Y0129919D01*
X0378513Y0129771D01*
X0378566Y0129622D01*
X0378615Y0129471D01*
X0378660Y0129319D01*
X0378701Y0129166D01*
X0378739Y0129013D01*
X0378772Y0128858D01*
X0378802Y0128702D01*
X0378828Y0128546D01*
X0378849Y0128389D01*
X0378867Y0128232D01*
X0378881Y0128074D01*
X0378891Y0127916D01*
X0378897Y0127758D01*
X0378899Y0127600D01*
X0378897Y0127442D01*
X0378891Y0127284D01*
X0378881Y0127126D01*
X0378867Y0126968D01*
X0378849Y0126811D01*
X0378828Y0126654D01*
X0378802Y0126498D01*
X0378772Y0126342D01*
X0378739Y0126187D01*
X0378701Y0126034D01*
X0378660Y0125881D01*
X0378615Y0125729D01*
X0378566Y0125578D01*
X0378513Y0125429D01*
X0378457Y0125281D01*
X0378397Y0125135D01*
X0378333Y0124990D01*
X0378265Y0124847D01*
X0378194Y0124705D01*
X0378120Y0124565D01*
X0378042Y0124428D01*
X0377960Y0124292D01*
X0377876Y0124158D01*
X0377787Y0124027D01*
X0377696Y0123898D01*
X0377601Y0123771D01*
X0377504Y0123646D01*
X0377403Y0123524D01*
X0377299Y0123405D01*
X0377192Y0123288D01*
X0377082Y0123174D01*
X0376969Y0123063D01*
X0376854Y0122954D01*
X0376736Y0122849D01*
X0376615Y0122747D01*
X0376492Y0122647D01*
X0376366Y0122551D01*
X0376238Y0122458D01*
X0376108Y0122368D01*
X0375975Y0122282D01*
X0375840Y0122198D01*
X0375704Y0122119D01*
X0375565Y0122042D01*
X0375424Y0121970D01*
X0375282Y0121900D01*
X0375138Y0121835D01*
X0374992Y0121773D01*
X0374845Y0121715D01*
X0374696Y0121660D01*
X0374546Y0121609D01*
X0374395Y0121562D01*
X0374243Y0121519D01*
X0374090Y0121480D01*
X0373935Y0121444D01*
X0373780Y0121413D01*
X0373624Y0121385D01*
X0373468Y0121361D01*
X0373311Y0121341D01*
X0373153Y0121325D01*
X0372996Y0121313D01*
X0372837Y0121305D01*
X0372679Y0121301D01*
X0372521Y0121301D01*
X0372363Y0121305D01*
X0372204Y0121313D01*
X0372047Y0121325D01*
X0371889Y0121341D01*
X0371732Y0121361D01*
X0371576Y0121385D01*
X0371420Y0121413D01*
X0371265Y0121444D01*
X0371110Y0121480D01*
X0370957Y0121519D01*
X0370805Y0121562D01*
X0370654Y0121609D01*
X0370504Y0121660D01*
X0370355Y0121715D01*
X0370208Y0121773D01*
X0370062Y0121835D01*
X0369918Y0121900D01*
X0369776Y0121970D01*
X0369635Y0122042D01*
X0369496Y0122119D01*
X0369360Y0122198D01*
X0369225Y0122282D01*
X0369092Y0122368D01*
X0368962Y0122458D01*
X0368834Y0122551D01*
X0368708Y0122647D01*
X0368585Y0122747D01*
X0368464Y0122849D01*
X0368346Y0122954D01*
X0368231Y0123063D01*
X0368118Y0123174D01*
X0368008Y0123288D01*
X0367901Y0123405D01*
X0367797Y0123524D01*
X0367696Y0123646D01*
X0367599Y0123771D01*
X0367504Y0123898D01*
X0367413Y0124027D01*
X0367324Y0124158D01*
X0367240Y0124292D01*
X0367158Y0124428D01*
X0367080Y0124565D01*
X0367006Y0124705D01*
X0366935Y0124847D01*
X0366867Y0124990D01*
X0366803Y0125135D01*
X0366743Y0125281D01*
X0366687Y0125429D01*
X0366634Y0125578D01*
X0366585Y0125729D01*
X0366540Y0125881D01*
X0366499Y0126034D01*
X0366461Y0126187D01*
X0366428Y0126342D01*
X0366398Y0126498D01*
X0366372Y0126654D01*
X0366351Y0126811D01*
X0366333Y0126968D01*
X0366319Y0127126D01*
X0366309Y0127284D01*
X0366303Y0127442D01*
X0366301Y0127600D01*
X0366301Y0077600D02*
X0366303Y0077758D01*
X0366309Y0077916D01*
X0366319Y0078074D01*
X0366333Y0078232D01*
X0366351Y0078389D01*
X0366372Y0078546D01*
X0366398Y0078702D01*
X0366428Y0078858D01*
X0366461Y0079013D01*
X0366499Y0079166D01*
X0366540Y0079319D01*
X0366585Y0079471D01*
X0366634Y0079622D01*
X0366687Y0079771D01*
X0366743Y0079919D01*
X0366803Y0080065D01*
X0366867Y0080210D01*
X0366935Y0080353D01*
X0367006Y0080495D01*
X0367080Y0080635D01*
X0367158Y0080772D01*
X0367240Y0080908D01*
X0367324Y0081042D01*
X0367413Y0081173D01*
X0367504Y0081302D01*
X0367599Y0081429D01*
X0367696Y0081554D01*
X0367797Y0081676D01*
X0367901Y0081795D01*
X0368008Y0081912D01*
X0368118Y0082026D01*
X0368231Y0082137D01*
X0368346Y0082246D01*
X0368464Y0082351D01*
X0368585Y0082453D01*
X0368708Y0082553D01*
X0368834Y0082649D01*
X0368962Y0082742D01*
X0369092Y0082832D01*
X0369225Y0082918D01*
X0369360Y0083002D01*
X0369496Y0083081D01*
X0369635Y0083158D01*
X0369776Y0083230D01*
X0369918Y0083300D01*
X0370062Y0083365D01*
X0370208Y0083427D01*
X0370355Y0083485D01*
X0370504Y0083540D01*
X0370654Y0083591D01*
X0370805Y0083638D01*
X0370957Y0083681D01*
X0371110Y0083720D01*
X0371265Y0083756D01*
X0371420Y0083787D01*
X0371576Y0083815D01*
X0371732Y0083839D01*
X0371889Y0083859D01*
X0372047Y0083875D01*
X0372204Y0083887D01*
X0372363Y0083895D01*
X0372521Y0083899D01*
X0372679Y0083899D01*
X0372837Y0083895D01*
X0372996Y0083887D01*
X0373153Y0083875D01*
X0373311Y0083859D01*
X0373468Y0083839D01*
X0373624Y0083815D01*
X0373780Y0083787D01*
X0373935Y0083756D01*
X0374090Y0083720D01*
X0374243Y0083681D01*
X0374395Y0083638D01*
X0374546Y0083591D01*
X0374696Y0083540D01*
X0374845Y0083485D01*
X0374992Y0083427D01*
X0375138Y0083365D01*
X0375282Y0083300D01*
X0375424Y0083230D01*
X0375565Y0083158D01*
X0375704Y0083081D01*
X0375840Y0083002D01*
X0375975Y0082918D01*
X0376108Y0082832D01*
X0376238Y0082742D01*
X0376366Y0082649D01*
X0376492Y0082553D01*
X0376615Y0082453D01*
X0376736Y0082351D01*
X0376854Y0082246D01*
X0376969Y0082137D01*
X0377082Y0082026D01*
X0377192Y0081912D01*
X0377299Y0081795D01*
X0377403Y0081676D01*
X0377504Y0081554D01*
X0377601Y0081429D01*
X0377696Y0081302D01*
X0377787Y0081173D01*
X0377876Y0081042D01*
X0377960Y0080908D01*
X0378042Y0080772D01*
X0378120Y0080635D01*
X0378194Y0080495D01*
X0378265Y0080353D01*
X0378333Y0080210D01*
X0378397Y0080065D01*
X0378457Y0079919D01*
X0378513Y0079771D01*
X0378566Y0079622D01*
X0378615Y0079471D01*
X0378660Y0079319D01*
X0378701Y0079166D01*
X0378739Y0079013D01*
X0378772Y0078858D01*
X0378802Y0078702D01*
X0378828Y0078546D01*
X0378849Y0078389D01*
X0378867Y0078232D01*
X0378881Y0078074D01*
X0378891Y0077916D01*
X0378897Y0077758D01*
X0378899Y0077600D01*
X0378897Y0077442D01*
X0378891Y0077284D01*
X0378881Y0077126D01*
X0378867Y0076968D01*
X0378849Y0076811D01*
X0378828Y0076654D01*
X0378802Y0076498D01*
X0378772Y0076342D01*
X0378739Y0076187D01*
X0378701Y0076034D01*
X0378660Y0075881D01*
X0378615Y0075729D01*
X0378566Y0075578D01*
X0378513Y0075429D01*
X0378457Y0075281D01*
X0378397Y0075135D01*
X0378333Y0074990D01*
X0378265Y0074847D01*
X0378194Y0074705D01*
X0378120Y0074565D01*
X0378042Y0074428D01*
X0377960Y0074292D01*
X0377876Y0074158D01*
X0377787Y0074027D01*
X0377696Y0073898D01*
X0377601Y0073771D01*
X0377504Y0073646D01*
X0377403Y0073524D01*
X0377299Y0073405D01*
X0377192Y0073288D01*
X0377082Y0073174D01*
X0376969Y0073063D01*
X0376854Y0072954D01*
X0376736Y0072849D01*
X0376615Y0072747D01*
X0376492Y0072647D01*
X0376366Y0072551D01*
X0376238Y0072458D01*
X0376108Y0072368D01*
X0375975Y0072282D01*
X0375840Y0072198D01*
X0375704Y0072119D01*
X0375565Y0072042D01*
X0375424Y0071970D01*
X0375282Y0071900D01*
X0375138Y0071835D01*
X0374992Y0071773D01*
X0374845Y0071715D01*
X0374696Y0071660D01*
X0374546Y0071609D01*
X0374395Y0071562D01*
X0374243Y0071519D01*
X0374090Y0071480D01*
X0373935Y0071444D01*
X0373780Y0071413D01*
X0373624Y0071385D01*
X0373468Y0071361D01*
X0373311Y0071341D01*
X0373153Y0071325D01*
X0372996Y0071313D01*
X0372837Y0071305D01*
X0372679Y0071301D01*
X0372521Y0071301D01*
X0372363Y0071305D01*
X0372204Y0071313D01*
X0372047Y0071325D01*
X0371889Y0071341D01*
X0371732Y0071361D01*
X0371576Y0071385D01*
X0371420Y0071413D01*
X0371265Y0071444D01*
X0371110Y0071480D01*
X0370957Y0071519D01*
X0370805Y0071562D01*
X0370654Y0071609D01*
X0370504Y0071660D01*
X0370355Y0071715D01*
X0370208Y0071773D01*
X0370062Y0071835D01*
X0369918Y0071900D01*
X0369776Y0071970D01*
X0369635Y0072042D01*
X0369496Y0072119D01*
X0369360Y0072198D01*
X0369225Y0072282D01*
X0369092Y0072368D01*
X0368962Y0072458D01*
X0368834Y0072551D01*
X0368708Y0072647D01*
X0368585Y0072747D01*
X0368464Y0072849D01*
X0368346Y0072954D01*
X0368231Y0073063D01*
X0368118Y0073174D01*
X0368008Y0073288D01*
X0367901Y0073405D01*
X0367797Y0073524D01*
X0367696Y0073646D01*
X0367599Y0073771D01*
X0367504Y0073898D01*
X0367413Y0074027D01*
X0367324Y0074158D01*
X0367240Y0074292D01*
X0367158Y0074428D01*
X0367080Y0074565D01*
X0367006Y0074705D01*
X0366935Y0074847D01*
X0366867Y0074990D01*
X0366803Y0075135D01*
X0366743Y0075281D01*
X0366687Y0075429D01*
X0366634Y0075578D01*
X0366585Y0075729D01*
X0366540Y0075881D01*
X0366499Y0076034D01*
X0366461Y0076187D01*
X0366428Y0076342D01*
X0366398Y0076498D01*
X0366372Y0076654D01*
X0366351Y0076811D01*
X0366333Y0076968D01*
X0366319Y0077126D01*
X0366309Y0077284D01*
X0366303Y0077442D01*
X0366301Y0077600D01*
X0366301Y0027600D02*
X0366303Y0027758D01*
X0366309Y0027916D01*
X0366319Y0028074D01*
X0366333Y0028232D01*
X0366351Y0028389D01*
X0366372Y0028546D01*
X0366398Y0028702D01*
X0366428Y0028858D01*
X0366461Y0029013D01*
X0366499Y0029166D01*
X0366540Y0029319D01*
X0366585Y0029471D01*
X0366634Y0029622D01*
X0366687Y0029771D01*
X0366743Y0029919D01*
X0366803Y0030065D01*
X0366867Y0030210D01*
X0366935Y0030353D01*
X0367006Y0030495D01*
X0367080Y0030635D01*
X0367158Y0030772D01*
X0367240Y0030908D01*
X0367324Y0031042D01*
X0367413Y0031173D01*
X0367504Y0031302D01*
X0367599Y0031429D01*
X0367696Y0031554D01*
X0367797Y0031676D01*
X0367901Y0031795D01*
X0368008Y0031912D01*
X0368118Y0032026D01*
X0368231Y0032137D01*
X0368346Y0032246D01*
X0368464Y0032351D01*
X0368585Y0032453D01*
X0368708Y0032553D01*
X0368834Y0032649D01*
X0368962Y0032742D01*
X0369092Y0032832D01*
X0369225Y0032918D01*
X0369360Y0033002D01*
X0369496Y0033081D01*
X0369635Y0033158D01*
X0369776Y0033230D01*
X0369918Y0033300D01*
X0370062Y0033365D01*
X0370208Y0033427D01*
X0370355Y0033485D01*
X0370504Y0033540D01*
X0370654Y0033591D01*
X0370805Y0033638D01*
X0370957Y0033681D01*
X0371110Y0033720D01*
X0371265Y0033756D01*
X0371420Y0033787D01*
X0371576Y0033815D01*
X0371732Y0033839D01*
X0371889Y0033859D01*
X0372047Y0033875D01*
X0372204Y0033887D01*
X0372363Y0033895D01*
X0372521Y0033899D01*
X0372679Y0033899D01*
X0372837Y0033895D01*
X0372996Y0033887D01*
X0373153Y0033875D01*
X0373311Y0033859D01*
X0373468Y0033839D01*
X0373624Y0033815D01*
X0373780Y0033787D01*
X0373935Y0033756D01*
X0374090Y0033720D01*
X0374243Y0033681D01*
X0374395Y0033638D01*
X0374546Y0033591D01*
X0374696Y0033540D01*
X0374845Y0033485D01*
X0374992Y0033427D01*
X0375138Y0033365D01*
X0375282Y0033300D01*
X0375424Y0033230D01*
X0375565Y0033158D01*
X0375704Y0033081D01*
X0375840Y0033002D01*
X0375975Y0032918D01*
X0376108Y0032832D01*
X0376238Y0032742D01*
X0376366Y0032649D01*
X0376492Y0032553D01*
X0376615Y0032453D01*
X0376736Y0032351D01*
X0376854Y0032246D01*
X0376969Y0032137D01*
X0377082Y0032026D01*
X0377192Y0031912D01*
X0377299Y0031795D01*
X0377403Y0031676D01*
X0377504Y0031554D01*
X0377601Y0031429D01*
X0377696Y0031302D01*
X0377787Y0031173D01*
X0377876Y0031042D01*
X0377960Y0030908D01*
X0378042Y0030772D01*
X0378120Y0030635D01*
X0378194Y0030495D01*
X0378265Y0030353D01*
X0378333Y0030210D01*
X0378397Y0030065D01*
X0378457Y0029919D01*
X0378513Y0029771D01*
X0378566Y0029622D01*
X0378615Y0029471D01*
X0378660Y0029319D01*
X0378701Y0029166D01*
X0378739Y0029013D01*
X0378772Y0028858D01*
X0378802Y0028702D01*
X0378828Y0028546D01*
X0378849Y0028389D01*
X0378867Y0028232D01*
X0378881Y0028074D01*
X0378891Y0027916D01*
X0378897Y0027758D01*
X0378899Y0027600D01*
X0378897Y0027442D01*
X0378891Y0027284D01*
X0378881Y0027126D01*
X0378867Y0026968D01*
X0378849Y0026811D01*
X0378828Y0026654D01*
X0378802Y0026498D01*
X0378772Y0026342D01*
X0378739Y0026187D01*
X0378701Y0026034D01*
X0378660Y0025881D01*
X0378615Y0025729D01*
X0378566Y0025578D01*
X0378513Y0025429D01*
X0378457Y0025281D01*
X0378397Y0025135D01*
X0378333Y0024990D01*
X0378265Y0024847D01*
X0378194Y0024705D01*
X0378120Y0024565D01*
X0378042Y0024428D01*
X0377960Y0024292D01*
X0377876Y0024158D01*
X0377787Y0024027D01*
X0377696Y0023898D01*
X0377601Y0023771D01*
X0377504Y0023646D01*
X0377403Y0023524D01*
X0377299Y0023405D01*
X0377192Y0023288D01*
X0377082Y0023174D01*
X0376969Y0023063D01*
X0376854Y0022954D01*
X0376736Y0022849D01*
X0376615Y0022747D01*
X0376492Y0022647D01*
X0376366Y0022551D01*
X0376238Y0022458D01*
X0376108Y0022368D01*
X0375975Y0022282D01*
X0375840Y0022198D01*
X0375704Y0022119D01*
X0375565Y0022042D01*
X0375424Y0021970D01*
X0375282Y0021900D01*
X0375138Y0021835D01*
X0374992Y0021773D01*
X0374845Y0021715D01*
X0374696Y0021660D01*
X0374546Y0021609D01*
X0374395Y0021562D01*
X0374243Y0021519D01*
X0374090Y0021480D01*
X0373935Y0021444D01*
X0373780Y0021413D01*
X0373624Y0021385D01*
X0373468Y0021361D01*
X0373311Y0021341D01*
X0373153Y0021325D01*
X0372996Y0021313D01*
X0372837Y0021305D01*
X0372679Y0021301D01*
X0372521Y0021301D01*
X0372363Y0021305D01*
X0372204Y0021313D01*
X0372047Y0021325D01*
X0371889Y0021341D01*
X0371732Y0021361D01*
X0371576Y0021385D01*
X0371420Y0021413D01*
X0371265Y0021444D01*
X0371110Y0021480D01*
X0370957Y0021519D01*
X0370805Y0021562D01*
X0370654Y0021609D01*
X0370504Y0021660D01*
X0370355Y0021715D01*
X0370208Y0021773D01*
X0370062Y0021835D01*
X0369918Y0021900D01*
X0369776Y0021970D01*
X0369635Y0022042D01*
X0369496Y0022119D01*
X0369360Y0022198D01*
X0369225Y0022282D01*
X0369092Y0022368D01*
X0368962Y0022458D01*
X0368834Y0022551D01*
X0368708Y0022647D01*
X0368585Y0022747D01*
X0368464Y0022849D01*
X0368346Y0022954D01*
X0368231Y0023063D01*
X0368118Y0023174D01*
X0368008Y0023288D01*
X0367901Y0023405D01*
X0367797Y0023524D01*
X0367696Y0023646D01*
X0367599Y0023771D01*
X0367504Y0023898D01*
X0367413Y0024027D01*
X0367324Y0024158D01*
X0367240Y0024292D01*
X0367158Y0024428D01*
X0367080Y0024565D01*
X0367006Y0024705D01*
X0366935Y0024847D01*
X0366867Y0024990D01*
X0366803Y0025135D01*
X0366743Y0025281D01*
X0366687Y0025429D01*
X0366634Y0025578D01*
X0366585Y0025729D01*
X0366540Y0025881D01*
X0366499Y0026034D01*
X0366461Y0026187D01*
X0366428Y0026342D01*
X0366398Y0026498D01*
X0366372Y0026654D01*
X0366351Y0026811D01*
X0366333Y0026968D01*
X0366319Y0027126D01*
X0366309Y0027284D01*
X0366303Y0027442D01*
X0366301Y0027600D01*
X0256301Y0257600D02*
X0256303Y0257758D01*
X0256309Y0257916D01*
X0256319Y0258074D01*
X0256333Y0258232D01*
X0256351Y0258389D01*
X0256372Y0258546D01*
X0256398Y0258702D01*
X0256428Y0258858D01*
X0256461Y0259013D01*
X0256499Y0259166D01*
X0256540Y0259319D01*
X0256585Y0259471D01*
X0256634Y0259622D01*
X0256687Y0259771D01*
X0256743Y0259919D01*
X0256803Y0260065D01*
X0256867Y0260210D01*
X0256935Y0260353D01*
X0257006Y0260495D01*
X0257080Y0260635D01*
X0257158Y0260772D01*
X0257240Y0260908D01*
X0257324Y0261042D01*
X0257413Y0261173D01*
X0257504Y0261302D01*
X0257599Y0261429D01*
X0257696Y0261554D01*
X0257797Y0261676D01*
X0257901Y0261795D01*
X0258008Y0261912D01*
X0258118Y0262026D01*
X0258231Y0262137D01*
X0258346Y0262246D01*
X0258464Y0262351D01*
X0258585Y0262453D01*
X0258708Y0262553D01*
X0258834Y0262649D01*
X0258962Y0262742D01*
X0259092Y0262832D01*
X0259225Y0262918D01*
X0259360Y0263002D01*
X0259496Y0263081D01*
X0259635Y0263158D01*
X0259776Y0263230D01*
X0259918Y0263300D01*
X0260062Y0263365D01*
X0260208Y0263427D01*
X0260355Y0263485D01*
X0260504Y0263540D01*
X0260654Y0263591D01*
X0260805Y0263638D01*
X0260957Y0263681D01*
X0261110Y0263720D01*
X0261265Y0263756D01*
X0261420Y0263787D01*
X0261576Y0263815D01*
X0261732Y0263839D01*
X0261889Y0263859D01*
X0262047Y0263875D01*
X0262204Y0263887D01*
X0262363Y0263895D01*
X0262521Y0263899D01*
X0262679Y0263899D01*
X0262837Y0263895D01*
X0262996Y0263887D01*
X0263153Y0263875D01*
X0263311Y0263859D01*
X0263468Y0263839D01*
X0263624Y0263815D01*
X0263780Y0263787D01*
X0263935Y0263756D01*
X0264090Y0263720D01*
X0264243Y0263681D01*
X0264395Y0263638D01*
X0264546Y0263591D01*
X0264696Y0263540D01*
X0264845Y0263485D01*
X0264992Y0263427D01*
X0265138Y0263365D01*
X0265282Y0263300D01*
X0265424Y0263230D01*
X0265565Y0263158D01*
X0265704Y0263081D01*
X0265840Y0263002D01*
X0265975Y0262918D01*
X0266108Y0262832D01*
X0266238Y0262742D01*
X0266366Y0262649D01*
X0266492Y0262553D01*
X0266615Y0262453D01*
X0266736Y0262351D01*
X0266854Y0262246D01*
X0266969Y0262137D01*
X0267082Y0262026D01*
X0267192Y0261912D01*
X0267299Y0261795D01*
X0267403Y0261676D01*
X0267504Y0261554D01*
X0267601Y0261429D01*
X0267696Y0261302D01*
X0267787Y0261173D01*
X0267876Y0261042D01*
X0267960Y0260908D01*
X0268042Y0260772D01*
X0268120Y0260635D01*
X0268194Y0260495D01*
X0268265Y0260353D01*
X0268333Y0260210D01*
X0268397Y0260065D01*
X0268457Y0259919D01*
X0268513Y0259771D01*
X0268566Y0259622D01*
X0268615Y0259471D01*
X0268660Y0259319D01*
X0268701Y0259166D01*
X0268739Y0259013D01*
X0268772Y0258858D01*
X0268802Y0258702D01*
X0268828Y0258546D01*
X0268849Y0258389D01*
X0268867Y0258232D01*
X0268881Y0258074D01*
X0268891Y0257916D01*
X0268897Y0257758D01*
X0268899Y0257600D01*
X0268897Y0257442D01*
X0268891Y0257284D01*
X0268881Y0257126D01*
X0268867Y0256968D01*
X0268849Y0256811D01*
X0268828Y0256654D01*
X0268802Y0256498D01*
X0268772Y0256342D01*
X0268739Y0256187D01*
X0268701Y0256034D01*
X0268660Y0255881D01*
X0268615Y0255729D01*
X0268566Y0255578D01*
X0268513Y0255429D01*
X0268457Y0255281D01*
X0268397Y0255135D01*
X0268333Y0254990D01*
X0268265Y0254847D01*
X0268194Y0254705D01*
X0268120Y0254565D01*
X0268042Y0254428D01*
X0267960Y0254292D01*
X0267876Y0254158D01*
X0267787Y0254027D01*
X0267696Y0253898D01*
X0267601Y0253771D01*
X0267504Y0253646D01*
X0267403Y0253524D01*
X0267299Y0253405D01*
X0267192Y0253288D01*
X0267082Y0253174D01*
X0266969Y0253063D01*
X0266854Y0252954D01*
X0266736Y0252849D01*
X0266615Y0252747D01*
X0266492Y0252647D01*
X0266366Y0252551D01*
X0266238Y0252458D01*
X0266108Y0252368D01*
X0265975Y0252282D01*
X0265840Y0252198D01*
X0265704Y0252119D01*
X0265565Y0252042D01*
X0265424Y0251970D01*
X0265282Y0251900D01*
X0265138Y0251835D01*
X0264992Y0251773D01*
X0264845Y0251715D01*
X0264696Y0251660D01*
X0264546Y0251609D01*
X0264395Y0251562D01*
X0264243Y0251519D01*
X0264090Y0251480D01*
X0263935Y0251444D01*
X0263780Y0251413D01*
X0263624Y0251385D01*
X0263468Y0251361D01*
X0263311Y0251341D01*
X0263153Y0251325D01*
X0262996Y0251313D01*
X0262837Y0251305D01*
X0262679Y0251301D01*
X0262521Y0251301D01*
X0262363Y0251305D01*
X0262204Y0251313D01*
X0262047Y0251325D01*
X0261889Y0251341D01*
X0261732Y0251361D01*
X0261576Y0251385D01*
X0261420Y0251413D01*
X0261265Y0251444D01*
X0261110Y0251480D01*
X0260957Y0251519D01*
X0260805Y0251562D01*
X0260654Y0251609D01*
X0260504Y0251660D01*
X0260355Y0251715D01*
X0260208Y0251773D01*
X0260062Y0251835D01*
X0259918Y0251900D01*
X0259776Y0251970D01*
X0259635Y0252042D01*
X0259496Y0252119D01*
X0259360Y0252198D01*
X0259225Y0252282D01*
X0259092Y0252368D01*
X0258962Y0252458D01*
X0258834Y0252551D01*
X0258708Y0252647D01*
X0258585Y0252747D01*
X0258464Y0252849D01*
X0258346Y0252954D01*
X0258231Y0253063D01*
X0258118Y0253174D01*
X0258008Y0253288D01*
X0257901Y0253405D01*
X0257797Y0253524D01*
X0257696Y0253646D01*
X0257599Y0253771D01*
X0257504Y0253898D01*
X0257413Y0254027D01*
X0257324Y0254158D01*
X0257240Y0254292D01*
X0257158Y0254428D01*
X0257080Y0254565D01*
X0257006Y0254705D01*
X0256935Y0254847D01*
X0256867Y0254990D01*
X0256803Y0255135D01*
X0256743Y0255281D01*
X0256687Y0255429D01*
X0256634Y0255578D01*
X0256585Y0255729D01*
X0256540Y0255881D01*
X0256499Y0256034D01*
X0256461Y0256187D01*
X0256428Y0256342D01*
X0256398Y0256498D01*
X0256372Y0256654D01*
X0256351Y0256811D01*
X0256333Y0256968D01*
X0256319Y0257126D01*
X0256309Y0257284D01*
X0256303Y0257442D01*
X0256301Y0257600D01*
X0311301Y0297600D02*
X0311303Y0297758D01*
X0311309Y0297916D01*
X0311319Y0298074D01*
X0311333Y0298232D01*
X0311351Y0298389D01*
X0311372Y0298546D01*
X0311398Y0298702D01*
X0311428Y0298858D01*
X0311461Y0299013D01*
X0311499Y0299166D01*
X0311540Y0299319D01*
X0311585Y0299471D01*
X0311634Y0299622D01*
X0311687Y0299771D01*
X0311743Y0299919D01*
X0311803Y0300065D01*
X0311867Y0300210D01*
X0311935Y0300353D01*
X0312006Y0300495D01*
X0312080Y0300635D01*
X0312158Y0300772D01*
X0312240Y0300908D01*
X0312324Y0301042D01*
X0312413Y0301173D01*
X0312504Y0301302D01*
X0312599Y0301429D01*
X0312696Y0301554D01*
X0312797Y0301676D01*
X0312901Y0301795D01*
X0313008Y0301912D01*
X0313118Y0302026D01*
X0313231Y0302137D01*
X0313346Y0302246D01*
X0313464Y0302351D01*
X0313585Y0302453D01*
X0313708Y0302553D01*
X0313834Y0302649D01*
X0313962Y0302742D01*
X0314092Y0302832D01*
X0314225Y0302918D01*
X0314360Y0303002D01*
X0314496Y0303081D01*
X0314635Y0303158D01*
X0314776Y0303230D01*
X0314918Y0303300D01*
X0315062Y0303365D01*
X0315208Y0303427D01*
X0315355Y0303485D01*
X0315504Y0303540D01*
X0315654Y0303591D01*
X0315805Y0303638D01*
X0315957Y0303681D01*
X0316110Y0303720D01*
X0316265Y0303756D01*
X0316420Y0303787D01*
X0316576Y0303815D01*
X0316732Y0303839D01*
X0316889Y0303859D01*
X0317047Y0303875D01*
X0317204Y0303887D01*
X0317363Y0303895D01*
X0317521Y0303899D01*
X0317679Y0303899D01*
X0317837Y0303895D01*
X0317996Y0303887D01*
X0318153Y0303875D01*
X0318311Y0303859D01*
X0318468Y0303839D01*
X0318624Y0303815D01*
X0318780Y0303787D01*
X0318935Y0303756D01*
X0319090Y0303720D01*
X0319243Y0303681D01*
X0319395Y0303638D01*
X0319546Y0303591D01*
X0319696Y0303540D01*
X0319845Y0303485D01*
X0319992Y0303427D01*
X0320138Y0303365D01*
X0320282Y0303300D01*
X0320424Y0303230D01*
X0320565Y0303158D01*
X0320704Y0303081D01*
X0320840Y0303002D01*
X0320975Y0302918D01*
X0321108Y0302832D01*
X0321238Y0302742D01*
X0321366Y0302649D01*
X0321492Y0302553D01*
X0321615Y0302453D01*
X0321736Y0302351D01*
X0321854Y0302246D01*
X0321969Y0302137D01*
X0322082Y0302026D01*
X0322192Y0301912D01*
X0322299Y0301795D01*
X0322403Y0301676D01*
X0322504Y0301554D01*
X0322601Y0301429D01*
X0322696Y0301302D01*
X0322787Y0301173D01*
X0322876Y0301042D01*
X0322960Y0300908D01*
X0323042Y0300772D01*
X0323120Y0300635D01*
X0323194Y0300495D01*
X0323265Y0300353D01*
X0323333Y0300210D01*
X0323397Y0300065D01*
X0323457Y0299919D01*
X0323513Y0299771D01*
X0323566Y0299622D01*
X0323615Y0299471D01*
X0323660Y0299319D01*
X0323701Y0299166D01*
X0323739Y0299013D01*
X0323772Y0298858D01*
X0323802Y0298702D01*
X0323828Y0298546D01*
X0323849Y0298389D01*
X0323867Y0298232D01*
X0323881Y0298074D01*
X0323891Y0297916D01*
X0323897Y0297758D01*
X0323899Y0297600D01*
X0323897Y0297442D01*
X0323891Y0297284D01*
X0323881Y0297126D01*
X0323867Y0296968D01*
X0323849Y0296811D01*
X0323828Y0296654D01*
X0323802Y0296498D01*
X0323772Y0296342D01*
X0323739Y0296187D01*
X0323701Y0296034D01*
X0323660Y0295881D01*
X0323615Y0295729D01*
X0323566Y0295578D01*
X0323513Y0295429D01*
X0323457Y0295281D01*
X0323397Y0295135D01*
X0323333Y0294990D01*
X0323265Y0294847D01*
X0323194Y0294705D01*
X0323120Y0294565D01*
X0323042Y0294428D01*
X0322960Y0294292D01*
X0322876Y0294158D01*
X0322787Y0294027D01*
X0322696Y0293898D01*
X0322601Y0293771D01*
X0322504Y0293646D01*
X0322403Y0293524D01*
X0322299Y0293405D01*
X0322192Y0293288D01*
X0322082Y0293174D01*
X0321969Y0293063D01*
X0321854Y0292954D01*
X0321736Y0292849D01*
X0321615Y0292747D01*
X0321492Y0292647D01*
X0321366Y0292551D01*
X0321238Y0292458D01*
X0321108Y0292368D01*
X0320975Y0292282D01*
X0320840Y0292198D01*
X0320704Y0292119D01*
X0320565Y0292042D01*
X0320424Y0291970D01*
X0320282Y0291900D01*
X0320138Y0291835D01*
X0319992Y0291773D01*
X0319845Y0291715D01*
X0319696Y0291660D01*
X0319546Y0291609D01*
X0319395Y0291562D01*
X0319243Y0291519D01*
X0319090Y0291480D01*
X0318935Y0291444D01*
X0318780Y0291413D01*
X0318624Y0291385D01*
X0318468Y0291361D01*
X0318311Y0291341D01*
X0318153Y0291325D01*
X0317996Y0291313D01*
X0317837Y0291305D01*
X0317679Y0291301D01*
X0317521Y0291301D01*
X0317363Y0291305D01*
X0317204Y0291313D01*
X0317047Y0291325D01*
X0316889Y0291341D01*
X0316732Y0291361D01*
X0316576Y0291385D01*
X0316420Y0291413D01*
X0316265Y0291444D01*
X0316110Y0291480D01*
X0315957Y0291519D01*
X0315805Y0291562D01*
X0315654Y0291609D01*
X0315504Y0291660D01*
X0315355Y0291715D01*
X0315208Y0291773D01*
X0315062Y0291835D01*
X0314918Y0291900D01*
X0314776Y0291970D01*
X0314635Y0292042D01*
X0314496Y0292119D01*
X0314360Y0292198D01*
X0314225Y0292282D01*
X0314092Y0292368D01*
X0313962Y0292458D01*
X0313834Y0292551D01*
X0313708Y0292647D01*
X0313585Y0292747D01*
X0313464Y0292849D01*
X0313346Y0292954D01*
X0313231Y0293063D01*
X0313118Y0293174D01*
X0313008Y0293288D01*
X0312901Y0293405D01*
X0312797Y0293524D01*
X0312696Y0293646D01*
X0312599Y0293771D01*
X0312504Y0293898D01*
X0312413Y0294027D01*
X0312324Y0294158D01*
X0312240Y0294292D01*
X0312158Y0294428D01*
X0312080Y0294565D01*
X0312006Y0294705D01*
X0311935Y0294847D01*
X0311867Y0294990D01*
X0311803Y0295135D01*
X0311743Y0295281D01*
X0311687Y0295429D01*
X0311634Y0295578D01*
X0311585Y0295729D01*
X0311540Y0295881D01*
X0311499Y0296034D01*
X0311461Y0296187D01*
X0311428Y0296342D01*
X0311398Y0296498D01*
X0311372Y0296654D01*
X0311351Y0296811D01*
X0311333Y0296968D01*
X0311319Y0297126D01*
X0311309Y0297284D01*
X0311303Y0297442D01*
X0311301Y0297600D01*
X0366301Y0297600D02*
X0366303Y0297758D01*
X0366309Y0297916D01*
X0366319Y0298074D01*
X0366333Y0298232D01*
X0366351Y0298389D01*
X0366372Y0298546D01*
X0366398Y0298702D01*
X0366428Y0298858D01*
X0366461Y0299013D01*
X0366499Y0299166D01*
X0366540Y0299319D01*
X0366585Y0299471D01*
X0366634Y0299622D01*
X0366687Y0299771D01*
X0366743Y0299919D01*
X0366803Y0300065D01*
X0366867Y0300210D01*
X0366935Y0300353D01*
X0367006Y0300495D01*
X0367080Y0300635D01*
X0367158Y0300772D01*
X0367240Y0300908D01*
X0367324Y0301042D01*
X0367413Y0301173D01*
X0367504Y0301302D01*
X0367599Y0301429D01*
X0367696Y0301554D01*
X0367797Y0301676D01*
X0367901Y0301795D01*
X0368008Y0301912D01*
X0368118Y0302026D01*
X0368231Y0302137D01*
X0368346Y0302246D01*
X0368464Y0302351D01*
X0368585Y0302453D01*
X0368708Y0302553D01*
X0368834Y0302649D01*
X0368962Y0302742D01*
X0369092Y0302832D01*
X0369225Y0302918D01*
X0369360Y0303002D01*
X0369496Y0303081D01*
X0369635Y0303158D01*
X0369776Y0303230D01*
X0369918Y0303300D01*
X0370062Y0303365D01*
X0370208Y0303427D01*
X0370355Y0303485D01*
X0370504Y0303540D01*
X0370654Y0303591D01*
X0370805Y0303638D01*
X0370957Y0303681D01*
X0371110Y0303720D01*
X0371265Y0303756D01*
X0371420Y0303787D01*
X0371576Y0303815D01*
X0371732Y0303839D01*
X0371889Y0303859D01*
X0372047Y0303875D01*
X0372204Y0303887D01*
X0372363Y0303895D01*
X0372521Y0303899D01*
X0372679Y0303899D01*
X0372837Y0303895D01*
X0372996Y0303887D01*
X0373153Y0303875D01*
X0373311Y0303859D01*
X0373468Y0303839D01*
X0373624Y0303815D01*
X0373780Y0303787D01*
X0373935Y0303756D01*
X0374090Y0303720D01*
X0374243Y0303681D01*
X0374395Y0303638D01*
X0374546Y0303591D01*
X0374696Y0303540D01*
X0374845Y0303485D01*
X0374992Y0303427D01*
X0375138Y0303365D01*
X0375282Y0303300D01*
X0375424Y0303230D01*
X0375565Y0303158D01*
X0375704Y0303081D01*
X0375840Y0303002D01*
X0375975Y0302918D01*
X0376108Y0302832D01*
X0376238Y0302742D01*
X0376366Y0302649D01*
X0376492Y0302553D01*
X0376615Y0302453D01*
X0376736Y0302351D01*
X0376854Y0302246D01*
X0376969Y0302137D01*
X0377082Y0302026D01*
X0377192Y0301912D01*
X0377299Y0301795D01*
X0377403Y0301676D01*
X0377504Y0301554D01*
X0377601Y0301429D01*
X0377696Y0301302D01*
X0377787Y0301173D01*
X0377876Y0301042D01*
X0377960Y0300908D01*
X0378042Y0300772D01*
X0378120Y0300635D01*
X0378194Y0300495D01*
X0378265Y0300353D01*
X0378333Y0300210D01*
X0378397Y0300065D01*
X0378457Y0299919D01*
X0378513Y0299771D01*
X0378566Y0299622D01*
X0378615Y0299471D01*
X0378660Y0299319D01*
X0378701Y0299166D01*
X0378739Y0299013D01*
X0378772Y0298858D01*
X0378802Y0298702D01*
X0378828Y0298546D01*
X0378849Y0298389D01*
X0378867Y0298232D01*
X0378881Y0298074D01*
X0378891Y0297916D01*
X0378897Y0297758D01*
X0378899Y0297600D01*
X0378897Y0297442D01*
X0378891Y0297284D01*
X0378881Y0297126D01*
X0378867Y0296968D01*
X0378849Y0296811D01*
X0378828Y0296654D01*
X0378802Y0296498D01*
X0378772Y0296342D01*
X0378739Y0296187D01*
X0378701Y0296034D01*
X0378660Y0295881D01*
X0378615Y0295729D01*
X0378566Y0295578D01*
X0378513Y0295429D01*
X0378457Y0295281D01*
X0378397Y0295135D01*
X0378333Y0294990D01*
X0378265Y0294847D01*
X0378194Y0294705D01*
X0378120Y0294565D01*
X0378042Y0294428D01*
X0377960Y0294292D01*
X0377876Y0294158D01*
X0377787Y0294027D01*
X0377696Y0293898D01*
X0377601Y0293771D01*
X0377504Y0293646D01*
X0377403Y0293524D01*
X0377299Y0293405D01*
X0377192Y0293288D01*
X0377082Y0293174D01*
X0376969Y0293063D01*
X0376854Y0292954D01*
X0376736Y0292849D01*
X0376615Y0292747D01*
X0376492Y0292647D01*
X0376366Y0292551D01*
X0376238Y0292458D01*
X0376108Y0292368D01*
X0375975Y0292282D01*
X0375840Y0292198D01*
X0375704Y0292119D01*
X0375565Y0292042D01*
X0375424Y0291970D01*
X0375282Y0291900D01*
X0375138Y0291835D01*
X0374992Y0291773D01*
X0374845Y0291715D01*
X0374696Y0291660D01*
X0374546Y0291609D01*
X0374395Y0291562D01*
X0374243Y0291519D01*
X0374090Y0291480D01*
X0373935Y0291444D01*
X0373780Y0291413D01*
X0373624Y0291385D01*
X0373468Y0291361D01*
X0373311Y0291341D01*
X0373153Y0291325D01*
X0372996Y0291313D01*
X0372837Y0291305D01*
X0372679Y0291301D01*
X0372521Y0291301D01*
X0372363Y0291305D01*
X0372204Y0291313D01*
X0372047Y0291325D01*
X0371889Y0291341D01*
X0371732Y0291361D01*
X0371576Y0291385D01*
X0371420Y0291413D01*
X0371265Y0291444D01*
X0371110Y0291480D01*
X0370957Y0291519D01*
X0370805Y0291562D01*
X0370654Y0291609D01*
X0370504Y0291660D01*
X0370355Y0291715D01*
X0370208Y0291773D01*
X0370062Y0291835D01*
X0369918Y0291900D01*
X0369776Y0291970D01*
X0369635Y0292042D01*
X0369496Y0292119D01*
X0369360Y0292198D01*
X0369225Y0292282D01*
X0369092Y0292368D01*
X0368962Y0292458D01*
X0368834Y0292551D01*
X0368708Y0292647D01*
X0368585Y0292747D01*
X0368464Y0292849D01*
X0368346Y0292954D01*
X0368231Y0293063D01*
X0368118Y0293174D01*
X0368008Y0293288D01*
X0367901Y0293405D01*
X0367797Y0293524D01*
X0367696Y0293646D01*
X0367599Y0293771D01*
X0367504Y0293898D01*
X0367413Y0294027D01*
X0367324Y0294158D01*
X0367240Y0294292D01*
X0367158Y0294428D01*
X0367080Y0294565D01*
X0367006Y0294705D01*
X0366935Y0294847D01*
X0366867Y0294990D01*
X0366803Y0295135D01*
X0366743Y0295281D01*
X0366687Y0295429D01*
X0366634Y0295578D01*
X0366585Y0295729D01*
X0366540Y0295881D01*
X0366499Y0296034D01*
X0366461Y0296187D01*
X0366428Y0296342D01*
X0366398Y0296498D01*
X0366372Y0296654D01*
X0366351Y0296811D01*
X0366333Y0296968D01*
X0366319Y0297126D01*
X0366309Y0297284D01*
X0366303Y0297442D01*
X0366301Y0297600D01*
X0021301Y0292600D02*
X0021303Y0292758D01*
X0021309Y0292916D01*
X0021319Y0293074D01*
X0021333Y0293232D01*
X0021351Y0293389D01*
X0021372Y0293546D01*
X0021398Y0293702D01*
X0021428Y0293858D01*
X0021461Y0294013D01*
X0021499Y0294166D01*
X0021540Y0294319D01*
X0021585Y0294471D01*
X0021634Y0294622D01*
X0021687Y0294771D01*
X0021743Y0294919D01*
X0021803Y0295065D01*
X0021867Y0295210D01*
X0021935Y0295353D01*
X0022006Y0295495D01*
X0022080Y0295635D01*
X0022158Y0295772D01*
X0022240Y0295908D01*
X0022324Y0296042D01*
X0022413Y0296173D01*
X0022504Y0296302D01*
X0022599Y0296429D01*
X0022696Y0296554D01*
X0022797Y0296676D01*
X0022901Y0296795D01*
X0023008Y0296912D01*
X0023118Y0297026D01*
X0023231Y0297137D01*
X0023346Y0297246D01*
X0023464Y0297351D01*
X0023585Y0297453D01*
X0023708Y0297553D01*
X0023834Y0297649D01*
X0023962Y0297742D01*
X0024092Y0297832D01*
X0024225Y0297918D01*
X0024360Y0298002D01*
X0024496Y0298081D01*
X0024635Y0298158D01*
X0024776Y0298230D01*
X0024918Y0298300D01*
X0025062Y0298365D01*
X0025208Y0298427D01*
X0025355Y0298485D01*
X0025504Y0298540D01*
X0025654Y0298591D01*
X0025805Y0298638D01*
X0025957Y0298681D01*
X0026110Y0298720D01*
X0026265Y0298756D01*
X0026420Y0298787D01*
X0026576Y0298815D01*
X0026732Y0298839D01*
X0026889Y0298859D01*
X0027047Y0298875D01*
X0027204Y0298887D01*
X0027363Y0298895D01*
X0027521Y0298899D01*
X0027679Y0298899D01*
X0027837Y0298895D01*
X0027996Y0298887D01*
X0028153Y0298875D01*
X0028311Y0298859D01*
X0028468Y0298839D01*
X0028624Y0298815D01*
X0028780Y0298787D01*
X0028935Y0298756D01*
X0029090Y0298720D01*
X0029243Y0298681D01*
X0029395Y0298638D01*
X0029546Y0298591D01*
X0029696Y0298540D01*
X0029845Y0298485D01*
X0029992Y0298427D01*
X0030138Y0298365D01*
X0030282Y0298300D01*
X0030424Y0298230D01*
X0030565Y0298158D01*
X0030704Y0298081D01*
X0030840Y0298002D01*
X0030975Y0297918D01*
X0031108Y0297832D01*
X0031238Y0297742D01*
X0031366Y0297649D01*
X0031492Y0297553D01*
X0031615Y0297453D01*
X0031736Y0297351D01*
X0031854Y0297246D01*
X0031969Y0297137D01*
X0032082Y0297026D01*
X0032192Y0296912D01*
X0032299Y0296795D01*
X0032403Y0296676D01*
X0032504Y0296554D01*
X0032601Y0296429D01*
X0032696Y0296302D01*
X0032787Y0296173D01*
X0032876Y0296042D01*
X0032960Y0295908D01*
X0033042Y0295772D01*
X0033120Y0295635D01*
X0033194Y0295495D01*
X0033265Y0295353D01*
X0033333Y0295210D01*
X0033397Y0295065D01*
X0033457Y0294919D01*
X0033513Y0294771D01*
X0033566Y0294622D01*
X0033615Y0294471D01*
X0033660Y0294319D01*
X0033701Y0294166D01*
X0033739Y0294013D01*
X0033772Y0293858D01*
X0033802Y0293702D01*
X0033828Y0293546D01*
X0033849Y0293389D01*
X0033867Y0293232D01*
X0033881Y0293074D01*
X0033891Y0292916D01*
X0033897Y0292758D01*
X0033899Y0292600D01*
X0033897Y0292442D01*
X0033891Y0292284D01*
X0033881Y0292126D01*
X0033867Y0291968D01*
X0033849Y0291811D01*
X0033828Y0291654D01*
X0033802Y0291498D01*
X0033772Y0291342D01*
X0033739Y0291187D01*
X0033701Y0291034D01*
X0033660Y0290881D01*
X0033615Y0290729D01*
X0033566Y0290578D01*
X0033513Y0290429D01*
X0033457Y0290281D01*
X0033397Y0290135D01*
X0033333Y0289990D01*
X0033265Y0289847D01*
X0033194Y0289705D01*
X0033120Y0289565D01*
X0033042Y0289428D01*
X0032960Y0289292D01*
X0032876Y0289158D01*
X0032787Y0289027D01*
X0032696Y0288898D01*
X0032601Y0288771D01*
X0032504Y0288646D01*
X0032403Y0288524D01*
X0032299Y0288405D01*
X0032192Y0288288D01*
X0032082Y0288174D01*
X0031969Y0288063D01*
X0031854Y0287954D01*
X0031736Y0287849D01*
X0031615Y0287747D01*
X0031492Y0287647D01*
X0031366Y0287551D01*
X0031238Y0287458D01*
X0031108Y0287368D01*
X0030975Y0287282D01*
X0030840Y0287198D01*
X0030704Y0287119D01*
X0030565Y0287042D01*
X0030424Y0286970D01*
X0030282Y0286900D01*
X0030138Y0286835D01*
X0029992Y0286773D01*
X0029845Y0286715D01*
X0029696Y0286660D01*
X0029546Y0286609D01*
X0029395Y0286562D01*
X0029243Y0286519D01*
X0029090Y0286480D01*
X0028935Y0286444D01*
X0028780Y0286413D01*
X0028624Y0286385D01*
X0028468Y0286361D01*
X0028311Y0286341D01*
X0028153Y0286325D01*
X0027996Y0286313D01*
X0027837Y0286305D01*
X0027679Y0286301D01*
X0027521Y0286301D01*
X0027363Y0286305D01*
X0027204Y0286313D01*
X0027047Y0286325D01*
X0026889Y0286341D01*
X0026732Y0286361D01*
X0026576Y0286385D01*
X0026420Y0286413D01*
X0026265Y0286444D01*
X0026110Y0286480D01*
X0025957Y0286519D01*
X0025805Y0286562D01*
X0025654Y0286609D01*
X0025504Y0286660D01*
X0025355Y0286715D01*
X0025208Y0286773D01*
X0025062Y0286835D01*
X0024918Y0286900D01*
X0024776Y0286970D01*
X0024635Y0287042D01*
X0024496Y0287119D01*
X0024360Y0287198D01*
X0024225Y0287282D01*
X0024092Y0287368D01*
X0023962Y0287458D01*
X0023834Y0287551D01*
X0023708Y0287647D01*
X0023585Y0287747D01*
X0023464Y0287849D01*
X0023346Y0287954D01*
X0023231Y0288063D01*
X0023118Y0288174D01*
X0023008Y0288288D01*
X0022901Y0288405D01*
X0022797Y0288524D01*
X0022696Y0288646D01*
X0022599Y0288771D01*
X0022504Y0288898D01*
X0022413Y0289027D01*
X0022324Y0289158D01*
X0022240Y0289292D01*
X0022158Y0289428D01*
X0022080Y0289565D01*
X0022006Y0289705D01*
X0021935Y0289847D01*
X0021867Y0289990D01*
X0021803Y0290135D01*
X0021743Y0290281D01*
X0021687Y0290429D01*
X0021634Y0290578D01*
X0021585Y0290729D01*
X0021540Y0290881D01*
X0021499Y0291034D01*
X0021461Y0291187D01*
X0021428Y0291342D01*
X0021398Y0291498D01*
X0021372Y0291654D01*
X0021351Y0291811D01*
X0021333Y0291968D01*
X0021319Y0292126D01*
X0021309Y0292284D01*
X0021303Y0292442D01*
X0021301Y0292600D01*
D11*
X0067600Y0307600D03*
X0267600Y0202600D03*
D12*
X0247600Y0202600D03*
X0247600Y0222600D03*
X0267600Y0222600D03*
X0252600Y0182600D03*
X0232600Y0182600D03*
X0107600Y0287600D03*
X0087600Y0287600D03*
X0067600Y0287600D03*
X0087600Y0307600D03*
X0107600Y0307600D03*
D13*
X0127600Y0207600D03*
X0167600Y0207600D03*
X0177600Y0207600D03*
X0217600Y0207600D03*
X0057600Y0192600D03*
X0017600Y0192600D03*
D14*
X0067400Y0247600D02*
X0072600Y0247600D01*
X0072600Y0257600D02*
X0067400Y0257600D01*
X0052600Y0275000D02*
X0052600Y0280200D01*
X0052600Y0305000D02*
X0052600Y0310200D01*
X0102600Y0257600D02*
X0107800Y0257600D01*
X0107800Y0247600D02*
X0102600Y0247600D01*
X0212600Y0237600D02*
X0212600Y0232400D01*
X0222600Y0232400D02*
X0222600Y0237600D01*
X0222600Y0267600D02*
X0222600Y0272800D01*
X0212600Y0272800D02*
X0212600Y0267600D01*
X0267600Y0190200D02*
X0267600Y0185000D01*
X0267600Y0160200D02*
X0267600Y0155000D01*
D15*
X0307600Y0154600D02*
X0307600Y0160600D01*
X0317600Y0160600D02*
X0317600Y0154600D01*
X0327600Y0154600D02*
X0327600Y0160600D01*
X0362600Y0160600D02*
X0362600Y0154600D01*
X0372600Y0154600D02*
X0372600Y0160600D01*
X0382600Y0160600D02*
X0382600Y0154600D01*
X0340600Y0087600D02*
X0334600Y0087600D01*
X0334600Y0077600D02*
X0340600Y0077600D01*
X0340600Y0067600D02*
X0334600Y0067600D01*
X0312600Y0074600D02*
X0312600Y0080600D01*
X0302600Y0080600D02*
X0302600Y0074600D01*
X0292600Y0074600D02*
X0292600Y0080600D01*
X0334600Y0037600D02*
X0340600Y0037600D01*
X0340600Y0027600D02*
X0334600Y0027600D01*
X0334600Y0017600D02*
X0340600Y0017600D01*
X0312600Y0024600D02*
X0312600Y0030600D01*
X0302600Y0030600D02*
X0302600Y0024600D01*
X0292600Y0024600D02*
X0292600Y0030600D01*
X0220600Y0122600D02*
X0214600Y0122600D01*
X0214600Y0132600D02*
X0220600Y0132600D01*
X0220600Y0142600D02*
X0214600Y0142600D01*
X0185600Y0142600D02*
X0179600Y0142600D01*
X0179600Y0132600D02*
X0185600Y0132600D01*
X0185600Y0122600D02*
X0179600Y0122600D01*
X0170600Y0087600D02*
X0164600Y0087600D01*
X0164600Y0077600D02*
X0170600Y0077600D01*
X0170600Y0067600D02*
X0164600Y0067600D01*
X0164600Y0037600D02*
X0170600Y0037600D01*
X0170600Y0027600D02*
X0164600Y0027600D01*
X0164600Y0017600D02*
X0170600Y0017600D01*
X0082600Y0024600D02*
X0082600Y0030600D01*
X0072600Y0030600D02*
X0072600Y0024600D01*
X0062600Y0024600D02*
X0062600Y0030600D01*
X0062600Y0074600D02*
X0062600Y0080600D01*
X0072600Y0080600D02*
X0072600Y0074600D01*
X0082600Y0074600D02*
X0082600Y0080600D01*
X0077600Y0119600D02*
X0077600Y0125600D01*
X0087600Y0125600D02*
X0087600Y0119600D01*
X0067600Y0119600D02*
X0067600Y0125600D01*
X0057600Y0125600D02*
X0057600Y0119600D01*
X0047600Y0119600D02*
X0047600Y0125600D01*
X0037600Y0125600D02*
X0037600Y0119600D01*
X0027600Y0119600D02*
X0027600Y0125600D01*
X0017600Y0125600D02*
X0017600Y0119600D01*
X0014600Y0142600D02*
X0020600Y0142600D01*
X0020600Y0152600D02*
X0014600Y0152600D01*
X0014600Y0162600D02*
X0020600Y0162600D01*
X0020600Y0172600D02*
X0014600Y0172600D01*
X0017600Y0209600D02*
X0017600Y0215600D01*
X0027600Y0215600D02*
X0027600Y0209600D01*
X0037600Y0209600D02*
X0037600Y0215600D01*
X0047600Y0215600D02*
X0047600Y0209600D01*
X0057600Y0209600D02*
X0057600Y0215600D01*
X0067600Y0215600D02*
X0067600Y0209600D01*
X0077600Y0209600D02*
X0077600Y0215600D01*
X0087600Y0215600D02*
X0087600Y0209600D01*
X0020600Y0252600D02*
X0014600Y0252600D01*
X0014600Y0262600D02*
X0020600Y0262600D01*
X0127600Y0304600D02*
X0127600Y0310600D01*
X0137600Y0310600D02*
X0137600Y0304600D01*
X0159600Y0307600D02*
X0165600Y0307600D01*
X0165600Y0297600D02*
X0159600Y0297600D01*
X0159600Y0287600D02*
X0165600Y0287600D01*
X0194600Y0287600D02*
X0200600Y0287600D01*
X0200600Y0297600D02*
X0194600Y0297600D01*
X0194600Y0307600D02*
X0200600Y0307600D01*
X0229600Y0307600D02*
X0235600Y0307600D01*
X0235600Y0297600D02*
X0229600Y0297600D01*
X0229600Y0287600D02*
X0235600Y0287600D01*
X0264600Y0287600D02*
X0270600Y0287600D01*
X0270600Y0297600D02*
X0264600Y0297600D01*
X0264600Y0307600D02*
X0270600Y0307600D01*
X0314600Y0262600D02*
X0320600Y0262600D01*
X0320600Y0252600D02*
X0314600Y0252600D01*
X0314600Y0242600D02*
X0320600Y0242600D01*
X0369600Y0242600D02*
X0375600Y0242600D01*
X0375600Y0252600D02*
X0369600Y0252600D01*
X0369600Y0262600D02*
X0375600Y0262600D01*
D16*
X0195175Y0262600D02*
X0190025Y0262600D01*
X0190025Y0252600D02*
X0195175Y0252600D01*
X0195175Y0242600D02*
X0190025Y0242600D01*
X0175175Y0242600D02*
X0170025Y0242600D01*
X0170025Y0252600D02*
X0175175Y0252600D01*
X0175175Y0262600D02*
X0170025Y0262600D01*
X0155175Y0262600D02*
X0150025Y0262600D01*
X0150025Y0252600D02*
X0155175Y0252600D01*
X0155175Y0242600D02*
X0150025Y0242600D01*
X0135175Y0242600D02*
X0130025Y0242600D01*
X0130025Y0252600D02*
X0135175Y0252600D01*
X0135175Y0262600D02*
X0130025Y0262600D01*
X0130025Y0222600D02*
X0135175Y0222600D01*
X0150025Y0222600D02*
X0155175Y0222600D01*
X0170025Y0222600D02*
X0175175Y0222600D01*
X0190025Y0222600D02*
X0195175Y0222600D01*
D17*
X0207600Y0197600D03*
X0207600Y0182600D03*
X0217600Y0182600D03*
X0192600Y0167600D03*
X0202600Y0162600D03*
X0192600Y0157600D03*
X0162600Y0157600D03*
X0162600Y0167600D03*
X0147600Y0162600D03*
X0137600Y0162600D03*
X0142600Y0170100D03*
X0127600Y0182600D03*
X0117600Y0182600D03*
X0122600Y0175100D03*
X0112600Y0162600D03*
X0107600Y0155100D03*
X0102600Y0162600D03*
X0107600Y0195100D03*
X0102600Y0202600D03*
X0112600Y0202600D03*
X0127600Y0197600D03*
X0157600Y0197600D03*
X0157600Y0182600D03*
X0167600Y0182600D03*
X0177600Y0197600D03*
X0122600Y0227600D03*
X0122600Y0237600D03*
X0092600Y0237600D03*
X0092600Y0227600D03*
X0082600Y0227600D03*
X0082600Y0237600D03*
X0052600Y0237600D03*
X0052600Y0227600D03*
X0037600Y0232600D03*
X0027600Y0232600D03*
X0052600Y0252600D03*
X0052600Y0262600D03*
X0062600Y0272600D03*
X0092600Y0272600D03*
X0062600Y0177600D03*
X0062600Y0167600D03*
X0062600Y0157600D03*
X0062600Y0147600D03*
X0032600Y0147600D03*
X0032600Y0157600D03*
X0032600Y0167600D03*
X0032600Y0177600D03*
X0097600Y0082600D03*
X0092600Y0067600D03*
X0112600Y0067600D03*
X0117600Y0067600D03*
X0137600Y0067600D03*
X0137600Y0082600D03*
X0137600Y0032600D03*
X0137600Y0017600D03*
X0117600Y0017600D03*
X0112600Y0017600D03*
X0092600Y0017600D03*
X0097600Y0032600D03*
X0232600Y0162600D03*
X0247600Y0162600D03*
X0257600Y0162600D03*
X0307600Y0187600D03*
X0322600Y0187600D03*
X0307600Y0207600D03*
X0307600Y0212600D03*
X0322600Y0227600D03*
X0307600Y0232600D03*
X0362600Y0232600D03*
X0377600Y0227600D03*
X0362600Y0212600D03*
X0362600Y0207600D03*
X0362600Y0187600D03*
X0377600Y0187600D03*
X0237600Y0237600D03*
X0237600Y0267600D03*
D18*
X0237350Y0268100D01*
X0223100Y0268100D01*
X0222600Y0267600D01*
X0302600Y0238100D02*
X0302600Y0217850D01*
X0307100Y0213350D01*
X0307600Y0212600D01*
X0307850Y0212600D01*
X0307850Y0208100D01*
X0307600Y0207600D01*
X0322850Y0226850D02*
X0327350Y0222350D01*
X0327350Y0157850D01*
X0327600Y0157600D01*
X0307850Y0157850D02*
X0307600Y0157600D01*
X0307850Y0157850D02*
X0307850Y0187100D01*
X0307600Y0187600D01*
X0307850Y0187850D01*
X0322100Y0187850D01*
X0322600Y0187600D01*
X0362600Y0187600D02*
X0362600Y0157600D01*
X0382600Y0157600D02*
X0382850Y0157850D01*
X0382850Y0221600D01*
X0377600Y0226850D01*
X0377600Y0227600D01*
X0373100Y0227600D01*
X0373100Y0242600D01*
X0372600Y0242600D01*
X0367850Y0247850D02*
X0367100Y0247850D01*
X0357350Y0238100D01*
X0357350Y0218600D01*
X0362600Y0213350D01*
X0362600Y0212600D01*
X0362600Y0207600D01*
X0362600Y0187850D02*
X0362600Y0187600D01*
X0362600Y0187850D02*
X0377600Y0187850D01*
X0377600Y0187600D01*
X0373100Y0227600D02*
X0367100Y0227600D01*
X0362600Y0232100D01*
X0362600Y0232600D01*
X0367850Y0247850D02*
X0372600Y0252600D01*
X0322600Y0227600D02*
X0322850Y0226850D01*
X0322600Y0227600D02*
X0322100Y0227600D01*
X0312350Y0237350D01*
X0307600Y0232600D01*
X0312350Y0237350D02*
X0317600Y0242600D01*
X0313100Y0247850D02*
X0312350Y0247850D01*
X0302600Y0238100D01*
X0313100Y0247850D02*
X0317600Y0252350D01*
X0317600Y0252600D01*
X0262850Y0162350D02*
X0257600Y0162350D01*
X0257600Y0162600D01*
X0262850Y0162350D02*
X0267600Y0157600D01*
X0247600Y0162600D02*
X0247100Y0162350D01*
X0232850Y0162350D01*
X0232600Y0162600D01*
X0207600Y0182600D02*
X0207350Y0182600D01*
X0207350Y0197600D01*
X0207600Y0197600D01*
X0192600Y0167600D02*
X0192350Y0167600D01*
X0192350Y0162350D01*
X0160850Y0162350D01*
X0153350Y0169850D01*
X0142850Y0169850D01*
X0142600Y0170100D01*
X0137600Y0162600D02*
X0137600Y0162350D01*
X0121850Y0162350D01*
X0102350Y0142850D01*
X0057350Y0142850D01*
X0057350Y0159350D01*
X0062600Y0164600D01*
X0062600Y0167600D01*
X0052100Y0169850D02*
X0052100Y0206600D01*
X0058100Y0212600D01*
X0057600Y0212600D01*
X0062600Y0217850D02*
X0059600Y0220850D01*
X0055100Y0220850D01*
X0047600Y0213350D01*
X0047600Y0212600D01*
X0037850Y0212600D02*
X0037600Y0212600D01*
X0037850Y0212600D02*
X0037850Y0166100D01*
X0034100Y0162350D01*
X0030350Y0162350D01*
X0027350Y0159350D01*
X0027350Y0145850D01*
X0032600Y0140600D01*
X0032600Y0117350D01*
X0035600Y0114350D01*
X0128600Y0114350D01*
X0136850Y0122600D01*
X0182600Y0122600D01*
X0192600Y0157600D02*
X0192350Y0157850D01*
X0192350Y0162350D01*
X0157850Y0182600D02*
X0157600Y0182600D01*
X0157850Y0182600D02*
X0157850Y0197600D01*
X0157600Y0197600D01*
X0132350Y0212600D02*
X0127850Y0208100D01*
X0127600Y0207600D01*
X0127850Y0207350D01*
X0127850Y0198350D01*
X0127600Y0197600D01*
X0127850Y0197600D01*
X0127850Y0182600D01*
X0127600Y0182600D01*
X0122600Y0175100D02*
X0108350Y0175100D01*
X0091100Y0157850D01*
X0062600Y0157850D01*
X0062600Y0157600D01*
X0062600Y0148100D02*
X0062600Y0147600D01*
X0062600Y0148100D02*
X0100850Y0148100D01*
X0107600Y0154850D01*
X0107600Y0155100D01*
X0097850Y0172100D02*
X0062600Y0207350D01*
X0062600Y0217850D01*
X0052600Y0227600D02*
X0042350Y0227600D01*
X0037850Y0232100D01*
X0037600Y0232600D01*
X0052600Y0237600D02*
X0052850Y0238100D01*
X0052850Y0252350D01*
X0052600Y0252600D01*
X0052600Y0262600D02*
X0052850Y0262850D01*
X0052850Y0277100D01*
X0052600Y0277600D01*
X0072600Y0257600D02*
X0077600Y0257600D01*
X0092600Y0272600D01*
X0102350Y0247850D02*
X0102600Y0247600D01*
X0102350Y0247850D02*
X0092600Y0238100D01*
X0092600Y0237600D01*
X0107600Y0212600D02*
X0122600Y0227600D01*
X0122600Y0237600D01*
X0132600Y0222600D02*
X0132350Y0222350D01*
X0132350Y0212600D01*
X0107600Y0212600D02*
X0107600Y0195100D01*
X0052100Y0169850D02*
X0032600Y0150350D01*
X0032600Y0147600D01*
X0032600Y0167600D02*
X0032600Y0177600D01*
X0031850Y0178100D01*
X0031850Y0186350D01*
X0017600Y0200600D01*
X0017600Y0212600D01*
X0057350Y0142850D02*
X0057350Y0122600D01*
X0057600Y0122600D01*
X0097600Y0082600D02*
X0102350Y0087350D01*
X0167600Y0087350D01*
X0167600Y0087600D01*
X0167600Y0077600D02*
X0127850Y0077600D01*
X0118100Y0067850D01*
X0117600Y0067600D01*
X0117350Y0067850D01*
X0112850Y0067850D01*
X0112600Y0067600D01*
X0107600Y0062600D01*
X0087350Y0062600D01*
X0077600Y0072350D01*
X0077600Y0073100D01*
X0073100Y0077600D01*
X0072600Y0077600D01*
X0082600Y0077600D02*
X0082850Y0077600D01*
X0087725Y0072725D01*
X0097600Y0082600D01*
X0087725Y0072725D02*
X0092600Y0067850D01*
X0092600Y0067600D01*
X0102350Y0037850D02*
X0097850Y0033350D01*
X0097600Y0032600D01*
X0097100Y0032600D01*
X0087350Y0022850D01*
X0092600Y0017600D01*
X0087350Y0012350D02*
X0107600Y0012350D01*
X0112100Y0016850D01*
X0112600Y0017600D01*
X0117600Y0017600D01*
X0118100Y0018350D01*
X0127100Y0027350D01*
X0167600Y0027350D01*
X0167600Y0027600D01*
X0167600Y0037600D02*
X0167600Y0037850D01*
X0102350Y0037850D01*
X0087350Y0022850D02*
X0082600Y0027600D01*
X0077600Y0022850D02*
X0077600Y0022100D01*
X0087350Y0012350D01*
X0077600Y0022850D02*
X0073100Y0027350D01*
X0072600Y0027600D01*
X0292100Y0027350D02*
X0292600Y0027600D01*
X0292100Y0027350D02*
X0301850Y0017600D01*
X0337600Y0017600D01*
X0327350Y0028100D02*
X0337100Y0037850D01*
X0337600Y0037600D01*
X0327350Y0028100D02*
X0313100Y0028100D01*
X0312600Y0027600D01*
X0301850Y0067850D02*
X0292100Y0077600D01*
X0292600Y0077600D01*
X0301850Y0067850D02*
X0337100Y0067850D01*
X0337600Y0067600D01*
X0327350Y0077600D02*
X0337100Y0087350D01*
X0337600Y0087600D01*
X0327350Y0077600D02*
X0312600Y0077600D01*
D19*
X0232850Y0182600D02*
X0232600Y0182600D01*
X0232850Y0182600D02*
X0250100Y0199850D01*
X0262100Y0187850D01*
X0267350Y0187850D01*
X0267600Y0187600D01*
X0250100Y0199850D02*
X0247850Y0202100D01*
X0247600Y0202600D01*
X0247100Y0204350D01*
X0238100Y0213350D01*
X0238100Y0237350D01*
X0237600Y0237600D01*
X0231350Y0253100D02*
X0258350Y0280100D01*
X0258350Y0289850D01*
X0265850Y0297350D01*
X0267350Y0297350D01*
X0267600Y0297600D01*
X0267600Y0287600D02*
X0268100Y0287600D01*
X0280850Y0274850D01*
X0280850Y0250100D01*
X0268100Y0237350D01*
X0268100Y0223100D01*
X0267600Y0222600D01*
X0267600Y0202600D02*
X0247600Y0222600D01*
X0231350Y0253100D02*
X0193100Y0253100D01*
X0192600Y0252600D01*
X0188600Y0258350D02*
X0187850Y0258350D01*
X0181100Y0251600D01*
X0181100Y0250100D01*
X0173600Y0242600D01*
X0172600Y0242600D01*
X0172600Y0252600D02*
X0172850Y0253100D01*
X0176600Y0256850D01*
X0177350Y0256850D01*
X0184100Y0263600D01*
X0184100Y0265100D01*
X0200600Y0281600D01*
X0214850Y0281600D01*
X0230600Y0297350D01*
X0232100Y0297350D01*
X0232600Y0297600D01*
X0232600Y0287600D02*
X0229100Y0287600D01*
X0212600Y0271100D01*
X0212600Y0267600D01*
X0192600Y0262600D02*
X0192350Y0262100D01*
X0188600Y0258350D01*
X0163850Y0262850D02*
X0163850Y0265850D01*
X0195350Y0297350D01*
X0197600Y0297350D01*
X0197600Y0297600D01*
X0197600Y0307600D02*
X0199100Y0307850D01*
X0232100Y0307850D01*
X0232600Y0307600D01*
X0234350Y0307850D01*
X0267350Y0307850D01*
X0267600Y0307600D01*
X0197600Y0307850D02*
X0197600Y0307600D01*
X0197600Y0307850D02*
X0172100Y0307850D01*
X0172100Y0285350D01*
X0153350Y0266600D01*
X0153350Y0264350D01*
X0152600Y0262600D01*
X0152600Y0262100D01*
X0151100Y0262100D01*
X0144350Y0255350D01*
X0144350Y0253850D01*
X0133100Y0242600D01*
X0132600Y0242600D01*
X0132600Y0252600D02*
X0136850Y0256850D01*
X0137600Y0256850D01*
X0144350Y0263600D01*
X0144350Y0280850D01*
X0160850Y0297350D01*
X0162350Y0297350D01*
X0162600Y0297600D01*
X0162600Y0307600D02*
X0163850Y0307850D01*
X0172100Y0307850D01*
X0162600Y0307600D02*
X0162350Y0307850D01*
X0137600Y0307850D01*
X0137600Y0307600D01*
X0127600Y0307600D02*
X0107600Y0287600D01*
X0107600Y0279350D01*
X0082850Y0254600D01*
X0082850Y0238100D01*
X0082600Y0237600D01*
X0062600Y0272600D02*
X0062600Y0278600D01*
X0052850Y0288350D01*
X0052850Y0307100D01*
X0052600Y0307600D01*
X0053600Y0309350D01*
X0058100Y0313850D01*
X0070100Y0313850D01*
X0075350Y0308600D01*
X0085850Y0308600D01*
X0087600Y0307600D01*
X0088100Y0307850D01*
X0107600Y0307850D01*
X0107600Y0307600D01*
X0087600Y0287600D02*
X0087350Y0287600D01*
X0067850Y0307100D01*
X0067600Y0307600D01*
X0152600Y0253100D02*
X0152600Y0252600D01*
X0152600Y0253100D02*
X0154100Y0253100D01*
X0163850Y0262850D01*
D20*
X0152600Y0222600D02*
X0152600Y0222350D01*
X0167600Y0207350D01*
X0167600Y0207600D01*
X0168350Y0208100D01*
X0181850Y0221600D01*
X0191600Y0221600D01*
X0192600Y0222600D01*
X0193100Y0222350D01*
X0202850Y0222350D01*
X0206600Y0218600D01*
X0222350Y0234350D01*
X0222350Y0237350D01*
X0222600Y0237600D01*
X0206600Y0218600D02*
X0217600Y0207600D01*
X0217850Y0206600D01*
X0217850Y0182600D01*
X0217600Y0182600D01*
X0216350Y0181850D01*
X0216350Y0152600D01*
X0208850Y0145100D01*
X0208850Y0133100D01*
X0182600Y0133100D01*
X0182600Y0132600D01*
X0182600Y0142600D02*
X0182600Y0142850D01*
X0178100Y0142850D01*
X0163850Y0157100D01*
X0162600Y0157600D01*
X0162350Y0157850D01*
X0152600Y0157850D01*
X0148100Y0162350D01*
X0147600Y0162600D01*
X0167600Y0182600D02*
X0167600Y0207600D01*
X0117600Y0182600D02*
X0112850Y0182600D01*
X0102350Y0193100D01*
X0102350Y0201350D01*
X0102600Y0202600D01*
X0102350Y0202850D01*
X0102350Y0217850D01*
X0092600Y0227600D01*
X0027600Y0232600D02*
X0027350Y0232850D01*
X0027350Y0253850D01*
X0019100Y0262100D01*
X0017600Y0262100D01*
X0017600Y0262600D01*
X0017600Y0252600D02*
X0017600Y0223850D01*
X0011600Y0217850D01*
X0011600Y0199100D01*
X0017600Y0193100D01*
X0017600Y0192600D01*
X0017600Y0142600D02*
X0017600Y0122600D01*
X0208850Y0133100D02*
X0217100Y0133100D01*
X0217600Y0132600D01*
D21*
X0097850Y0172100D03*
M02*
